<?xml version="1.0" encoding="utf-8" standalone="no"?>
<!DOCTYPE svg PUBLIC "-//W3C//DTD SVG 1.1//EN"
  "http://www.w3.org/Graphics/SVG/1.1/DTD/svg11.dtd">
<svg xmlns:xlink="http://www.w3.org/1999/xlink" width="432pt" height="288pt" viewBox="0 0 432 288" xmlns="http://www.w3.org/2000/svg" version="1.1">
 <metadata>
  <rdf:RDF xmlns:dc="http://purl.org/dc/elements/1.1/" xmlns:cc="http://creativecommons.org/ns#" xmlns:rdf="http://www.w3.org/1999/02/22-rdf-syntax-ns#">
   <cc:Work>
    <dc:type rdf:resource="http://purl.org/dc/dcmitype/StillImage"/>
    <dc:date>2022-05-20T18:56:11.247532</dc:date>
    <dc:format>image/svg+xml</dc:format>
    <dc:creator>
     <cc:Agent>
      <dc:title>Matplotlib v3.5.1, https://matplotlib.org/</dc:title>
     </cc:Agent>
    </dc:creator>
   </cc:Work>
  </rdf:RDF>
 </metadata>
 <defs>
  <style type="text/css">*{stroke-linejoin: round; stroke-linecap: butt}</style>
 </defs>
 <g id="figure_1">
  <g id="patch_1">
   <path d="M 0 288 
L 432 288 
L 432 0 
L 0 0 
L 0 288 
z
" style="fill: none"/>
  </g>
  <g id="axes_1">
   <g id="patch_2">
    <path d="M 54 252 
L 388.8 252 
L 388.8 34.56 
L 54 34.56 
z
" style="fill: #ffffff"/>
   </g>
   <g id="matplotlib.axis_1">
    <g id="xtick_1">
     <g id="line2d_1">
      <defs>
       <path id="m08b0cf0ff6" d="M 0 0 
L 0 3.5 
" style="stroke: #000000; stroke-width: 0.8"/>
      </defs>
      <g>
       <use xlink:href="#m08b0cf0ff6" x="69.218182" y="252" style="stroke: #000000; stroke-width: 0.8"/>
      </g>
     </g>
     <g id="text_1">
      <!-- 0 -->
      <g transform="translate(66.718182 265.94375)scale(0.1 -0.1)">
       <defs>
        <path id="TimesNewRomanPSMT-30" d="M 231 2094 
Q 231 2819 450 3342 
Q 669 3866 1031 4122 
Q 1313 4325 1613 4325 
Q 2100 4325 2488 3828 
Q 2972 3213 2972 2159 
Q 2972 1422 2759 906 
Q 2547 391 2217 158 
Q 1888 -75 1581 -75 
Q 975 -75 572 641 
Q 231 1244 231 2094 
z
M 844 2016 
Q 844 1141 1059 588 
Q 1238 122 1591 122 
Q 1759 122 1940 273 
Q 2122 425 2216 781 
Q 2359 1319 2359 2297 
Q 2359 3022 2209 3506 
Q 2097 3866 1919 4016 
Q 1791 4119 1609 4119 
Q 1397 4119 1231 3928 
Q 1006 3669 925 3112 
Q 844 2556 844 2016 
z
" transform="scale(0.015625)"/>
       </defs>
       <use xlink:href="#TimesNewRomanPSMT-30"/>
      </g>
     </g>
    </g>
    <g id="xtick_2">
     <g id="line2d_2">
      <g>
       <use xlink:href="#m08b0cf0ff6" x="107.282669" y="252" style="stroke: #000000; stroke-width: 0.8"/>
      </g>
     </g>
     <g id="text_2">
      <!-- 250 -->
      <g transform="translate(99.782669 265.94375)scale(0.1 -0.1)">
       <defs>
        <path id="TimesNewRomanPSMT-32" d="M 2934 816 
L 2638 0 
L 138 0 
L 138 116 
Q 1241 1122 1691 1759 
Q 2141 2397 2141 2925 
Q 2141 3328 1894 3587 
Q 1647 3847 1303 3847 
Q 991 3847 742 3664 
Q 494 3481 375 3128 
L 259 3128 
Q 338 3706 661 4015 
Q 984 4325 1469 4325 
Q 1984 4325 2329 3994 
Q 2675 3663 2675 3213 
Q 2675 2891 2525 2569 
Q 2294 2063 1775 1497 
Q 997 647 803 472 
L 1909 472 
Q 2247 472 2383 497 
Q 2519 522 2628 598 
Q 2738 675 2819 816 
L 2934 816 
z
" transform="scale(0.015625)"/>
        <path id="TimesNewRomanPSMT-35" d="M 2778 4238 
L 2534 3706 
L 1259 3706 
L 981 3138 
Q 1809 3016 2294 2522 
Q 2709 2097 2709 1522 
Q 2709 1188 2573 903 
Q 2438 619 2231 419 
Q 2025 219 1772 97 
Q 1413 -75 1034 -75 
Q 653 -75 479 54 
Q 306 184 306 341 
Q 306 428 378 495 
Q 450 563 559 563 
Q 641 563 702 538 
Q 763 513 909 409 
Q 1144 247 1384 247 
Q 1750 247 2026 523 
Q 2303 800 2303 1197 
Q 2303 1581 2056 1914 
Q 1809 2247 1375 2428 
Q 1034 2569 447 2591 
L 1259 4238 
L 2778 4238 
z
" transform="scale(0.015625)"/>
       </defs>
       <use xlink:href="#TimesNewRomanPSMT-32"/>
       <use xlink:href="#TimesNewRomanPSMT-35" x="50"/>
       <use xlink:href="#TimesNewRomanPSMT-30" x="100"/>
      </g>
     </g>
    </g>
    <g id="xtick_3">
     <g id="line2d_3">
      <g>
       <use xlink:href="#m08b0cf0ff6" x="145.347155" y="252" style="stroke: #000000; stroke-width: 0.8"/>
      </g>
     </g>
     <g id="text_3">
      <!-- 500 -->
      <g transform="translate(137.847155 265.94375)scale(0.1 -0.1)">
       <use xlink:href="#TimesNewRomanPSMT-35"/>
       <use xlink:href="#TimesNewRomanPSMT-30" x="50"/>
       <use xlink:href="#TimesNewRomanPSMT-30" x="100"/>
      </g>
     </g>
    </g>
    <g id="xtick_4">
     <g id="line2d_4">
      <g>
       <use xlink:href="#m08b0cf0ff6" x="183.411642" y="252" style="stroke: #000000; stroke-width: 0.8"/>
      </g>
     </g>
     <g id="text_4">
      <!-- 750 -->
      <g transform="translate(175.911642 265.94375)scale(0.1 -0.1)">
       <defs>
        <path id="TimesNewRomanPSMT-37" d="M 644 4238 
L 2916 4238 
L 2916 4119 
L 1503 -88 
L 1153 -88 
L 2419 3728 
L 1253 3728 
Q 900 3728 750 3644 
Q 488 3500 328 3200 
L 238 3234 
L 644 4238 
z
" transform="scale(0.015625)"/>
       </defs>
       <use xlink:href="#TimesNewRomanPSMT-37"/>
       <use xlink:href="#TimesNewRomanPSMT-35" x="50"/>
       <use xlink:href="#TimesNewRomanPSMT-30" x="100"/>
      </g>
     </g>
    </g>
    <g id="xtick_5">
     <g id="line2d_5">
      <g>
       <use xlink:href="#m08b0cf0ff6" x="221.476129" y="252" style="stroke: #000000; stroke-width: 0.8"/>
      </g>
     </g>
     <g id="text_5">
      <!-- 1000 -->
      <g transform="translate(211.476129 265.94375)scale(0.1 -0.1)">
       <defs>
        <path id="TimesNewRomanPSMT-31" d="M 750 3822 
L 1781 4325 
L 1884 4325 
L 1884 747 
Q 1884 391 1914 303 
Q 1944 216 2037 169 
Q 2131 122 2419 116 
L 2419 0 
L 825 0 
L 825 116 
Q 1125 122 1212 167 
Q 1300 213 1334 289 
Q 1369 366 1369 747 
L 1369 3034 
Q 1369 3497 1338 3628 
Q 1316 3728 1258 3775 
Q 1200 3822 1119 3822 
Q 1003 3822 797 3725 
L 750 3822 
z
" transform="scale(0.015625)"/>
       </defs>
       <use xlink:href="#TimesNewRomanPSMT-31"/>
       <use xlink:href="#TimesNewRomanPSMT-30" x="50"/>
       <use xlink:href="#TimesNewRomanPSMT-30" x="100"/>
       <use xlink:href="#TimesNewRomanPSMT-30" x="150"/>
      </g>
     </g>
    </g>
    <g id="xtick_6">
     <g id="line2d_6">
      <g>
       <use xlink:href="#m08b0cf0ff6" x="259.540616" y="252" style="stroke: #000000; stroke-width: 0.8"/>
      </g>
     </g>
     <g id="text_6">
      <!-- 1250 -->
      <g transform="translate(249.540616 265.94375)scale(0.1 -0.1)">
       <use xlink:href="#TimesNewRomanPSMT-31"/>
       <use xlink:href="#TimesNewRomanPSMT-32" x="50"/>
       <use xlink:href="#TimesNewRomanPSMT-35" x="100"/>
       <use xlink:href="#TimesNewRomanPSMT-30" x="150"/>
      </g>
     </g>
    </g>
    <g id="xtick_7">
     <g id="line2d_7">
      <g>
       <use xlink:href="#m08b0cf0ff6" x="297.605103" y="252" style="stroke: #000000; stroke-width: 0.8"/>
      </g>
     </g>
     <g id="text_7">
      <!-- 1500 -->
      <g transform="translate(287.605103 265.94375)scale(0.1 -0.1)">
       <use xlink:href="#TimesNewRomanPSMT-31"/>
       <use xlink:href="#TimesNewRomanPSMT-35" x="50"/>
       <use xlink:href="#TimesNewRomanPSMT-30" x="100"/>
       <use xlink:href="#TimesNewRomanPSMT-30" x="150"/>
      </g>
     </g>
    </g>
    <g id="xtick_8">
     <g id="line2d_8">
      <g>
       <use xlink:href="#m08b0cf0ff6" x="335.669589" y="252" style="stroke: #000000; stroke-width: 0.8"/>
      </g>
     </g>
     <g id="text_8">
      <!-- 1750 -->
      <g transform="translate(325.669589 265.94375)scale(0.1 -0.1)">
       <use xlink:href="#TimesNewRomanPSMT-31"/>
       <use xlink:href="#TimesNewRomanPSMT-37" x="50"/>
       <use xlink:href="#TimesNewRomanPSMT-35" x="100"/>
       <use xlink:href="#TimesNewRomanPSMT-30" x="150"/>
      </g>
     </g>
    </g>
    <g id="xtick_9">
     <g id="line2d_9">
      <g>
       <use xlink:href="#m08b0cf0ff6" x="373.734076" y="252" style="stroke: #000000; stroke-width: 0.8"/>
      </g>
     </g>
     <g id="text_9">
      <!-- 2000 -->
      <g transform="translate(363.734076 265.94375)scale(0.1 -0.1)">
       <use xlink:href="#TimesNewRomanPSMT-32"/>
       <use xlink:href="#TimesNewRomanPSMT-30" x="50"/>
       <use xlink:href="#TimesNewRomanPSMT-30" x="100"/>
       <use xlink:href="#TimesNewRomanPSMT-30" x="150"/>
      </g>
     </g>
    </g>
    <g id="text_10">
     <!-- Time -->
     <g transform="translate(211.023438 279.026563)scale(0.1 -0.1)">
      <defs>
       <path id="TimesNewRomanPSMT-54" d="M 3703 4238 
L 3750 3244 
L 3631 3244 
Q 3597 3506 3538 3619 
Q 3441 3800 3280 3886 
Q 3119 3972 2856 3972 
L 2259 3972 
L 2259 734 
Q 2259 344 2344 247 
Q 2463 116 2709 116 
L 2856 116 
L 2856 0 
L 1059 0 
L 1059 116 
L 1209 116 
Q 1478 116 1591 278 
Q 1659 378 1659 734 
L 1659 3972 
L 1150 3972 
Q 853 3972 728 3928 
Q 566 3869 450 3700 
Q 334 3531 313 3244 
L 194 3244 
L 244 4238 
L 3703 4238 
z
" transform="scale(0.015625)"/>
       <path id="TimesNewRomanPSMT-69" d="M 928 4444 
Q 1059 4444 1151 4351 
Q 1244 4259 1244 4128 
Q 1244 3997 1151 3903 
Q 1059 3809 928 3809 
Q 797 3809 703 3903 
Q 609 3997 609 4128 
Q 609 4259 701 4351 
Q 794 4444 928 4444 
z
M 1188 2947 
L 1188 647 
Q 1188 378 1227 289 
Q 1266 200 1342 156 
Q 1419 113 1622 113 
L 1622 0 
L 231 0 
L 231 113 
Q 441 113 512 153 
Q 584 194 626 287 
Q 669 381 669 647 
L 669 1750 
Q 669 2216 641 2353 
Q 619 2453 572 2492 
Q 525 2531 444 2531 
Q 356 2531 231 2484 
L 188 2597 
L 1050 2947 
L 1188 2947 
z
" transform="scale(0.015625)"/>
       <path id="TimesNewRomanPSMT-6d" d="M 1050 2338 
Q 1363 2650 1419 2697 
Q 1559 2816 1721 2881 
Q 1884 2947 2044 2947 
Q 2313 2947 2506 2790 
Q 2700 2634 2766 2338 
Q 3088 2713 3309 2830 
Q 3531 2947 3766 2947 
Q 3994 2947 4170 2830 
Q 4347 2713 4450 2447 
Q 4519 2266 4519 1878 
L 4519 647 
Q 4519 378 4559 278 
Q 4591 209 4675 161 
Q 4759 113 4950 113 
L 4950 0 
L 3538 0 
L 3538 113 
L 3597 113 
Q 3781 113 3884 184 
Q 3956 234 3988 344 
Q 4000 397 4000 647 
L 4000 1878 
Q 4000 2228 3916 2372 
Q 3794 2572 3525 2572 
Q 3359 2572 3192 2489 
Q 3025 2406 2788 2181 
L 2781 2147 
L 2788 2013 
L 2788 647 
Q 2788 353 2820 281 
Q 2853 209 2943 161 
Q 3034 113 3253 113 
L 3253 0 
L 1806 0 
L 1806 113 
Q 2044 113 2133 169 
Q 2222 225 2256 338 
Q 2272 391 2272 647 
L 2272 1878 
Q 2272 2228 2169 2381 
Q 2031 2581 1784 2581 
Q 1616 2581 1450 2491 
Q 1191 2353 1050 2181 
L 1050 647 
Q 1050 366 1089 281 
Q 1128 197 1204 155 
Q 1281 113 1516 113 
L 1516 0 
L 100 0 
L 100 113 
Q 297 113 375 155 
Q 453 197 493 289 
Q 534 381 534 647 
L 534 1741 
Q 534 2213 506 2350 
Q 484 2453 437 2492 
Q 391 2531 309 2531 
Q 222 2531 100 2484 
L 53 2597 
L 916 2947 
L 1050 2947 
L 1050 2338 
z
" transform="scale(0.015625)"/>
       <path id="TimesNewRomanPSMT-65" d="M 681 1784 
Q 678 1147 991 784 
Q 1303 422 1725 422 
Q 2006 422 2214 576 
Q 2422 731 2563 1106 
L 2659 1044 
Q 2594 616 2278 264 
Q 1963 -88 1488 -88 
Q 972 -88 605 314 
Q 238 716 238 1394 
Q 238 2128 614 2539 
Q 991 2950 1559 2950 
Q 2041 2950 2350 2633 
Q 2659 2316 2659 1784 
L 681 1784 
z
M 681 1966 
L 2006 1966 
Q 1991 2241 1941 2353 
Q 1863 2528 1708 2628 
Q 1553 2728 1384 2728 
Q 1125 2728 920 2526 
Q 716 2325 681 1966 
z
" transform="scale(0.015625)"/>
      </defs>
      <use xlink:href="#TimesNewRomanPSMT-54"/>
      <use xlink:href="#TimesNewRomanPSMT-69" x="57.583984"/>
      <use xlink:href="#TimesNewRomanPSMT-6d" x="85.367188"/>
      <use xlink:href="#TimesNewRomanPSMT-65" x="163.150391"/>
     </g>
    </g>
   </g>
   <g id="matplotlib.axis_2">
    <g id="ytick_1">
     <g id="line2d_10">
      <defs>
       <path id="mb4d5037e5e" d="M 0 0 
L -3.5 0 
" style="stroke: #000000; stroke-width: 0.8"/>
      </defs>
      <g>
       <use xlink:href="#mb4d5037e5e" x="54" y="242.538289" style="stroke: #000000; stroke-width: 0.8"/>
      </g>
     </g>
     <g id="text_11">
      <!-- −1.00 -->
      <g transform="translate(23.860937 246.010164)scale(0.1 -0.1)">
       <defs>
        <path id="TimesNewRomanPSMT-2212" d="M 3484 2000 
L 116 2000 
L 116 2256 
L 3484 2256 
L 3484 2000 
z
" transform="scale(0.015625)"/>
        <path id="TimesNewRomanPSMT-2e" d="M 800 606 
Q 947 606 1047 504 
Q 1147 403 1147 259 
Q 1147 116 1045 14 
Q 944 -88 800 -88 
Q 656 -88 554 14 
Q 453 116 453 259 
Q 453 406 554 506 
Q 656 606 800 606 
z
" transform="scale(0.015625)"/>
       </defs>
       <use xlink:href="#TimesNewRomanPSMT-2212"/>
       <use xlink:href="#TimesNewRomanPSMT-31" x="56.396484"/>
       <use xlink:href="#TimesNewRomanPSMT-2e" x="106.396484"/>
       <use xlink:href="#TimesNewRomanPSMT-30" x="131.396484"/>
       <use xlink:href="#TimesNewRomanPSMT-30" x="181.396484"/>
      </g>
     </g>
    </g>
    <g id="ytick_2">
     <g id="line2d_11">
      <g>
       <use xlink:href="#mb4d5037e5e" x="54" y="217.307864" style="stroke: #000000; stroke-width: 0.8"/>
      </g>
     </g>
     <g id="text_12">
      <!-- −0.75 -->
      <g transform="translate(23.860937 220.779739)scale(0.1 -0.1)">
       <use xlink:href="#TimesNewRomanPSMT-2212"/>
       <use xlink:href="#TimesNewRomanPSMT-30" x="56.396484"/>
       <use xlink:href="#TimesNewRomanPSMT-2e" x="106.396484"/>
       <use xlink:href="#TimesNewRomanPSMT-37" x="131.396484"/>
       <use xlink:href="#TimesNewRomanPSMT-35" x="181.396484"/>
      </g>
     </g>
    </g>
    <g id="ytick_3">
     <g id="line2d_12">
      <g>
       <use xlink:href="#mb4d5037e5e" x="54" y="192.077439" style="stroke: #000000; stroke-width: 0.8"/>
      </g>
     </g>
     <g id="text_13">
      <!-- −0.50 -->
      <g transform="translate(23.860937 195.549314)scale(0.1 -0.1)">
       <use xlink:href="#TimesNewRomanPSMT-2212"/>
       <use xlink:href="#TimesNewRomanPSMT-30" x="56.396484"/>
       <use xlink:href="#TimesNewRomanPSMT-2e" x="106.396484"/>
       <use xlink:href="#TimesNewRomanPSMT-35" x="131.396484"/>
       <use xlink:href="#TimesNewRomanPSMT-30" x="181.396484"/>
      </g>
     </g>
    </g>
    <g id="ytick_4">
     <g id="line2d_13">
      <g>
       <use xlink:href="#mb4d5037e5e" x="54" y="166.847014" style="stroke: #000000; stroke-width: 0.8"/>
      </g>
     </g>
     <g id="text_14">
      <!-- −0.25 -->
      <g transform="translate(23.860937 170.318889)scale(0.1 -0.1)">
       <use xlink:href="#TimesNewRomanPSMT-2212"/>
       <use xlink:href="#TimesNewRomanPSMT-30" x="56.396484"/>
       <use xlink:href="#TimesNewRomanPSMT-2e" x="106.396484"/>
       <use xlink:href="#TimesNewRomanPSMT-32" x="131.396484"/>
       <use xlink:href="#TimesNewRomanPSMT-35" x="181.396484"/>
      </g>
     </g>
    </g>
    <g id="ytick_5">
     <g id="line2d_14">
      <g>
       <use xlink:href="#mb4d5037e5e" x="54" y="141.616588" style="stroke: #000000; stroke-width: 0.8"/>
      </g>
     </g>
     <g id="text_15">
      <!-- 0.00 -->
      <g transform="translate(29.5 145.088463)scale(0.1 -0.1)">
       <use xlink:href="#TimesNewRomanPSMT-30"/>
       <use xlink:href="#TimesNewRomanPSMT-2e" x="50"/>
       <use xlink:href="#TimesNewRomanPSMT-30" x="75"/>
       <use xlink:href="#TimesNewRomanPSMT-30" x="125"/>
      </g>
     </g>
    </g>
    <g id="ytick_6">
     <g id="line2d_15">
      <g>
       <use xlink:href="#mb4d5037e5e" x="54" y="116.386163" style="stroke: #000000; stroke-width: 0.8"/>
      </g>
     </g>
     <g id="text_16">
      <!-- 0.25 -->
      <g transform="translate(29.5 119.858038)scale(0.1 -0.1)">
       <use xlink:href="#TimesNewRomanPSMT-30"/>
       <use xlink:href="#TimesNewRomanPSMT-2e" x="50"/>
       <use xlink:href="#TimesNewRomanPSMT-32" x="75"/>
       <use xlink:href="#TimesNewRomanPSMT-35" x="125"/>
      </g>
     </g>
    </g>
    <g id="ytick_7">
     <g id="line2d_16">
      <g>
       <use xlink:href="#mb4d5037e5e" x="54" y="91.155738" style="stroke: #000000; stroke-width: 0.8"/>
      </g>
     </g>
     <g id="text_17">
      <!-- 0.50 -->
      <g transform="translate(29.5 94.627613)scale(0.1 -0.1)">
       <use xlink:href="#TimesNewRomanPSMT-30"/>
       <use xlink:href="#TimesNewRomanPSMT-2e" x="50"/>
       <use xlink:href="#TimesNewRomanPSMT-35" x="75"/>
       <use xlink:href="#TimesNewRomanPSMT-30" x="125"/>
      </g>
     </g>
    </g>
    <g id="ytick_8">
     <g id="line2d_17">
      <g>
       <use xlink:href="#mb4d5037e5e" x="54" y="65.925313" style="stroke: #000000; stroke-width: 0.8"/>
      </g>
     </g>
     <g id="text_18">
      <!-- 0.75 -->
      <g transform="translate(29.5 69.397188)scale(0.1 -0.1)">
       <use xlink:href="#TimesNewRomanPSMT-30"/>
       <use xlink:href="#TimesNewRomanPSMT-2e" x="50"/>
       <use xlink:href="#TimesNewRomanPSMT-37" x="75"/>
       <use xlink:href="#TimesNewRomanPSMT-35" x="125"/>
      </g>
     </g>
    </g>
    <g id="ytick_9">
     <g id="line2d_18">
      <g>
       <use xlink:href="#mb4d5037e5e" x="54" y="40.694888" style="stroke: #000000; stroke-width: 0.8"/>
      </g>
     </g>
     <g id="text_19">
      <!-- 1.00 -->
      <g transform="translate(29.5 44.166763)scale(0.1 -0.1)">
       <use xlink:href="#TimesNewRomanPSMT-31"/>
       <use xlink:href="#TimesNewRomanPSMT-2e" x="50"/>
       <use xlink:href="#TimesNewRomanPSMT-30" x="75"/>
       <use xlink:href="#TimesNewRomanPSMT-30" x="125"/>
      </g>
     </g>
    </g>
    <g id="text_20">
     <!-- X -->
     <g transform="translate(17.721875 146.890938)rotate(-90)scale(0.1 -0.1)">
      <defs>
       <path id="TimesNewRomanPSMT-58" d="M 2613 2347 
L 3522 991 
Q 3900 428 4083 279 
Q 4266 131 4547 116 
L 4547 0 
L 2728 0 
L 2728 116 
Q 2909 119 2997 153 
Q 3063 181 3105 239 
Q 3147 297 3147 356 
Q 3147 428 3119 500 
Q 3097 553 2947 775 
L 2228 1863 
L 1341 725 
Q 1200 544 1172 483 
Q 1144 422 1144 356 
Q 1144 256 1228 190 
Q 1313 125 1550 116 
L 1550 0 
L 47 0 
L 47 116 
Q 206 131 322 181 
Q 516 263 691 400 
Q 866 538 1091 822 
L 2091 2084 
L 1256 3306 
Q 916 3803 678 3958 
Q 441 4113 131 4122 
L 131 4238 
L 2091 4238 
L 2091 4122 
Q 1841 4113 1748 4041 
Q 1656 3969 1656 3881 
Q 1656 3766 1806 3544 
L 2456 2572 
L 3209 3525 
Q 3341 3694 3370 3756 
Q 3400 3819 3400 3884 
Q 3400 3950 3363 4000 
Q 3316 4066 3244 4092 
Q 3172 4119 2947 4122 
L 2947 4238 
L 4450 4238 
L 4450 4122 
Q 4272 4113 4159 4066 
Q 3991 3994 3850 3872 
Q 3709 3750 3453 3422 
L 2613 2347 
z
" transform="scale(0.015625)"/>
      </defs>
      <use xlink:href="#TimesNewRomanPSMT-58"/>
     </g>
    </g>
   </g>
   <g id="line2d_19">
    <path d="M 69.218182 133.500519 
L 69.522698 132.215022 
L 71.958825 132.451174 
L 74.394952 132.920379 
L 76.374305 133.068491 
L 78.353659 132.989378 
L 80.333012 132.676999 
L 82.312365 132.127047 
L 84.291719 131.336944 
L 86.271072 130.306016 
L 88.402683 128.928126 
L 90.534294 127.27727 
L 92.818164 125.214584 
L 95.254291 122.69472 
L 97.842676 119.680523 
L 100.583319 116.147747 
L 103.780736 111.646158 
L 107.587185 105.872282 
L 113.068471 97.091804 
L 121.138142 84.191052 
L 125.096848 78.310078 
L 128.294265 73.940105 
L 131.187166 70.352418 
L 133.775551 67.482826 
L 136.211679 65.10779 
L 138.495548 63.191159 
L 140.627159 61.689504 
L 142.606512 60.554946 
L 144.585866 59.679553 
L 146.412961 59.107732 
L 148.240056 58.767274 
L 150.067152 58.661455 
L 151.894247 58.792406 
L 153.721342 59.161121 
L 155.548438 59.767481 
L 157.375533 60.610273 
L 159.202629 61.68722 
L 161.181982 63.11426 
L 163.313593 64.947536 
L 165.445204 67.079557 
L 167.729074 69.683047 
L 170.165201 72.806513 
L 172.753586 76.492275 
L 175.646487 81.021585 
L 178.843904 86.473675 
L 182.345837 92.897657 
L 186.609059 101.209867 
L 192.394861 113.024014 
L 203.661949 136.10943 
L 208.07743 144.594649 
L 211.73162 151.152321 
L 214.929037 156.445438 
L 217.821938 160.80637 
L 220.410323 164.312911 
L 222.84645 167.232503 
L 224.978062 169.456321 
L 226.957415 171.22395 
L 228.78451 172.585856 
L 230.611606 173.675229 
L 232.286443 174.423777 
L 233.961281 174.92399 
L 235.48386 175.156418 
L 237.00644 175.171531 
L 238.529019 174.964679 
L 240.051599 174.532047 
L 241.574178 173.870756 
L 243.096757 172.978955 
L 244.771595 171.730887 
L 246.446432 170.203717 
L 248.273528 168.222414 
L 250.100623 165.917871 
L 252.079976 163.066609 
L 254.211588 159.600062 
L 256.495457 155.456131 
L 259.083842 150.26532 
L 261.824485 144.260522 
L 265.021902 136.700245 
L 268.980608 126.718613 
L 275.223184 110.262349 
L 281.770276 93.192194 
L 285.728983 83.481157 
L 289.078658 75.837486 
L 291.971559 69.756762 
L 294.712202 64.505458 
L 297.148329 60.296018 
L 299.432198 56.771993 
L 301.563809 53.874034 
L 303.543162 51.53764 
L 305.370258 49.695662 
L 307.197353 48.165009 
L 308.872191 47.04184 
L 310.547028 46.191211 
L 312.069608 45.657333 
L 313.592187 45.353281 
L 315.114766 45.279974 
L 316.637346 45.437555 
L 318.159925 45.825452 
L 319.682505 46.442436 
L 321.205084 47.286705 
L 322.879922 48.475143 
L 324.554759 49.932102 
L 326.381855 51.82273 
L 328.361208 54.218481 
L 330.340561 56.96687 
L 332.472172 60.309213 
L 334.756042 64.314038 
L 337.192169 69.045529 
L 339.780554 74.559386 
L 342.673455 81.26394 
L 345.870872 89.260856 
L 349.525063 99.029066 
L 353.940543 111.513178 
L 359.878603 129.031081 
L 372.059239 165.127017 
L 373.581818 169.443779 
L 373.581818 169.443779 
" clip-path="url(#p7e43387c2f)" style="fill: none; stroke-dasharray: 5.55,2.4; stroke-dashoffset: 0; stroke: #ff0000; stroke-width: 1.5"/>
   </g>
   <g id="line2d_20">
    <path d="M 69.218182 133.500519 
L 69.522698 132.996542 
L 69.979472 132.48791 
L 70.436245 132.423444 
L 71.349793 132.553019 
L 74.699468 133.204792 
L 76.678821 133.321149 
L 78.658175 133.208743 
L 80.637528 132.861755 
L 82.616881 132.276088 
L 84.596234 131.449402 
L 86.575588 130.381295 
L 88.707199 128.963044 
L 90.83881 127.271895 
L 93.12268 125.166616 
L 95.558807 122.602612 
L 98.147192 119.543766 
L 101.040093 115.759215 
L 104.23751 111.195061 
L 108.043958 105.362603 
L 113.82976 96.036217 
L 120.985884 84.575624 
L 124.94459 78.66101 
L 128.142007 74.260282 
L 131.034908 70.642566 
L 133.623293 67.744681 
L 136.059421 65.342043 
L 138.34329 63.398874 
L 140.474901 61.872026 
L 142.454254 60.713833 
L 144.433608 59.814682 
L 146.260703 59.220916 
L 148.087798 58.858586 
L 149.914894 58.731051 
L 151.741989 58.840526 
L 153.569085 59.188085 
L 155.39618 59.773688 
L 157.223275 60.596202 
L 159.050371 61.653426 
L 161.029724 63.059814 
L 163.009077 64.732306 
L 165.140689 66.823043 
L 167.424558 69.384588 
L 169.860685 72.466291 
L 172.44907 76.111496 
L 175.189713 80.354221 
L 178.234872 85.481209 
L 181.736805 91.835461 
L 185.847769 99.786424 
L 191.329055 110.925519 
L 204.423239 137.746904 
L 208.686461 145.870134 
L 212.188394 152.093887 
L 215.385811 157.327557 
L 218.126454 161.409428 
L 220.714839 164.873577 
L 222.998708 167.580181 
L 225.13032 169.783831 
L 227.109673 171.530903 
L 228.936768 172.872307 
L 230.763864 173.939758 
L 232.438701 174.667019 
L 234.113539 175.144863 
L 235.636118 175.35608 
L 237.158698 175.349216 
L 238.681277 175.119692 
L 240.203856 174.66378 
L 241.726436 173.978695 
L 243.249015 173.062687 
L 244.923853 171.787648 
L 246.59869 170.2333 
L 248.425786 168.222307 
L 250.252881 165.888248 
L 252.232234 163.005468 
L 254.363846 159.505835 
L 256.647715 155.327834 
L 259.2361 150.100654 
L 262.129001 143.711315 
L 265.326418 136.08989 
L 269.285124 126.051335 
L 276.136732 107.935038 
L 282.074792 92.497561 
L 286.033499 82.823733 
L 289.383173 75.22543 
L 292.276074 69.192893 
L 295.016717 63.994153 
L 297.452845 59.836607 
L 299.736714 56.365308 
L 301.868325 53.519835 
L 303.847678 51.234751 
L 305.674774 49.442095 
L 307.501869 47.962396 
L 309.176707 46.887134 
L 310.851544 46.08533 
L 312.374123 45.596438 
L 313.896703 45.337762 
L 315.419282 45.310051 
L 316.941862 45.513291 
L 318.464441 45.946763 
L 319.987021 46.609109 
L 321.661858 47.599736 
L 323.336696 48.861737 
L 325.163791 50.543414 
L 326.990886 52.537669 
L 328.97024 55.043234 
L 331.101851 58.132353 
L 333.233462 61.613583 
L 335.517331 65.760837 
L 337.953459 70.635697 
L 340.694102 76.637528 
L 343.587003 83.511143 
L 346.936677 92.069981 
L 350.743126 102.434238 
L 355.463122 115.974556 
L 362.619246 137.280366 
L 371.297949 162.983268 
L 373.581818 169.486729 
L 373.581818 169.486729 
" clip-path="url(#p7e43387c2f)" style="fill: none; stroke-dasharray: 5.55,2.4; stroke-dashoffset: 0; stroke: #ff0000; stroke-width: 1.5"/>
   </g>
   <g id="line2d_21">
    <path d="M 69.218182 121.433817 
L 69.37044 121.371763 
L 69.827214 122.681866 
L 70.588503 124.003167 
L 71.349793 124.817982 
L 72.872373 126.037415 
L 75.3085 127.682626 
L 77.592369 128.972619 
L 79.72398 129.94205 
L 81.855591 130.669556 
L 83.834945 131.116376 
L 85.814298 131.332869 
L 87.641393 131.32104 
L 89.468489 131.100559 
L 91.295584 130.667555 
L 93.12268 130.019712 
L 95.102033 129.074767 
L 97.081386 127.878605 
L 99.212997 126.314414 
L 101.344609 124.47265 
L 103.628478 122.205534 
L 106.064605 119.474312 
L 108.805248 116.051882 
L 111.850407 111.873431 
L 115.35234 106.677151 
L 119.920078 99.476909 
L 131.796198 80.554115 
L 135.450389 75.244125 
L 138.647806 70.981911 
L 141.388449 67.675928 
L 143.976834 64.890347 
L 146.412961 62.598103 
L 148.69683 60.761775 
L 150.828441 59.336856 
L 152.807795 58.274589 
L 154.787148 57.471979 
L 156.614243 56.967355 
L 158.441339 56.693738 
L 160.268434 56.654098 
L 162.09553 56.850321 
L 163.922625 57.283221 
L 165.74972 57.952546 
L 167.576816 58.856979 
L 169.556169 60.099288 
L 171.535522 61.610193 
L 173.667134 63.530743 
L 175.798745 65.746216 
L 178.082614 68.433938 
L 180.518741 71.640163 
L 183.259384 75.636903 
L 186.152285 80.263044 
L 189.349702 85.805397 
L 193.003893 92.605074 
L 197.267115 101.029311 
L 202.900659 112.696978 
L 216.603875 141.293197 
L 220.714839 149.243906 
L 224.216772 155.536803 
L 227.261931 160.548035 
L 229.850316 164.404696 
L 232.286443 167.646864 
L 234.418054 170.140632 
L 236.397408 172.14337 
L 238.224503 173.704991 
L 240.051599 174.974018 
L 241.726436 175.86704 
L 243.249015 176.445084 
L 244.771595 176.792896 
L 246.294174 176.904137 
L 247.816754 176.773558 
L 249.339333 176.397125 
L 250.861913 175.772129 
L 252.384492 174.897268 
L 253.907072 173.772723 
L 255.581909 172.249412 
L 257.256747 170.430489 
L 259.083842 168.11695 
L 261.063195 165.236158 
L 263.194806 161.719333 
L 265.478676 157.506003 
L 267.914803 152.54921 
L 270.655446 146.471089 
L 273.852863 138.823553 
L 277.811569 128.744029 
L 284.510919 110.945672 
L 290.905753 94.185597 
L 295.016717 84.03155 
L 298.366392 76.316458 
L 301.411551 69.842982 
L 304.152194 64.525729 
L 306.588321 60.25014 
L 308.872191 56.660245 
L 311.003802 53.699076 
L 312.983155 51.303178 
L 314.962509 49.261347 
L 316.789604 47.700178 
L 318.464441 46.547944 
L 320.139279 45.666494 
L 321.661858 45.102549 
L 323.184438 44.766133 
L 324.707017 44.658027 
L 326.229597 44.778469 
L 327.752176 45.127216 
L 329.274756 45.703596 
L 330.797335 46.506533 
L 332.472172 47.649661 
L 334.14701 49.062565 
L 335.974105 50.90774 
L 337.801201 53.06474 
L 339.780554 55.745612 
L 341.912165 59.021142 
L 344.196034 62.959779 
L 346.632162 67.624201 
L 349.220547 73.067546 
L 352.113448 79.691772 
L 355.310865 87.59992 
L 358.812797 96.863518 
L 362.923762 108.387213 
L 367.948274 123.162187 
L 373.581818 140.211058 
L 373.581818 140.211058 
" clip-path="url(#p7e43387c2f)" style="fill: none; stroke-dasharray: 5.55,2.4; stroke-dashoffset: 0; stroke: #ff0000; stroke-width: 1.5"/>
   </g>
   <g id="line2d_22">
    <path d="M 69.218182 121.433817 
L 69.37044 122.814985 
L 69.522698 123.03281 
L 69.674956 122.87879 
L 69.979472 123.276091 
L 70.740761 124.225642 
L 71.958825 125.2938 
L 74.242694 126.942171 
L 76.678821 128.431587 
L 78.96269 129.567268 
L 81.094302 130.382535 
L 83.073655 130.915157 
L 85.053008 131.2211 
L 87.032362 131.291444 
L 88.859457 131.140917 
L 90.686552 130.779054 
L 92.513648 130.203015 
L 94.493001 129.335948 
L 96.472354 128.217012 
L 98.451708 126.849649 
L 100.583319 125.106368 
L 102.867188 122.939553 
L 105.303315 120.307695 
L 107.8917 117.179437 
L 110.784601 113.326861 
L 114.134276 108.477902 
L 118.245241 102.113396 
L 126.923944 88.115097 
L 131.796198 80.524607 
L 135.450389 75.217722 
L 138.647806 70.957876 
L 141.388449 67.653635 
L 143.976834 64.869443 
L 146.412961 62.578276 
L 148.69683 60.742756 
L 150.828441 59.318418 
L 152.807795 58.256547 
L 154.787148 57.454196 
L 156.614243 56.949695 
L 158.441339 56.676094 
L 160.268434 56.636366 
L 162.09553 56.832404 
L 163.922625 57.265024 
L 165.74972 57.933983 
L 167.576816 58.837969 
L 169.556169 60.079711 
L 171.535522 61.589971 
L 173.667134 63.509755 
L 175.798745 65.724398 
L 178.082614 68.411178 
L 180.518741 71.616357 
L 183.259384 75.611897 
L 186.152285 80.236778 
L 189.349702 85.777791 
L 193.003893 92.576069 
L 197.267115 100.998953 
L 202.900659 112.665481 
L 216.603875 141.262774 
L 220.714839 149.21474 
L 224.216772 155.508883 
L 227.261931 160.521236 
L 229.850316 164.378814 
L 232.286443 167.621769 
L 234.418054 170.116134 
L 236.397408 172.119331 
L 238.224503 173.681281 
L 240.051599 174.950538 
L 241.726436 175.84368 
L 243.249015 176.421756 
L 244.771595 176.76953 
L 246.294174 176.880666 
L 247.816754 176.749921 
L 249.339333 176.373271 
L 250.861913 175.748016 
L 252.384492 174.872867 
L 253.907072 173.748019 
L 255.581909 172.224376 
L 257.256747 170.405144 
L 259.083842 168.091319 
L 261.063195 165.210308 
L 263.194806 161.693388 
L 265.478676 157.480156 
L 267.914803 152.523724 
L 270.655446 146.446342 
L 273.852863 138.800096 
L 277.811569 128.722694 
L 284.510919 110.92866 
L 290.905753 94.172761 
L 295.016717 84.021129 
L 298.366392 76.307762 
L 301.411551 69.835631 
L 304.152194 64.51939 
L 306.588321 60.24454 
L 308.872191 56.655206 
L 311.003802 53.694451 
L 312.983155 51.298851 
L 314.962509 49.25724 
L 316.789604 47.696213 
L 318.464441 46.54406 
L 320.139279 45.662647 
L 321.661858 45.0987 
L 323.184438 44.762247 
L 324.707017 44.654072 
L 326.229597 44.774411 
L 327.752176 45.123024 
L 329.274756 45.699239 
L 330.797335 46.501982 
L 332.472172 47.644867 
L 334.14701 49.0575 
L 335.974105 50.902357 
L 337.801201 53.059022 
L 339.780554 55.739525 
L 341.912165 59.01466 
L 344.196034 62.952893 
L 346.632162 67.616914 
L 349.220547 73.059876 
L 352.113448 79.68373 
L 355.310865 87.591543 
L 358.812797 96.854882 
L 362.923762 108.378463 
L 367.948274 123.153658 
L 373.581818 140.203348 
L 373.581818 140.203348 
" clip-path="url(#p7e43387c2f)" style="fill: none; stroke-dasharray: 5.55,2.4; stroke-dashoffset: 0; stroke: #ff0000; stroke-width: 1.5"/>
   </g>
   <g id="line2d_23">
    <path d="M 69.218182 121.433817 
L 69.37044 117.296378 
L 70.283987 122.416129 
L 70.740761 123.32228 
L 71.502051 124.228355 
L 72.720115 125.242076 
L 75.003984 126.805237 
L 77.440111 128.198147 
L 79.72398 129.238938 
L 81.855591 129.962468 
L 83.834945 130.407757 
L 85.814298 130.624915 
L 87.793651 130.605691 
L 89.620747 130.372424 
L 91.447842 129.928395 
L 93.427195 129.207031 
L 95.406549 128.235228 
L 97.385902 127.014914 
L 99.517513 125.428065 
L 101.649125 123.567416 
L 103.932994 121.284541 
L 106.369121 118.541853 
L 109.109764 115.113299 
L 112.154923 110.936482 
L 115.809114 105.519986 
L 120.681368 97.852984 
L 131.339424 80.957325 
L 135.145873 75.412596 
L 138.34329 71.133804 
L 141.236191 67.630542 
L 143.824576 64.837183 
L 146.260703 62.534066 
L 148.544572 60.684675 
L 150.676184 59.245279 
L 152.655537 58.167771 
L 154.63489 57.348347 
L 156.461986 56.826937 
L 158.289081 56.535436 
L 160.116176 56.476924 
L 161.943272 56.653392 
L 163.770367 57.065752 
L 165.597462 57.713851 
L 167.424558 58.596463 
L 169.403911 59.814568 
L 171.383264 61.300792 
L 173.514876 63.194355 
L 175.646487 65.382548 
L 177.930356 68.040861 
L 180.366483 71.215673 
L 182.954868 74.946889 
L 185.847769 79.515363 
L 189.045186 84.99777 
L 192.699377 91.73435 
L 196.962599 100.092944 
L 202.443886 111.369762 
L 217.060649 141.707039 
L 221.171613 149.566992 
L 224.521288 155.510341 
L 227.414189 160.220692 
L 230.002574 164.041686 
L 232.438701 167.250212 
L 234.570312 169.714729 
L 236.549666 171.690662 
L 238.376761 173.228006 
L 240.203856 174.47336 
L 241.878694 175.345345 
L 243.401273 175.904926 
L 244.923853 176.235005 
L 246.446432 176.329338 
L 247.969012 176.182774 
L 249.491591 175.791376 
L 251.014171 175.152525 
L 252.53675 174.265006 
L 254.05933 173.129081 
L 255.734167 171.594812 
L 257.409005 169.766644 
L 259.2361 167.445045 
L 261.215453 164.557968 
L 263.347064 161.037253 
L 265.630934 156.82305 
L 268.219319 151.54484 
L 271.11222 145.094777 
L 274.461895 137.033837 
L 278.572859 126.520516 
L 294.255428 85.753722 
L 297.75736 77.58592 
L 300.802519 71.014341 
L 303.543162 65.593464 
L 306.131548 60.955398 
L 308.415417 57.287169 
L 310.547028 54.247521 
L 312.678639 51.598842 
L 314.657993 49.504234 
L 316.485088 47.892594 
L 318.159925 46.692891 
L 319.834763 45.763055 
L 321.357342 45.154501 
L 322.879922 44.773029 
L 324.402501 44.619543 
L 325.925081 44.694389 
L 327.44766 44.997423 
L 328.97024 45.528063 
L 330.492819 46.28532 
L 332.167657 47.378377 
L 333.842494 48.741519 
L 335.669589 50.532928 
L 337.496685 52.636908 
L 339.476038 55.26145 
L 341.607649 58.47796 
L 343.891518 62.355698 
L 346.327646 66.958337 
L 348.916031 72.340157 
L 351.808932 78.901156 
L 355.006349 86.746644 
L 358.508281 95.950599 
L 362.619246 107.416565 
L 367.643758 122.139955 
L 373.581818 140.083727 
L 373.581818 140.083727 
" clip-path="url(#p7e43387c2f)" style="fill: none; stroke-dasharray: 5.55,2.4; stroke-dashoffset: 0; stroke: #ff0000; stroke-width: 1.5"/>
   </g>
   <g id="line2d_24">
    <path d="M 69.218182 114.736806 
L 69.37044 110.452266 
L 69.522698 111.08671 
L 70.13173 116.044215 
L 70.740761 118.263496 
L 71.349793 119.480684 
L 72.263341 120.675483 
L 74.090436 122.560251 
L 76.983337 125.216638 
L 79.72398 127.428688 
L 82.160107 129.113604 
L 84.443977 130.426165 
L 86.575588 131.397968 
L 88.554941 132.066487 
L 90.534294 132.497563 
L 92.36139 132.675831 
L 94.188485 132.636413 
L 96.015581 132.374291 
L 97.842676 131.886211 
L 99.669771 131.170821 
L 101.496867 130.228788 
L 103.47622 128.955748 
L 105.607831 127.298305 
L 107.739442 125.355229 
L 110.023312 122.973983 
L 112.459439 120.118558 
L 115.200082 116.558079 
L 118.245241 112.233535 
L 121.899432 106.644024 
L 126.923944 98.508613 
L 136.972968 82.148644 
L 140.779417 76.415836 
L 143.976834 71.972357 
L 146.869735 68.316249 
L 149.45812 65.383961 
L 151.894247 62.948784 
L 154.178116 60.974787 
L 156.309728 59.418634 
L 158.289081 58.23253 
L 160.268434 57.304604 
L 162.09553 56.683431 
L 163.922625 56.292918 
L 165.74972 56.136597 
L 167.576816 56.216975 
L 169.403911 56.535528 
L 171.231006 57.09267 
L 173.058102 57.887718 
L 174.885197 58.918848 
L 176.86455 60.298807 
L 178.843904 61.946876 
L 180.975515 64.013418 
L 183.259384 66.551076 
L 185.695511 69.609137 
L 188.283896 73.231233 
L 191.02454 77.453073 
L 194.069698 82.565841 
L 197.419373 88.641245 
L 201.225822 96.030232 
L 205.641302 105.112048 
L 211.427104 117.565313 
L 223.912256 144.608598 
L 228.023221 152.883071 
L 231.372896 159.137816 
L 234.265797 164.080953 
L 236.854182 168.069532 
L 239.138051 171.196834 
L 241.269662 173.745303 
L 243.249015 175.762054 
L 245.076111 177.302714 
L 246.750948 178.428492 
L 248.273528 179.203311 
L 249.796107 179.732903 
L 251.318687 180.010381 
L 252.689008 180.039984 
L 254.05933 179.85794 
L 255.429651 179.46231 
L 256.799973 178.852223 
L 258.322552 177.923115 
L 259.845132 176.731381 
L 261.519969 175.121348 
L 263.194806 173.204647 
L 265.021902 170.774704 
L 267.001255 167.759832 
L 269.132866 164.09354 
L 271.416736 159.719123 
L 274.005121 154.2603 
L 276.898022 147.617332 
L 280.247697 139.353884 
L 284.663177 127.818804 
L 299.27994 89.123769 
L 302.934131 80.314226 
L 306.131548 73.156306 
L 309.024449 67.21169 
L 311.612834 62.380779 
L 314.048961 58.297914 
L 316.33283 54.90938 
L 318.464441 52.151455 
L 320.443795 49.954525 
L 322.27089 48.2467 
L 324.097985 46.852633 
L 325.772823 45.854542 
L 327.44766 45.127077 
L 328.97024 44.702456 
L 330.492819 44.504577 
L 332.015399 44.534352 
L 333.537978 44.792363 
L 335.060558 45.278842 
L 336.583137 45.993613 
L 338.257974 47.042727 
L 339.932812 48.365533 
L 341.759907 50.117462 
L 343.587003 52.186575 
L 345.566356 54.77779 
L 347.697967 57.962022 
L 349.981836 61.807092 
L 352.417964 66.374777 
L 355.006349 71.718239 
L 357.89925 78.236827 
L 360.944409 85.658549 
L 364.294083 94.406223 
L 368.100532 104.97867 
L 372.66827 118.364059 
L 373.581818 121.11101 
L 373.581818 121.11101 
" clip-path="url(#p7e43387c2f)" style="fill: none; stroke-dasharray: 5.55,2.4; stroke-dashoffset: 0; stroke: #ff0000; stroke-width: 1.5"/>
   </g>
   <g id="line2d_25">
    <path d="M 69.218182 114.736806 
L 69.37044 119.367804 
L 69.522698 119.781603 
L 69.674956 118.77289 
L 69.827214 119.131306 
L 69.979472 118.88926 
L 71.045277 120.498164 
L 72.415599 122.046882 
L 75.156242 124.760001 
L 78.049143 127.318126 
L 80.637528 129.308975 
L 82.921397 130.80217 
L 85.053008 131.951284 
L 87.18462 132.845982 
L 89.163973 133.434714 
L 90.991068 133.76103 
L 92.818164 133.870988 
L 94.645259 133.758422 
L 96.472354 133.418854 
L 98.29945 132.849658 
L 100.126545 132.050199 
L 102.105898 130.926008 
L 104.085252 129.538015 
L 106.216863 127.757097 
L 108.500732 125.534641 
L 110.936859 122.829088 
L 113.525244 119.609969 
L 116.418145 115.644822 
L 119.76782 110.655884 
L 123.878785 104.110572 
L 131.796198 90.962426 
L 137.125226 82.343352 
L 140.931675 76.589213 
L 144.129092 72.138027 
L 147.021993 68.482393 
L 149.610378 65.556077 
L 152.046505 63.130943 
L 154.330374 61.169964 
L 156.461986 59.628877 
L 158.441339 58.459107 
L 160.420692 57.549623 
L 162.247788 56.947222 
L 164.074883 56.577059 
L 165.901978 56.442571 
L 167.729074 56.546181 
L 169.556169 56.889284 
L 171.383264 57.47222 
L 173.21036 58.294234 
L 175.037455 59.353435 
L 177.016808 60.764975 
L 178.996162 62.445766 
L 181.127773 64.548725 
L 183.411642 67.126641 
L 185.847769 70.228909 
L 188.436154 73.899202 
L 191.176797 78.173196 
L 194.221956 83.344878 
L 197.571631 89.485692 
L 201.37808 96.948846 
L 205.79356 106.114836 
L 211.73162 119.006825 
L 223.60774 144.921867 
L 227.718705 153.282019 
L 231.06838 159.610417 
L 233.961281 164.619124 
L 236.549666 168.667323 
L 238.833535 171.847537 
L 240.965146 174.44528 
L 242.9445 176.507365 
L 244.771595 178.089235 
L 246.446432 179.252019 
L 247.969012 180.059654 
L 249.491591 180.621105 
L 251.014171 180.929318 
L 252.384492 180.985485 
L 253.754814 180.828842 
L 255.125135 180.457343 
L 256.495457 179.870013 
L 258.018036 178.964468 
L 259.540616 177.794379 
L 261.215453 176.205834 
L 262.890291 174.308101 
L 264.717386 171.895903 
L 266.696739 168.89673 
L 268.828351 165.243218 
L 271.11222 160.877746 
L 273.700605 155.423153 
L 276.593506 148.777556 
L 279.943181 140.501529 
L 284.206403 129.342184 
L 299.584456 88.51512 
L 303.238647 79.735112 
L 306.436063 72.617551 
L 309.328964 66.72016 
L 311.91735 61.939297 
L 314.353477 57.909493 
L 316.637346 54.575262 
L 318.768957 51.871414 
L 320.748311 49.727177 
L 322.575406 48.06977 
L 324.250243 46.827247 
L 325.925081 45.853188 
L 327.599918 45.150389 
L 329.122498 44.748675 
L 330.645077 44.574105 
L 332.167657 44.627539 
L 333.690236 44.909513 
L 335.212815 45.420208 
L 336.735395 46.159403 
L 338.410232 47.235566 
L 340.08507 48.58555 
L 341.912165 50.3672 
L 343.739261 52.466026 
L 345.718614 55.089319 
L 347.850225 58.307838 
L 350.134094 62.189181 
L 352.570221 66.794809 
L 355.158607 72.177455 
L 358.051508 78.738079 
L 361.096667 86.201601 
L 364.598599 95.404483 
L 368.405048 106.044541 
L 372.972786 119.495475 
L 373.581818 121.331978 
L 373.581818 121.331978 
" clip-path="url(#p7e43387c2f)" style="fill: none; stroke-dasharray: 5.55,2.4; stroke-dashoffset: 0; stroke: #ff0000; stroke-width: 1.5"/>
   </g>
   <g id="line2d_26">
    <path d="M 69.218182 114.736806 
L 69.37044 117.676474 
L 69.522698 117.83007 
L 69.674956 117.440996 
L 69.827214 118.048734 
L 69.979472 118.140959 
L 70.436245 119.183719 
L 71.197535 120.41655 
L 72.415599 121.8181 
L 75.003984 124.390779 
L 77.896885 126.962598 
L 80.48527 128.968847 
L 82.921397 130.569518 
L 85.053008 131.718435 
L 87.18462 132.613738 
L 89.163973 133.203779 
L 90.991068 133.531954 
L 92.818164 133.644403 
L 94.645259 133.534955 
L 96.472354 133.199118 
L 98.29945 132.634247 
L 100.126545 131.839671 
L 102.105898 130.721355 
L 104.085252 129.33978 
L 106.216863 127.566298 
L 108.500732 125.35229 
L 110.936859 122.656147 
L 113.525244 119.447283 
L 116.418145 115.493664 
L 119.76782 110.517825 
L 123.878785 103.987737 
L 131.64394 91.116564 
L 137.125226 82.258881 
L 140.931675 76.512303 
L 144.129092 72.066309 
L 147.021993 68.414509 
L 149.610378 65.490963 
L 152.046505 63.067896 
L 154.330374 61.108399 
L 156.461986 59.568312 
L 158.441339 58.399149 
L 160.420692 57.489969 
L 162.247788 56.887587 
L 164.074883 56.517194 
L 165.901978 56.382231 
L 167.729074 56.485121 
L 169.556169 56.827259 
L 171.383264 57.408985 
L 173.21036 58.229542 
L 175.037455 59.287037 
L 177.016808 60.696441 
L 178.996162 62.374793 
L 181.127773 64.474783 
L 183.411642 67.04912 
L 185.847769 70.147117 
L 188.436154 73.812378 
L 191.176797 78.080518 
L 194.221956 83.245132 
L 197.571631 89.377604 
L 201.37808 96.830768 
L 205.79356 105.984834 
L 211.579362 118.525944 
L 223.759998 145.067818 
L 227.870963 153.40092 
L 231.220638 159.702342 
L 234.113539 164.684099 
L 236.701924 168.705312 
L 238.985793 171.859513 
L 241.117404 174.431206 
L 243.096757 176.467686 
L 244.923853 178.024839 
L 246.59869 179.164181 
L 248.12127 179.949972 
L 249.643849 180.489188 
L 251.014171 180.757908 
L 252.384492 180.817195 
L 253.754814 180.663954 
L 255.125135 180.296128 
L 256.495457 179.712728 
L 258.018036 178.811834 
L 259.540616 177.646671 
L 261.215453 176.063829 
L 262.890291 174.172056 
L 264.717386 171.766598 
L 266.696739 168.774929 
L 268.828351 165.129632 
L 271.11222 160.772981 
L 273.700605 155.328232 
L 276.593506 148.693215 
L 279.943181 140.428613 
L 284.206403 129.282212 
L 299.584456 88.486221 
L 303.238647 79.710417 
L 306.436063 72.595742 
L 309.328964 66.70042 
L 311.91735 61.921036 
L 314.353477 57.892347 
L 316.637346 54.558944 
L 318.768957 51.855698 
L 320.748311 49.711879 
L 322.575406 48.054746 
L 324.250243 46.812382 
L 325.925081 45.838397 
L 327.599918 45.135592 
L 329.122498 44.733803 
L 330.645077 44.559099 
L 332.167657 44.612342 
L 333.690236 44.89407 
L 335.212815 45.404467 
L 336.735395 46.143314 
L 338.410232 47.219035 
L 340.08507 48.568514 
L 341.912165 50.349535 
L 343.739261 52.447642 
L 345.718614 55.07004 
L 347.850225 58.287448 
L 350.134094 62.167417 
L 352.570221 66.771369 
L 355.158607 72.152022 
L 358.051508 78.710226 
L 361.096667 86.171088 
L 364.598599 95.370912 
L 368.405048 106.007785 
L 372.972786 119.455175 
L 373.581818 121.29123 
L 373.581818 121.29123 
" clip-path="url(#p7e43387c2f)" style="fill: none; stroke-dasharray: 5.55,2.4; stroke-dashoffset: 0; stroke: #ff0000; stroke-width: 1.5"/>
   </g>
   <g id="line2d_27">
    <path d="M 69.218182 106.712477 
L 69.37044 118.0576 
L 69.674956 111.490892 
L 69.827214 111.970002 
L 69.979472 111.553962 
L 70.283987 112.952358 
L 71.197535 115.466207 
L 72.111083 117.010008 
L 74.242694 119.999628 
L 78.505917 125.602201 
L 82.007849 129.851058 
L 84.90075 133.032489 
L 87.489135 135.568921 
L 89.925263 137.6454 
L 92.056874 139.1856 
L 94.036227 140.363615 
L 96.015581 141.281938 
L 97.842676 141.886728 
L 99.669771 142.248664 
L 101.344609 142.360774 
L 103.019446 142.258567 
L 104.694284 141.939648 
L 106.369121 141.40334 
L 108.196216 140.571652 
L 110.023312 139.48632 
L 112.002665 138.031524 
L 113.982018 136.297195 
L 116.11363 134.132686 
L 118.397499 131.494939 
L 120.985884 128.14299 
L 123.726527 124.224296 
L 126.923944 119.250914 
L 130.730392 112.899354 
L 136.211679 103.264179 
L 145.04264 87.72558 
L 149.001346 81.220349 
L 152.351021 76.122841 
L 155.243922 72.097245 
L 157.984565 68.657445 
L 160.420692 65.939257 
L 162.704561 63.70509 
L 164.836173 61.911359 
L 166.967784 60.413238 
L 168.947137 59.297538 
L 170.774233 58.510675 
L 172.601328 57.963021 
L 174.428423 57.659291 
L 176.103261 57.598248 
L 177.778098 57.747089 
L 179.452936 58.106781 
L 181.280031 58.739645 
L 183.107126 59.62216 
L 184.934222 60.751694 
L 186.913575 62.249556 
L 188.892928 64.026245 
L 191.02454 66.242427 
L 193.308409 68.952967 
L 195.744536 72.210767 
L 198.332921 76.065502 
L 201.073564 80.562358 
L 203.966465 85.740529 
L 207.163882 91.936633 
L 210.665815 99.232721 
L 214.624521 108.029047 
L 219.344518 119.105346 
L 226.805157 137.294458 
L 233.352249 153.034326 
L 237.310955 161.974211 
L 240.508372 168.648945 
L 243.249015 173.857564 
L 245.685143 178.008659 
L 247.816754 181.218239 
L 249.796107 183.808345 
L 251.623203 185.839657 
L 253.29804 187.380574 
L 254.820619 188.503169 
L 256.343199 189.352081 
L 257.71352 189.87654 
L 259.083842 190.17021 
L 260.454163 190.230587 
L 261.824485 190.056329 
L 263.194806 189.64725 
L 264.565128 189.004304 
L 265.93545 188.129563 
L 267.458029 186.889666 
L 269.132866 185.206904 
L 270.807704 183.199905 
L 272.634799 180.655199 
L 274.614153 177.501546 
L 276.745764 173.674762 
L 279.029633 169.122343 
L 281.618018 163.461823 
L 284.510919 156.600249 
L 288.012852 147.695875 
L 292.428332 135.820523 
L 301.716067 109.977771 
L 307.197353 95.148995 
L 311.15606 85.062957 
L 314.505735 77.124783 
L 317.398636 70.810267 
L 320.139279 65.357148 
L 322.575406 60.982988 
L 324.859275 57.313412 
L 326.990886 54.283011 
L 328.97024 51.822782 
L 330.949593 49.713618 
L 332.776688 48.086544 
L 334.451526 46.871097 
L 336.126363 45.92513 
L 337.648943 45.303169 
L 339.171522 44.91135 
L 340.694102 44.752504 
L 342.216681 44.82878 
L 343.739261 45.141471 
L 345.26184 45.690869 
L 346.784419 46.476157 
L 348.459257 47.610044 
L 350.134094 49.022763 
L 351.96119 50.8752 
L 353.788285 53.043631 
L 355.767638 55.737392 
L 357.89925 59.023518 
L 360.183119 62.967895 
L 362.619246 67.6347 
L 365.207631 73.085774 
L 367.948274 79.378933 
L 370.993433 86.956657 
L 373.581818 93.840632 
L 373.581818 93.840632 
" clip-path="url(#p7e43387c2f)" style="fill: none; stroke-dasharray: 5.55,2.4; stroke-dashoffset: 0; stroke: #ff0000; stroke-width: 1.5"/>
   </g>
   <g id="line2d_28">
    <path d="M 69.218182 106.712477 
L 69.37044 115.731994 
L 69.674956 109.737464 
L 69.827214 110.333957 
L 69.979472 110.35814 
L 70.283987 112.92339 
L 70.893019 115.663683 
L 71.502051 117.240639 
L 72.415599 118.831985 
L 74.394952 121.641293 
L 78.505917 127.071448 
L 81.855591 131.156464 
L 84.748492 134.355083 
L 87.336878 136.900447 
L 89.620747 138.859205 
L 91.752358 140.416345 
L 93.731711 141.607373 
L 95.711065 142.535976 
L 97.53816 143.147762 
L 99.365255 143.514275 
L 101.040093 143.628462 
L 102.71493 143.526332 
L 104.389768 143.205544 
L 106.064605 142.665492 
L 107.8917 141.827684 
L 109.718796 140.734239 
L 111.698149 139.268576 
L 113.677502 137.521412 
L 115.809114 135.341115 
L 118.092983 132.684467 
L 120.681368 129.308964 
L 123.422011 125.363253 
L 126.619428 120.356102 
L 130.425877 113.961653 
L 135.754905 104.53337 
L 145.04264 88.080409 
L 149.001346 81.549283 
L 152.351021 76.436816 
L 155.243922 72.403201 
L 157.984565 68.959915 
L 160.420692 66.241975 
L 162.704561 64.010909 
L 164.836173 62.222586 
L 166.815526 60.8286 
L 168.794879 59.701454 
L 170.621975 58.905331 
L 172.44907 58.349739 
L 174.276165 58.039468 
L 175.951003 57.973722 
L 177.62584 58.119165 
L 179.300678 58.476835 
L 180.975515 59.046826 
L 182.80261 59.909732 
L 184.629706 61.021829 
L 186.609059 62.503458 
L 188.588412 64.266862 
L 190.720024 66.472182 
L 193.003893 69.175148 
L 195.44002 72.429499 
L 198.028405 76.285674 
L 200.769048 80.78949 
L 203.661949 85.980622 
L 206.859366 92.197122 
L 210.361299 99.522026 
L 214.167748 108.008618 
L 218.735486 118.756233 
L 225.587094 135.527209 
L 232.895475 153.257061 
L 236.854182 162.280646 
L 240.051599 169.03148 
L 242.792242 174.311198 
L 245.228369 178.529683 
L 247.35998 181.801049 
L 249.339333 184.450443 
L 251.166429 186.537699 
L 252.841266 188.130545 
L 254.363846 189.300579 
L 255.886425 190.196861 
L 257.256747 190.763667 
L 258.627068 191.099212 
L 259.99739 191.200803 
L 261.367711 191.066928 
L 262.738033 190.697242 
L 264.108354 190.092557 
L 265.478676 189.254819 
L 267.001255 188.054421 
L 268.523835 186.575864 
L 270.198672 184.637012 
L 272.025767 182.162339 
L 274.005121 179.078958 
L 276.136732 175.32071 
L 278.420601 170.8328 
L 281.008986 165.233458 
L 283.901887 158.42461 
L 287.251562 149.958864 
L 291.514785 138.541112 
L 298.51865 119.026066 
L 305.674774 99.293974 
L 309.937996 88.183244 
L 313.439929 79.661127 
L 316.485088 72.816088 
L 319.225731 67.179512 
L 321.814116 62.361399 
L 324.250243 58.309047 
L 326.381855 55.16767 
L 328.513466 52.419234 
L 330.492819 50.230411 
L 332.319915 48.529065 
L 334.14701 47.14147 
L 335.821847 46.150989 
L 337.344427 45.488489 
L 338.867006 45.056078 
L 340.389586 44.856634 
L 341.912165 44.892386 
L 343.434745 45.164753 
L 344.957324 45.674182 
L 346.479904 46.420045 
L 348.002483 47.400576 
L 349.67732 48.746715 
L 351.504416 50.528767 
L 353.331511 52.629526 
L 355.310865 55.25332 
L 357.442476 58.468122 
L 359.726345 62.340652 
L 362.162472 66.935792 
L 364.750857 72.316063 
L 367.4915 78.540207 
L 370.384401 85.659518 
L 373.581818 94.127224 
L 373.581818 94.127224 
" clip-path="url(#p7e43387c2f)" style="fill: none; stroke-dasharray: 5.55,2.4; stroke-dashoffset: 0; stroke: #ff0000; stroke-width: 1.5"/>
   </g>
   <g id="line2d_29">
    <path d="M 69.218182 242.116364 
L 69.37044 158.253372 
L 69.522698 140.124601 
L 69.827214 133.555577 
L 69.979472 132.988758 
L 70.13173 132.889237 
L 70.283987 132.542434 
L 70.740761 132.309452 
L 71.197535 132.163492 
L 71.958825 132.185333 
L 76.374305 132.72805 
L 78.353659 132.645153 
L 80.333012 132.33016 
L 82.312365 131.778804 
L 84.291719 130.988577 
L 86.271072 129.958861 
L 88.402683 128.583808 
L 90.534294 126.937391 
L 92.818164 124.88121 
L 95.254291 122.370202 
L 97.842676 119.367417 
L 100.583319 115.8487 
L 103.780736 111.365596 
L 107.587185 105.615746 
L 113.068471 96.871397 
L 121.138142 84.020935 
L 125.096848 78.161397 
L 128.294265 73.80672 
L 131.187166 70.231239 
L 133.775551 67.371252 
L 136.211679 65.004157 
L 138.495548 63.094044 
L 140.627159 61.597704 
L 142.606512 60.467457 
L 144.585866 59.595804 
L 146.412961 59.026958 
L 148.240056 58.689039 
L 150.067152 58.585347 
L 151.894247 58.71803 
L 153.721342 59.0881 
L 155.548438 59.695451 
L 157.375533 60.538882 
L 159.202629 61.616121 
L 161.181982 63.043092 
L 163.313593 64.875844 
L 165.445204 67.00687 
L 167.729074 69.608754 
L 170.165201 72.729868 
L 172.753586 76.412379 
L 175.646487 80.937094 
L 178.843904 86.382878 
L 182.345837 92.798442 
L 186.609059 101.098253 
L 192.547119 113.206571 
L 203.509691 135.624967 
L 207.925172 144.104279 
L 211.579362 150.661526 
L 214.776779 155.958116 
L 217.66968 160.325722 
L 220.258065 163.841409 
L 222.694193 166.772616 
L 224.825804 169.009168 
L 226.805157 170.790895 
L 228.78451 172.270552 
L 230.611606 173.353856 
L 232.286443 174.097761 
L 233.961281 174.594292 
L 235.48386 174.824269 
L 237.00644 174.837835 
L 238.529019 174.63038 
L 240.051599 174.198127 
L 241.574178 173.538223 
L 243.096757 172.648832 
L 244.771595 171.404604 
L 246.446432 169.882513 
L 248.273528 167.90813 
L 250.100623 165.611892 
L 252.079976 162.771086 
L 254.211588 159.317339 
L 256.495457 155.188652 
L 259.083842 150.016637 
L 261.824485 144.032953 
L 265.021902 136.498042 
L 268.980608 126.547474 
L 275.223184 110.135813 
L 281.770276 93.103267 
L 285.728983 83.410031 
L 289.078658 75.77871 
L 291.971559 69.706831 
L 294.712202 64.462504 
L 297.148329 60.258247 
L 299.432198 56.738318 
L 301.563809 53.843603 
L 303.543162 51.509787 
L 305.370258 49.669864 
L 307.197353 48.140991 
L 308.872191 47.019231 
L 310.547028 46.169818 
L 312.069608 45.636889 
L 313.592187 45.333645 
L 315.114766 45.261012 
L 316.637346 45.419145 
L 318.159925 45.807478 
L 319.682505 46.424797 
L 321.205084 47.269309 
L 322.879922 48.457923 
L 324.554759 49.914975 
L 326.381855 51.805622 
L 328.361208 54.201304 
L 330.340561 56.949528 
L 332.472172 60.291567 
L 334.756042 64.295885 
L 337.192169 69.026572 
L 339.780554 74.539212 
L 342.673455 81.241908 
L 345.870872 89.236146 
L 349.525063 99.000575 
L 353.940543 111.479304 
L 359.878603 128.988829 
L 372.059239 165.063033 
L 373.581818 169.376697 
L 373.581818 169.376697 
" clip-path="url(#p7e43387c2f)" style="fill: none; stroke-dasharray: 5.55,2.4; stroke-dashoffset: 0; stroke: #0000ff; stroke-width: 1.5"/>
   </g>
   <g id="line2d_30">
    <path d="M 69.218182 242.116364 
L 69.37044 151.272545 
L 69.674956 134.779608 
L 69.827214 132.759864 
L 69.979472 132.487474 
L 70.13173 132.451448 
L 70.283987 132.267376 
L 71.502051 132.556444 
L 74.242694 133.12358 
L 76.222047 133.291867 
L 78.201401 133.232861 
L 80.180754 132.940356 
L 82.160107 132.409874 
L 84.139461 131.638652 
L 86.118814 130.625822 
L 88.098167 129.372591 
L 90.229779 127.758106 
L 92.513648 125.731821 
L 94.949775 123.24721 
L 97.53816 120.265682 
L 100.278803 116.761326 
L 103.323962 112.505489 
L 106.978153 106.999638 
L 112.002665 98.978647 
L 121.442658 83.839877 
L 125.249106 78.195187 
L 128.446523 73.832893 
L 131.339424 70.256396 
L 133.927809 67.399975 
L 136.363937 65.039836 
L 138.647806 63.139172 
L 140.779417 61.653988 
L 142.75877 60.535935 
L 144.738124 59.678068 
L 146.565219 59.123211 
L 148.392314 58.800357 
L 150.21941 58.712674 
L 152.046505 58.862183 
L 153.8736 59.249775 
L 155.700696 59.875229 
L 157.527791 60.737237 
L 159.507144 61.935241 
L 161.486498 63.403653 
L 163.618109 65.280694 
L 165.74972 67.455384 
L 168.03359 70.103049 
L 170.469717 73.271495 
L 173.058102 77.002183 
L 175.951003 81.577667 
L 179.14842 87.075223 
L 182.80261 93.831887 
L 187.065833 102.200674 
L 193.156151 114.693271 
L 203.357433 135.629155 
L 207.772914 144.163263 
L 211.427104 150.771458 
L 214.624521 156.116224 
L 217.517422 160.529842 
L 220.105807 164.088255 
L 222.541935 167.060659 
L 224.673546 169.333757 
L 226.652899 171.149601 
L 228.632252 172.66332 
L 230.459348 173.777816 
L 232.134185 174.549932 
L 233.809023 175.074147 
L 235.331602 175.328696 
L 236.854182 175.366138 
L 238.376761 175.181733 
L 239.899341 174.771569 
L 241.42192 174.132661 
L 242.9445 173.263041 
L 244.619337 172.038991 
L 246.294174 170.535268 
L 248.12127 168.57868 
L 249.948365 166.297715 
L 251.927718 163.470433 
L 254.05933 160.027559 
L 256.343199 155.90613 
L 258.779326 151.054553 
L 261.519969 145.094709 
L 264.717386 137.573659 
L 268.523835 128.01238 
L 274.309637 112.778961 
L 281.618018 93.640271 
L 285.576725 83.892615 
L 288.9264 76.21326 
L 291.819301 70.098796 
L 294.559944 64.813331 
L 296.996071 60.57191 
L 299.27994 57.016647 
L 301.411551 54.088544 
L 303.390905 51.723398 
L 305.218 49.854315 
L 307.045095 48.296102 
L 308.719933 47.147351 
L 310.39477 46.27092 
L 311.91735 45.713467 
L 313.439929 45.385796 
L 314.962509 45.288896 
L 316.485088 45.42298 
L 318.007667 45.787542 
L 319.530247 46.381418 
L 321.052826 47.202863 
L 322.727664 48.366589 
L 324.402501 49.799306 
L 326.229597 51.664086 
L 328.20895 54.032608 
L 330.188303 56.75464 
L 332.319915 60.069653 
L 334.603784 64.046532 
L 337.039911 68.749929 
L 339.628296 74.236172 
L 342.521197 80.913066 
L 345.718614 88.884011 
L 349.372805 98.62922 
L 353.636027 110.655732 
L 359.421829 127.694923 
L 372.363755 166.036081 
L 373.581818 169.484118 
L 373.581818 169.484118 
" clip-path="url(#p7e43387c2f)" style="fill: none; stroke-dasharray: 5.55,2.4; stroke-dashoffset: 0; stroke: #0000ff; stroke-width: 1.5"/>
   </g>
   <g id="line2d_31">
    <path d="M 69.218182 233.900443 
L 69.37044 143.582043 
L 69.674956 124.400505 
L 69.979472 122.278568 
L 70.13173 122.494349 
L 70.283987 122.517261 
L 71.349793 124.830265 
L 72.111083 125.667655 
L 73.481404 126.756999 
L 75.765274 128.25553 
L 78.049143 129.498938 
L 80.180754 130.420446 
L 82.312365 131.096069 
L 84.291719 131.491389 
L 86.271072 131.653457 
L 88.098167 131.589081 
L 89.925263 131.31416 
L 91.752358 130.82519 
L 93.579453 130.120267 
L 95.558807 129.112757 
L 97.53816 127.853889 
L 99.669771 126.222775 
L 101.801383 124.315561 
L 104.085252 121.980948 
L 106.673637 118.997005 
L 109.41428 115.485955 
L 112.459439 111.222507 
L 116.11363 105.712108 
L 121.138142 97.694845 
L 130.730392 82.318823 
L 134.689099 76.446882 
L 137.886516 72.081728 
L 140.779417 68.495063 
L 143.367802 65.623455 
L 145.803929 63.244082 
L 148.087798 61.321358 
L 150.21941 59.812304 
L 152.198763 58.669399 
L 154.178116 57.784207 
L 156.005212 57.20203 
L 157.832307 56.84996 
L 159.659402 56.731323 
L 161.486498 56.848354 
L 163.313593 57.202214 
L 165.140689 57.792998 
L 166.967784 58.619736 
L 168.794879 59.680386 
L 170.774233 61.089733 
L 172.753586 62.764468 
L 174.885197 64.856773 
L 177.169066 67.418807 
L 179.605194 70.499292 
L 182.193579 74.140863 
L 184.934222 78.377177 
L 187.979381 83.495401 
L 191.481313 89.842485 
L 195.44002 97.499371 
L 200.312274 107.431217 
L 208.838719 125.433578 
L 215.538069 139.35518 
L 219.95355 148.027652 
L 223.455482 154.439495 
L 226.500641 159.575373 
L 229.241284 163.77528 
L 231.677411 167.120561 
L 233.961281 169.884735 
L 236.092892 172.107877 
L 238.072245 173.838819 
L 239.899341 175.132771 
L 241.574178 176.048922 
L 243.096757 176.648127 
L 244.619337 177.017136 
L 246.141916 177.149512 
L 247.664496 177.039904 
L 249.187075 176.684173 
L 250.709655 176.079501 
L 252.232234 175.224477 
L 253.754814 174.119173 
L 255.429651 172.616214 
L 257.104489 170.816657 
L 258.931584 168.522969 
L 260.910937 165.662005 
L 263.042549 162.164382 
L 265.326418 157.968932 
L 267.762545 153.027912 
L 270.503188 146.963221 
L 273.700605 139.325343 
L 277.659311 129.248683 
L 284.054145 112.247891 
L 290.753495 94.635075 
L 294.86446 84.447117 
L 298.366392 76.361437 
L 301.411551 69.882956 
L 304.152194 64.561879 
L 306.588321 60.283388 
L 308.872191 56.691162 
L 311.003802 53.728131 
L 312.983155 51.330753 
L 314.962509 49.287665 
L 316.789604 47.72552 
L 318.464441 46.572539 
L 320.139279 45.69048 
L 321.661858 45.126097 
L 323.184438 44.789349 
L 324.707017 44.681016 
L 326.229597 44.80133 
L 327.752176 45.150042 
L 329.274756 45.726471 
L 330.797335 46.529531 
L 332.472172 47.672866 
L 334.14701 49.086037 
L 335.974105 50.931556 
L 337.801201 53.088948 
L 339.780554 55.770297 
L 341.912165 59.046426 
L 344.196034 62.985853 
L 346.632162 67.651362 
L 349.220547 73.096225 
L 352.113448 79.722638 
L 355.310865 87.633733 
L 358.812797 96.90092 
L 362.923762 108.428818 
L 367.948274 123.208547 
L 373.581818 140.262918 
L 373.581818 140.262918 
" clip-path="url(#p7e43387c2f)" style="fill: none; stroke-dasharray: 5.55,2.4; stroke-dashoffset: 0; stroke: #0000ff; stroke-width: 1.5"/>
   </g>
   <g id="line2d_32">
    <path d="M 69.218182 233.900443 
L 69.522698 133.35913 
L 69.674956 125.99489 
L 69.979472 123.510619 
L 70.13173 123.567473 
L 70.283987 123.195437 
L 70.893019 123.657698 
L 77.592369 127.92398 
L 79.876238 128.94332 
L 82.007849 129.647836 
L 83.987203 130.076536 
L 85.966556 130.278315 
L 87.945909 130.245091 
L 89.773005 130.000259 
L 91.6001 129.546079 
L 93.579453 128.815417 
L 95.558807 127.836166 
L 97.53816 126.610307 
L 99.669771 125.019636 
L 101.95364 123.014272 
L 104.23751 120.712883 
L 106.825895 117.77249 
L 109.566538 114.313186 
L 112.611697 110.11232 
L 116.265887 104.681412 
L 121.2904 96.775947 
L 131.034908 81.372111 
L 134.841357 75.80671 
L 138.038774 71.49916 
L 140.931675 67.961832 
L 143.52006 65.132208 
L 145.956187 62.790541 
L 148.240056 60.90159 
L 150.371668 59.422677 
L 152.351021 58.306539 
L 154.330374 57.446899 
L 156.15747 56.887184 
L 157.984565 56.556443 
L 159.81166 56.457942 
L 161.638756 56.593848 
L 163.465851 56.965241 
L 165.292946 57.572128 
L 167.120042 58.413441 
L 169.099395 59.586881 
L 171.078748 61.028705 
L 173.21036 62.87497 
L 175.341971 65.016628 
L 177.62584 67.62619 
L 180.061967 70.75056 
L 182.650352 74.430271 
L 185.543253 78.944093 
L 188.74067 84.370061 
L 192.242603 90.760551 
L 196.353568 98.737839 
L 201.682596 109.607294 
L 217.821938 142.904744 
L 221.780645 150.358007 
L 225.13032 156.192904 
L 228.023221 160.796079 
L 230.611606 164.510703 
L 232.895475 167.428695 
L 235.027086 169.81556 
L 237.00644 171.71588 
L 238.833535 173.180719 
L 240.508372 174.265358 
L 242.18321 175.091194 
L 243.705789 175.608517 
L 245.228369 175.89626 
L 246.750948 175.948398 
L 248.273528 175.760015 
L 249.796107 175.327417 
L 251.318687 174.648235 
L 252.841266 173.721503 
L 254.363846 172.547724 
L 256.038683 170.973662 
L 257.865778 168.924052 
L 259.692874 166.536522 
L 261.672227 163.58291 
L 263.803838 159.996858 
L 266.087707 155.720552 
L 268.676093 150.382505 
L 271.568994 143.879476 
L 274.918668 135.776159 
L 279.181891 124.840166 
L 293.646396 87.215365 
L 297.300587 78.607689 
L 300.498004 71.642032 
L 303.390905 65.879245 
L 305.97929 61.213879 
L 308.415417 57.287516 
L 310.547028 54.248365 
L 312.678639 51.599963 
L 314.657993 49.50545 
L 316.485088 47.893778 
L 318.159925 46.693953 
L 319.834763 45.763911 
L 321.357342 45.155101 
L 322.879922 44.773311 
L 324.402501 44.619449 
L 325.925081 44.693865 
L 327.44766 44.996419 
L 328.97024 45.526532 
L 330.492819 46.283213 
L 332.167657 47.375577 
L 333.842494 48.737954 
L 335.669589 50.52843 
L 337.496685 52.631345 
L 339.476038 55.254544 
L 341.607649 58.469329 
L 343.891518 62.344824 
L 346.327646 66.944538 
L 348.916031 72.322576 
L 351.808932 78.878494 
L 355.006349 86.717381 
L 358.508281 95.913163 
L 362.619246 107.368803 
L 367.643758 122.079373 
L 373.581818 140.008644 
L 373.581818 140.008644 
" clip-path="url(#p7e43387c2f)" style="fill: none; stroke-dasharray: 5.55,2.4; stroke-dashoffset: 0; stroke: #0000ff; stroke-width: 1.5"/>
   </g>
   <g id="line2d_33">
    <path d="M 69.218182 233.900443 
L 69.522698 134.421577 
L 69.674956 126.470331 
L 70.13173 123.887483 
L 70.283987 123.397671 
L 70.588503 123.592133 
L 70.893019 123.535301 
L 71.502051 123.774671 
L 73.02463 124.763767 
L 75.917531 126.615194 
L 78.201401 127.818709 
L 80.333012 128.708649 
L 82.464623 129.358442 
L 84.443977 129.735402 
L 86.42333 129.884932 
L 88.402683 129.799361 
L 90.229779 129.506502 
L 92.209132 128.953673 
L 94.188485 128.153859 
L 96.167838 127.107273 
L 98.147192 125.816588 
L 100.278803 124.159698 
L 102.562672 122.088447 
L 104.998799 119.560124 
L 107.587185 116.541402 
L 110.480085 112.807709 
L 113.677502 108.310136 
L 117.636209 102.336242 
L 123.878785 92.43784 
L 130.730392 81.689294 
L 134.689099 75.893983 
L 138.038774 71.384448 
L 140.931675 67.855938 
L 143.52006 65.032887 
L 145.956187 62.696348 
L 148.240056 60.811333 
L 150.371668 59.335375 
L 152.351021 58.221393 
L 154.330374 57.363368 
L 156.15747 56.804679 
L 157.984565 56.474531 
L 159.81166 56.3762 
L 161.638756 56.511857 
L 163.465851 56.882588 
L 165.292946 57.488398 
L 167.120042 58.328216 
L 169.099395 59.499559 
L 171.078748 60.938776 
L 173.21036 62.781642 
L 175.341971 64.919264 
L 177.62584 67.523763 
L 180.061967 70.641846 
L 182.650352 74.313834 
L 185.543253 78.817717 
L 188.74067 84.231092 
L 192.242603 90.605933 
L 196.353568 98.562639 
L 201.682596 109.402615 
L 217.821938 142.604942 
L 221.780645 150.037308 
L 225.13032 155.856596 
L 228.023221 160.4483 
L 230.611606 164.154565 
L 232.895475 167.066888 
L 235.027086 169.450057 
L 237.00644 171.348434 
L 238.833535 172.812825 
L 240.508372 173.898237 
L 242.18321 174.726012 
L 243.705789 175.246126 
L 245.228369 175.537647 
L 246.750948 175.594551 
L 248.273528 175.411908 
L 249.796107 174.986005 
L 251.318687 174.314439 
L 252.841266 173.396206 
L 254.363846 172.231754 
L 256.038683 170.668834 
L 257.865778 168.632324 
L 259.692874 166.25874 
L 261.672227 163.321006 
L 263.803838 159.7527 
L 266.087707 155.495827 
L 268.676093 150.179867 
L 271.568994 143.700987 
L 274.918668 135.6241 
L 279.181891 124.718241 
L 293.798654 86.79127 
L 297.452845 78.219366 
L 300.650261 71.288246 
L 303.390905 65.846784 
L 305.97929 61.184903 
L 308.415417 57.261184 
L 310.547028 54.223914 
L 312.678639 51.577044 
L 314.657993 49.483675 
L 316.485088 47.872845 
L 318.159925 46.673624 
L 319.834763 45.744035 
L 321.357342 45.13551 
L 322.879922 44.753888 
L 324.402501 44.600082 
L 325.925081 44.674447 
L 327.44766 44.976846 
L 328.97024 45.506706 
L 330.492819 46.263041 
L 332.167657 47.354924 
L 333.842494 48.716719 
L 335.669589 50.506445 
L 337.496685 52.608489 
L 339.476038 55.230592 
L 341.607649 58.443992 
L 343.891518 62.317719 
L 346.327646 66.915155 
L 348.916031 72.290262 
L 351.808932 78.842238 
L 355.006349 86.67601 
L 358.508281 95.865516 
L 362.619246 107.313374 
L 367.643758 122.014465 
L 373.581818 139.932817 
L 373.581818 139.932817 
" clip-path="url(#p7e43387c2f)" style="fill: none; stroke-dasharray: 5.55,2.4; stroke-dashoffset: 0; stroke: #0000ff; stroke-width: 1.5"/>
   </g>
   <g id="line2d_34">
    <path d="M 69.218182 223.43831 
L 69.522698 132.234573 
L 69.674956 122.023366 
L 69.827214 121.624681 
L 69.979472 119.336485 
L 70.13173 119.366922 
L 70.283987 118.692964 
L 70.588503 118.935709 
L 70.740761 118.76316 
L 71.349793 118.969163 
L 72.111083 119.556075 
L 74.851726 122.136744 
L 77.744627 124.683635 
L 80.333012 126.684495 
L 82.769139 128.294538 
L 85.053008 129.538208 
L 87.18462 130.447531 
L 89.163973 131.060146 
L 91.143326 131.437837 
L 92.970422 131.56945 
L 94.797517 131.48623 
L 96.624612 131.183451 
L 98.451708 130.658106 
L 100.278803 129.909053 
L 102.258156 128.846139 
L 104.23751 127.525454 
L 106.369121 125.822575 
L 108.65299 123.688583 
L 111.089117 121.081 
L 113.677502 117.967798 
L 116.570403 114.120523 
L 119.920078 109.264011 
L 124.031043 102.870947 
L 130.88265 91.713171 
L 136.972968 81.962134 
L 140.931675 76.039257 
L 144.129092 71.631892 
L 147.021993 68.007231 
L 149.610378 65.102269 
L 152.046505 62.692159 
L 154.330374 60.741058 
L 156.461986 59.205676 
L 158.441339 58.038253 
L 160.420692 57.128319 
L 162.247788 56.523034 
L 164.074883 56.147603 
L 165.901978 56.00543 
L 167.729074 56.098878 
L 169.556169 56.429264 
L 171.383264 56.996823 
L 173.21036 57.800681 
L 175.037455 58.838805 
L 177.016808 60.224043 
L 178.996162 61.874733 
L 181.127773 63.94082 
L 183.411642 66.47389 
L 185.847769 69.522062 
L 188.436154 73.127751 
L 191.176797 77.325511 
L 194.221956 82.403618 
L 197.571631 88.431918 
L 201.37808 95.757308 
L 205.79356 104.754375 
L 211.579362 117.083926 
L 224.064514 143.846101 
L 228.175479 152.035012 
L 231.525153 158.226421 
L 234.418054 163.120867 
L 237.00644 167.071504 
L 239.290309 170.170343 
L 241.42192 172.696927 
L 243.401273 174.697727 
L 245.228369 176.227636 
L 246.903206 177.347066 
L 248.425786 178.119124 
L 249.948365 178.648887 
L 251.470945 178.929503 
L 252.841266 178.964471 
L 254.211588 178.790177 
L 255.581909 178.404637 
L 257.104489 177.727387 
L 258.627068 176.788419 
L 260.149648 175.589562 
L 261.824485 173.974761 
L 263.499322 172.056348 
L 265.326418 169.627754 
L 267.305771 166.617725 
L 269.437382 162.960019 
L 271.721252 158.597975 
L 274.309637 153.156294 
L 277.202538 146.535543 
L 280.552212 138.301189 
L 284.967693 126.809887 
L 299.27994 89.067165 
L 302.934131 80.272408 
L 306.131548 73.123226 
L 309.024449 67.18402 
L 311.612834 62.356467 
L 314.048961 58.275788 
L 316.33283 54.888606 
L 318.464441 52.131404 
L 320.443795 49.934702 
L 322.27089 48.226715 
L 324.097985 46.832128 
L 325.772823 45.833246 
L 327.44766 45.104695 
L 328.97024 44.678832 
L 330.492819 44.479475 
L 332.015399 44.507533 
L 333.537978 44.763587 
L 335.060558 45.247853 
L 336.583137 45.960135 
L 338.257974 47.006147 
L 339.932812 48.325408 
L 341.759907 50.072865 
L 343.587003 52.136758 
L 345.566356 54.72132 
L 347.697967 57.897061 
L 349.981836 61.731368 
L 352.417964 66.285633 
L 355.006349 71.612808 
L 357.89925 78.11123 
L 360.944409 85.510346 
L 364.294083 94.23263 
L 368.100532 104.776611 
L 372.66827 118.12894 
L 373.581818 120.869423 
L 373.581818 120.869423 
" clip-path="url(#p7e43387c2f)" style="fill: none; stroke-dasharray: 5.55,2.4; stroke-dashoffset: 0; stroke: #0000ff; stroke-width: 1.5"/>
   </g>
   <g id="line2d_35">
    <path d="M 69.218182 223.43831 
L 69.522698 131.838189 
L 69.674956 121.844421 
L 69.827214 121.415587 
L 69.979472 119.201297 
L 70.13173 119.249334 
L 70.283987 118.618281 
L 70.588503 118.913495 
L 70.740761 118.778497 
L 71.349793 119.061031 
L 72.263341 119.818353 
L 78.505917 125.444705 
L 81.094302 127.362254 
L 83.530429 128.884027 
L 85.66204 129.968498 
L 87.793651 130.804429 
L 89.773005 131.344491 
L 91.752358 131.645867 
L 93.579453 131.704182 
L 95.406549 131.545452 
L 97.233644 131.165529 
L 99.060739 130.562044 
L 100.887835 129.734538 
L 102.867188 128.587117 
L 104.846541 127.183346 
L 106.978153 125.393672 
L 109.262022 123.171055 
L 111.698149 120.475404 
L 114.286534 117.277546 
L 117.179435 113.348304 
L 120.52911 108.415543 
L 124.792333 101.713259 
L 139.713611 77.851831 
L 143.215544 72.886655 
L 146.260703 68.957431 
L 149.001346 65.786538 
L 151.437473 63.294161 
L 153.721342 61.260738 
L 155.852954 59.644619 
L 157.984565 58.314045 
L 159.963918 57.343956 
L 161.791014 56.681963 
L 163.618109 56.24896 
L 165.445204 56.048607 
L 167.2723 56.083532 
L 169.099395 56.355315 
L 170.926491 56.86447 
L 172.753586 57.610408 
L 174.580681 58.591396 
L 176.560035 59.915974 
L 178.539388 61.507674 
L 180.670999 63.51254 
L 182.954868 65.98317 
L 185.390995 68.968869 
L 187.979381 72.513372 
L 190.720024 76.652609 
L 193.765183 81.673564 
L 197.114857 87.648707 
L 200.921306 94.926009 
L 205.336787 103.88372 
L 210.970331 115.860232 
L 224.521288 144.90088 
L 228.479995 152.742747 
L 231.829669 158.89143 
L 234.72257 163.738418 
L 237.310955 167.638044 
L 239.594825 170.685129 
L 241.726436 173.157803 
L 243.705789 175.103885 
L 245.532885 176.57954 
L 247.207722 177.646333 
L 248.730302 178.36837 
L 250.252881 178.846296 
L 251.77546 179.073539 
L 253.145782 179.059405 
L 254.516104 178.835242 
L 255.886425 178.399313 
L 257.409005 177.66577 
L 258.931584 176.670528 
L 260.454163 175.415766 
L 262.129001 173.740314 
L 263.956096 171.56809 
L 265.783192 169.048375 
L 267.762545 165.944184 
L 269.894156 162.191417 
L 272.330283 157.424088 
L 274.918668 151.860434 
L 277.963827 144.758093 
L 281.618018 135.618833 
L 286.490272 122.77567 
L 297.605103 93.294603 
L 301.563809 83.512605 
L 304.913484 75.790098 
L 307.958643 69.318206 
L 310.699286 64.013207 
L 313.135413 59.759086 
L 315.419282 56.198443 
L 317.550894 53.271391 
L 319.530247 50.91137 
L 321.357342 49.048804 
L 323.184438 47.496762 
L 324.859275 46.351584 
L 326.534113 45.4753 
L 328.056692 44.914185 
L 329.579271 44.578897 
L 331.101851 44.470552 
L 332.62443 44.589925 
L 334.14701 44.937456 
L 335.669589 45.513205 
L 337.192169 46.316784 
L 338.867006 47.462737 
L 340.541844 48.88108 
L 342.368939 50.735155 
L 344.196034 52.903543 
L 346.175388 55.598191 
L 348.306999 58.888001 
L 350.590868 62.838443 
L 353.026995 67.508816 
L 355.61538 72.949992 
L 358.508281 79.564204 
L 361.705698 87.46104 
L 365.207631 96.727823 
L 369.166338 107.856138 
L 373.581818 120.896494 
L 373.581818 120.896494 
" clip-path="url(#p7e43387c2f)" style="fill: none; stroke-dasharray: 5.55,2.4; stroke-dashoffset: 0; stroke: #0000ff; stroke-width: 1.5"/>
   </g>
   <g id="line2d_36">
    <path d="M 69.218182 223.43831 
L 69.674956 122.514882 
L 69.827214 122.199025 
L 69.979472 119.707824 
L 70.13173 119.689915 
L 70.283987 118.898105 
L 70.588503 118.996724 
L 70.893019 118.673367 
L 71.349793 118.716813 
L 71.958825 119.093622 
L 73.329146 120.31721 
L 77.135595 123.781582 
L 79.876238 125.955889 
L 82.312365 127.615625 
L 84.596234 128.912424 
L 86.727846 129.87686 
L 88.707199 130.545182 
L 90.686552 130.98262 
L 92.513648 131.172619 
L 94.340743 131.150492 
L 96.167838 130.911059 
L 97.994934 130.450799 
L 99.822029 129.768 
L 101.801383 128.777472 
L 103.780736 127.529006 
L 105.912347 125.902747 
L 108.043958 123.995022 
L 110.327828 121.655381 
L 112.763955 118.847524 
L 115.504598 115.343158 
L 118.549757 111.08261 
L 122.203947 105.57024 
L 127.22846 97.538907 
L 137.277484 81.377593 
L 141.083933 75.718485 
L 144.28135 71.337187 
L 147.174251 67.737791 
L 149.762636 64.856622 
L 152.198763 62.469766 
L 154.482632 60.54107 
L 156.614243 59.026994 
L 158.593597 57.879582 
L 160.57295 56.989771 
L 162.400045 56.403066 
L 164.227141 56.046136 
L 166.054236 55.922295 
L 167.881332 56.033816 
L 169.708427 56.381918 
L 171.535522 56.966735 
L 173.362618 57.787284 
L 175.189713 58.841419 
L 177.169066 60.243095 
L 179.300678 62.048038 
L 181.432289 64.150136 
L 183.716158 66.71902 
L 186.152285 69.801879 
L 188.74067 73.440123 
L 191.633571 77.912707 
L 194.67873 83.037422 
L 198.028405 89.106433 
L 201.834854 96.464923 
L 206.402592 105.801519 
L 212.49291 118.799791 
L 223.60774 142.581934 
L 227.718705 150.813725 
L 231.06838 157.062006 
L 233.961281 162.022562 
L 236.549666 166.046245 
L 238.833535 169.220602 
L 240.965146 171.826964 
L 242.9445 173.909658 
L 244.771595 175.521519 
L 246.446432 176.72108 
L 248.12127 177.641645 
L 249.643849 178.226987 
L 251.166429 178.565363 
L 252.53675 178.653913 
L 253.907072 178.534451 
L 255.277393 178.204722 
L 256.647715 177.663498 
L 258.170294 176.813896 
L 259.692874 175.704245 
L 261.367711 174.186715 
L 263.042549 172.363955 
L 264.869644 170.037013 
L 266.848997 167.132902 
L 268.980608 163.583131 
L 271.264478 159.328249 
L 273.700605 154.323178 
L 276.441248 148.189864 
L 279.638665 140.481919 
L 283.749629 129.939255 
L 290.905753 110.818485 
L 297.148329 94.401414 
L 301.259293 84.194478 
L 304.761226 76.087817 
L 307.806385 69.592337 
L 310.547028 64.261611 
L 312.983155 59.981438 
L 315.267024 56.393996 
L 317.398636 53.440156 
L 319.377989 51.053961 
L 321.357342 49.022893 
L 323.184438 47.471099 
L 324.859275 46.325962 
L 326.534113 45.449547 
L 328.056692 44.88817 
L 329.579271 44.552493 
L 331.101851 44.443636 
L 332.62443 44.562384 
L 334.14701 44.909177 
L 335.669589 45.484078 
L 337.192169 46.286695 
L 338.867006 47.431451 
L 340.541844 48.848432 
L 342.368939 50.700803 
L 344.196034 52.867222 
L 346.175388 55.559389 
L 348.306999 58.846074 
L 350.590868 62.792605 
L 353.026995 67.458171 
L 355.61538 72.893604 
L 358.508281 79.500823 
L 361.705698 87.389546 
L 365.207631 96.647358 
L 369.166338 107.765676 
L 373.581818 120.795062 
L 373.581818 120.795062 
" clip-path="url(#p7e43387c2f)" style="fill: none; stroke-dasharray: 5.55,2.4; stroke-dashoffset: 0; stroke: #0000ff; stroke-width: 1.5"/>
   </g>
   <g id="line2d_37">
    <path d="M 69.218182 200.267832 
L 69.37044 179.181877 
L 69.522698 128.461703 
L 69.674956 116.316073 
L 69.827214 116.795529 
L 69.979472 113.812296 
L 70.13173 113.927002 
L 70.283987 113.167937 
L 70.588503 113.641195 
L 70.740761 113.481952 
L 71.654309 114.268734 
L 73.176888 116.173326 
L 79.72398 124.61617 
L 83.073655 128.540915 
L 85.966556 131.608098 
L 88.554941 134.04325 
L 90.991068 136.026158 
L 93.12268 137.4865 
L 95.102033 138.592473 
L 97.081386 139.441123 
L 98.908482 139.983943 
L 100.735577 140.286352 
L 102.410414 140.346178 
L 104.085252 140.19398 
L 105.760089 139.82746 
L 107.434927 139.246037 
L 109.262022 138.368079 
L 111.089117 137.239687 
L 113.068471 135.742043 
L 115.047824 133.969032 
L 117.179435 131.767816 
L 119.463304 129.096816 
L 122.051689 125.715345 
L 124.94459 121.54705 
L 128.294265 116.29906 
L 132.40523 109.405288 
L 139.10458 97.647736 
L 145.499413 86.580626 
L 149.45812 80.158792 
L 152.807795 75.136559 
L 155.700696 71.179052 
L 158.441339 67.805796 
L 160.877466 65.147845 
L 163.161335 62.970546 
L 165.292946 61.229756 
L 167.2723 59.87718 
L 169.251653 58.788373 
L 171.078748 58.024496 
L 172.905844 57.497699 
L 174.732939 57.212304 
L 176.407777 57.165485 
L 178.082614 57.325718 
L 179.757451 57.693613 
L 181.584547 58.331373 
L 183.411642 59.214136 
L 185.238738 60.33889 
L 187.218091 61.825545 
L 189.197444 63.584499 
L 191.329055 65.774137 
L 193.612925 68.447717 
L 196.049052 71.656699 
L 198.637437 75.449613 
L 201.37808 79.870914 
L 204.270981 84.95955 
L 207.468398 91.047071 
L 210.970331 98.215454 
L 214.929037 106.86047 
L 219.496776 117.39459 
L 226.348383 133.83038 
L 233.656765 151.21343 
L 237.615471 160.064919 
L 240.812888 166.688609 
L 243.553531 171.869429 
L 245.989658 176.008875 
L 248.12127 179.218631 
L 250.100623 181.817622 
L 251.927718 183.864508 
L 253.602556 185.425747 
L 255.125135 186.571627 
L 256.647715 187.448139 
L 258.018036 188.000863 
L 259.388358 188.325745 
L 260.758679 188.419948 
L 262.129001 188.281754 
L 263.499322 187.910563 
L 264.869644 187.306885 
L 266.239965 186.472328 
L 267.762545 185.277579 
L 269.285124 183.806424 
L 270.959962 181.877188 
L 272.787057 179.414167 
L 274.76641 176.344216 
L 276.898022 172.600996 
L 279.181891 168.129833 
L 281.770276 162.55083 
L 284.663177 155.767682 
L 288.012852 147.337576 
L 292.276074 135.977001 
L 299.736714 115.321668 
L 306.283806 97.458412 
L 310.39477 86.861982 
L 313.896703 78.444037 
L 316.941862 71.69964 
L 319.682505 66.160298 
L 322.27089 61.438189 
L 324.554759 57.711707 
L 326.68637 54.6248 
L 328.817982 51.930237 
L 330.797335 49.790716 
L 332.62443 48.134201 
L 334.299268 46.890598 
L 335.974105 45.915352 
L 337.496685 45.265785 
L 339.019264 44.845382 
L 340.541844 44.65693 
L 342.064423 44.702522 
L 343.587003 44.983393 
L 345.109582 45.499779 
L 346.632162 46.25082 
L 348.306999 47.345589 
L 349.981836 48.717691 
L 351.808932 50.524203 
L 353.636027 52.645207 
L 355.61538 55.286215 
L 357.746992 58.514431 
L 360.030861 62.396179 
L 362.466988 66.996331 
L 365.055373 72.377565 
L 367.796016 78.598547 
L 370.688917 85.709829 
L 373.581818 93.332419 
L 373.581818 93.332419 
" clip-path="url(#p7e43387c2f)" style="fill: none; stroke-dasharray: 5.55,2.4; stroke-dashoffset: 0; stroke: #0000ff; stroke-width: 1.5"/>
   </g>
   <g id="line2d_38">
    <path d="M 69.218182 200.267832 
L 69.522698 124.735056 
L 69.674956 114.604 
L 69.827214 114.941338 
L 69.979472 112.579297 
L 70.13173 112.857446 
L 70.283987 112.480919 
L 71.045277 114.201503 
L 72.720115 116.695747 
L 77.287853 122.766109 
L 81.094302 127.483895 
L 84.291719 131.095879 
L 87.032362 133.865344 
L 89.468489 136.026893 
L 91.752358 137.76216 
L 93.883969 139.101507 
L 95.863323 140.083784 
L 97.690418 140.753642 
L 99.517513 141.185682 
L 101.192351 141.365755 
L 102.867188 141.334304 
L 104.542026 141.088162 
L 106.216863 140.625853 
L 108.043958 139.875335 
L 109.871054 138.870642 
L 111.698149 137.616969 
L 113.677502 135.986695 
L 115.809114 133.928689 
L 118.092983 131.397295 
L 120.52911 128.35575 
L 123.269753 124.559367 
L 126.314912 119.945519 
L 129.969103 113.977057 
L 134.689099 105.808911 
L 146.412961 85.333388 
L 150.21941 79.23658 
L 153.416827 74.518732 
L 156.309728 70.637831 
L 158.898113 67.521833 
L 161.33424 64.927614 
L 163.618109 62.81607 
L 165.74972 61.141503 
L 167.729074 59.854318 
L 169.708427 58.834393 
L 171.535522 58.13697 
L 173.362618 57.679165 
L 175.189713 57.465069 
L 176.86455 57.485425 
L 178.539388 57.714366 
L 180.214225 58.152288 
L 182.041321 58.867688 
L 183.868416 59.82911 
L 185.695511 61.033258 
L 187.674865 62.606432 
L 189.806476 64.605147 
L 191.938087 66.909542 
L 194.221956 69.704631 
L 196.658084 73.041109 
L 199.246469 76.966599 
L 201.987112 81.52445 
L 205.032271 87.038534 
L 208.229688 93.294134 
L 211.73162 100.63269 
L 215.690327 109.448067 
L 220.562581 120.868961 
L 236.549666 158.86103 
L 239.899341 165.973685 
L 242.639984 171.310106 
L 245.076111 175.605732 
L 247.35998 179.189549 
L 249.339333 181.908273 
L 251.166429 184.071012 
L 252.841266 185.742189 
L 254.516104 187.100738 
L 256.038683 188.054232 
L 257.561262 188.731864 
L 258.931584 189.101087 
L 260.301905 189.239188 
L 261.672227 189.1443 
L 263.042549 188.815688 
L 264.41287 188.253736 
L 265.783192 187.459938 
L 267.305771 186.309204 
L 268.828351 184.880575 
L 270.503188 182.996199 
L 272.330283 180.579556 
L 274.309637 177.556454 
L 276.441248 173.859237 
L 278.725117 169.431624 
L 281.313502 163.894068 
L 284.206403 157.146597 
L 287.556078 148.743404 
L 291.819301 137.395377 
L 298.670908 118.405623 
L 305.827032 98.758473 
L 310.090254 87.695529 
L 313.592187 79.214896 
L 316.637346 72.408181 
L 319.377989 66.807468 
L 321.966374 62.023684 
L 324.250243 58.240403 
L 326.534113 54.889256 
L 328.665724 52.167148 
L 330.645077 50.001755 
L 332.472172 48.321121 
L 334.14701 47.055215 
L 335.821847 46.057504 
L 337.344427 45.387411 
L 338.867006 44.946447 
L 340.389586 44.737487 
L 341.912165 44.762741 
L 343.434745 45.023584 
L 344.957324 45.52041 
L 346.479904 46.252526 
L 348.002483 47.218102 
L 349.67732 48.546336 
L 351.504416 50.307083 
L 353.331511 52.384716 
L 355.310865 54.981536 
L 357.442476 58.165338 
L 359.726345 62.002873 
L 362.162472 66.559271 
L 364.750857 71.897432 
L 367.4915 78.076459 
L 370.384401 85.147877 
L 373.581818 93.562585 
L 373.581818 93.562585 
" clip-path="url(#p7e43387c2f)" style="fill: none; stroke-dasharray: 5.55,2.4; stroke-dashoffset: 0; stroke: #0000ff; stroke-width: 1.5"/>
   </g>
   <g id="patch_3">
    <path d="M 54 252 
L 54 34.56 
" style="fill: none; stroke: #000000; stroke-width: 0.8; stroke-linejoin: miter; stroke-linecap: square"/>
   </g>
   <g id="patch_4">
    <path d="M 388.8 252 
L 388.8 34.56 
" style="fill: none; stroke: #000000; stroke-width: 0.8; stroke-linejoin: miter; stroke-linecap: square"/>
   </g>
   <g id="patch_5">
    <path d="M 54 252 
L 388.8 252 
" style="fill: none; stroke: #000000; stroke-width: 0.8; stroke-linejoin: miter; stroke-linecap: square"/>
   </g>
   <g id="patch_6">
    <path d="M 54 34.56 
L 388.8 34.56 
" style="fill: none; stroke: #000000; stroke-width: 0.8; stroke-linejoin: miter; stroke-linecap: square"/>
   </g>
  </g>
 </g>
 <defs>
  <clipPath id="p7e43387c2f">
   <rect x="54" y="34.56" width="334.8" height="217.44"/>
  </clipPath>
 </defs>
</svg>
