<?xml version="1.0" encoding="utf-8" standalone="no"?>
<!DOCTYPE svg PUBLIC "-//W3C//DTD SVG 1.1//EN"
  "http://www.w3.org/Graphics/SVG/1.1/DTD/svg11.dtd">
<svg xmlns:xlink="http://www.w3.org/1999/xlink" width="432pt" height="288pt" viewBox="0 0 432 288" xmlns="http://www.w3.org/2000/svg" version="1.1">
 <metadata>
  <rdf:RDF xmlns:dc="http://purl.org/dc/elements/1.1/" xmlns:cc="http://creativecommons.org/ns#" xmlns:rdf="http://www.w3.org/1999/02/22-rdf-syntax-ns#">
   <cc:Work>
    <dc:type rdf:resource="http://purl.org/dc/dcmitype/StillImage"/>
    <dc:date>2022-05-11T21:18:50.512944</dc:date>
    <dc:format>image/svg+xml</dc:format>
    <dc:creator>
     <cc:Agent>
      <dc:title>Matplotlib v3.5.1, https://matplotlib.org/</dc:title>
     </cc:Agent>
    </dc:creator>
   </cc:Work>
  </rdf:RDF>
 </metadata>
 <defs>
  <style type="text/css">*{stroke-linejoin: round; stroke-linecap: butt}</style>
 </defs>
 <g id="figure_1">
  <g id="patch_1">
   <path d="M 0 288 
L 432 288 
L 432 0 
L 0 0 
L 0 288 
z
" style="fill: none"/>
  </g>
  <g id="axes_1">
   <g id="patch_2">
    <path d="M 54 252 
L 388.8 252 
L 388.8 34.56 
L 54 34.56 
z
" style="fill: #ffffff"/>
   </g>
   <g id="matplotlib.axis_1">
    <g id="xtick_1">
     <g id="line2d_1">
      <defs>
       <path id="m91637d882e" d="M 0 0 
L 0 3.5 
" style="stroke: #000000; stroke-width: 0.8"/>
      </defs>
      <g>
       <use xlink:href="#m91637d882e" x="69.218182" y="252" style="stroke: #000000; stroke-width: 0.8"/>
      </g>
     </g>
     <g id="text_1">
      <!-- 0 -->
      <g transform="translate(66.036932 266.598437)scale(0.1 -0.1)">
       <defs>
        <path id="DejaVuSans-30" d="M 2034 4250 
Q 1547 4250 1301 3770 
Q 1056 3291 1056 2328 
Q 1056 1369 1301 889 
Q 1547 409 2034 409 
Q 2525 409 2770 889 
Q 3016 1369 3016 2328 
Q 3016 3291 2770 3770 
Q 2525 4250 2034 4250 
z
M 2034 4750 
Q 2819 4750 3233 4129 
Q 3647 3509 3647 2328 
Q 3647 1150 3233 529 
Q 2819 -91 2034 -91 
Q 1250 -91 836 529 
Q 422 1150 422 2328 
Q 422 3509 836 4129 
Q 1250 4750 2034 4750 
z
" transform="scale(0.015625)"/>
       </defs>
       <use xlink:href="#DejaVuSans-30"/>
      </g>
     </g>
    </g>
    <g id="xtick_2">
     <g id="line2d_2">
      <g>
       <use xlink:href="#m91637d882e" x="117.955353" y="252" style="stroke: #000000; stroke-width: 0.8"/>
      </g>
     </g>
     <g id="text_2">
      <!-- 200 -->
      <g transform="translate(108.411603 266.598437)scale(0.1 -0.1)">
       <defs>
        <path id="DejaVuSans-32" d="M 1228 531 
L 3431 531 
L 3431 0 
L 469 0 
L 469 531 
Q 828 903 1448 1529 
Q 2069 2156 2228 2338 
Q 2531 2678 2651 2914 
Q 2772 3150 2772 3378 
Q 2772 3750 2511 3984 
Q 2250 4219 1831 4219 
Q 1534 4219 1204 4116 
Q 875 4013 500 3803 
L 500 4441 
Q 881 4594 1212 4672 
Q 1544 4750 1819 4750 
Q 2544 4750 2975 4387 
Q 3406 4025 3406 3419 
Q 3406 3131 3298 2873 
Q 3191 2616 2906 2266 
Q 2828 2175 2409 1742 
Q 1991 1309 1228 531 
z
" transform="scale(0.015625)"/>
       </defs>
       <use xlink:href="#DejaVuSans-32"/>
       <use xlink:href="#DejaVuSans-30" x="63.623047"/>
       <use xlink:href="#DejaVuSans-30" x="127.246094"/>
      </g>
     </g>
    </g>
    <g id="xtick_3">
     <g id="line2d_3">
      <g>
       <use xlink:href="#m91637d882e" x="166.692525" y="252" style="stroke: #000000; stroke-width: 0.8"/>
      </g>
     </g>
     <g id="text_3">
      <!-- 400 -->
      <g transform="translate(157.148775 266.598437)scale(0.1 -0.1)">
       <defs>
        <path id="DejaVuSans-34" d="M 2419 4116 
L 825 1625 
L 2419 1625 
L 2419 4116 
z
M 2253 4666 
L 3047 4666 
L 3047 1625 
L 3713 1625 
L 3713 1100 
L 3047 1100 
L 3047 0 
L 2419 0 
L 2419 1100 
L 313 1100 
L 313 1709 
L 2253 4666 
z
" transform="scale(0.015625)"/>
       </defs>
       <use xlink:href="#DejaVuSans-34"/>
       <use xlink:href="#DejaVuSans-30" x="63.623047"/>
       <use xlink:href="#DejaVuSans-30" x="127.246094"/>
      </g>
     </g>
    </g>
    <g id="xtick_4">
     <g id="line2d_4">
      <g>
       <use xlink:href="#m91637d882e" x="215.429696" y="252" style="stroke: #000000; stroke-width: 0.8"/>
      </g>
     </g>
     <g id="text_4">
      <!-- 600 -->
      <g transform="translate(205.885946 266.598437)scale(0.1 -0.1)">
       <defs>
        <path id="DejaVuSans-36" d="M 2113 2584 
Q 1688 2584 1439 2293 
Q 1191 2003 1191 1497 
Q 1191 994 1439 701 
Q 1688 409 2113 409 
Q 2538 409 2786 701 
Q 3034 994 3034 1497 
Q 3034 2003 2786 2293 
Q 2538 2584 2113 2584 
z
M 3366 4563 
L 3366 3988 
Q 3128 4100 2886 4159 
Q 2644 4219 2406 4219 
Q 1781 4219 1451 3797 
Q 1122 3375 1075 2522 
Q 1259 2794 1537 2939 
Q 1816 3084 2150 3084 
Q 2853 3084 3261 2657 
Q 3669 2231 3669 1497 
Q 3669 778 3244 343 
Q 2819 -91 2113 -91 
Q 1303 -91 875 529 
Q 447 1150 447 2328 
Q 447 3434 972 4092 
Q 1497 4750 2381 4750 
Q 2619 4750 2861 4703 
Q 3103 4656 3366 4563 
z
" transform="scale(0.015625)"/>
       </defs>
       <use xlink:href="#DejaVuSans-36"/>
       <use xlink:href="#DejaVuSans-30" x="63.623047"/>
       <use xlink:href="#DejaVuSans-30" x="127.246094"/>
      </g>
     </g>
    </g>
    <g id="xtick_5">
     <g id="line2d_5">
      <g>
       <use xlink:href="#m91637d882e" x="264.166868" y="252" style="stroke: #000000; stroke-width: 0.8"/>
      </g>
     </g>
     <g id="text_5">
      <!-- 800 -->
      <g transform="translate(254.623118 266.598437)scale(0.1 -0.1)">
       <defs>
        <path id="DejaVuSans-38" d="M 2034 2216 
Q 1584 2216 1326 1975 
Q 1069 1734 1069 1313 
Q 1069 891 1326 650 
Q 1584 409 2034 409 
Q 2484 409 2743 651 
Q 3003 894 3003 1313 
Q 3003 1734 2745 1975 
Q 2488 2216 2034 2216 
z
M 1403 2484 
Q 997 2584 770 2862 
Q 544 3141 544 3541 
Q 544 4100 942 4425 
Q 1341 4750 2034 4750 
Q 2731 4750 3128 4425 
Q 3525 4100 3525 3541 
Q 3525 3141 3298 2862 
Q 3072 2584 2669 2484 
Q 3125 2378 3379 2068 
Q 3634 1759 3634 1313 
Q 3634 634 3220 271 
Q 2806 -91 2034 -91 
Q 1263 -91 848 271 
Q 434 634 434 1313 
Q 434 1759 690 2068 
Q 947 2378 1403 2484 
z
M 1172 3481 
Q 1172 3119 1398 2916 
Q 1625 2713 2034 2713 
Q 2441 2713 2670 2916 
Q 2900 3119 2900 3481 
Q 2900 3844 2670 4047 
Q 2441 4250 2034 4250 
Q 1625 4250 1398 4047 
Q 1172 3844 1172 3481 
z
" transform="scale(0.015625)"/>
       </defs>
       <use xlink:href="#DejaVuSans-38"/>
       <use xlink:href="#DejaVuSans-30" x="63.623047"/>
       <use xlink:href="#DejaVuSans-30" x="127.246094"/>
      </g>
     </g>
    </g>
    <g id="xtick_6">
     <g id="line2d_6">
      <g>
       <use xlink:href="#m91637d882e" x="312.90404" y="252" style="stroke: #000000; stroke-width: 0.8"/>
      </g>
     </g>
     <g id="text_6">
      <!-- 1000 -->
      <g transform="translate(300.17904 266.598437)scale(0.1 -0.1)">
       <defs>
        <path id="DejaVuSans-31" d="M 794 531 
L 1825 531 
L 1825 4091 
L 703 3866 
L 703 4441 
L 1819 4666 
L 2450 4666 
L 2450 531 
L 3481 531 
L 3481 0 
L 794 0 
L 794 531 
z
" transform="scale(0.015625)"/>
       </defs>
       <use xlink:href="#DejaVuSans-31"/>
       <use xlink:href="#DejaVuSans-30" x="63.623047"/>
       <use xlink:href="#DejaVuSans-30" x="127.246094"/>
       <use xlink:href="#DejaVuSans-30" x="190.869141"/>
      </g>
     </g>
    </g>
    <g id="xtick_7">
     <g id="line2d_7">
      <g>
       <use xlink:href="#m91637d882e" x="361.641211" y="252" style="stroke: #000000; stroke-width: 0.8"/>
      </g>
     </g>
     <g id="text_7">
      <!-- 1200 -->
      <g transform="translate(348.916211 266.598437)scale(0.1 -0.1)">
       <use xlink:href="#DejaVuSans-31"/>
       <use xlink:href="#DejaVuSans-32" x="63.623047"/>
       <use xlink:href="#DejaVuSans-30" x="127.246094"/>
       <use xlink:href="#DejaVuSans-30" x="190.869141"/>
      </g>
     </g>
    </g>
   </g>
   <g id="matplotlib.axis_2">
    <g id="ytick_1">
     <g id="line2d_8">
      <defs>
       <path id="mdfcb2ddce6" d="M 0 0 
L -3.5 0 
" style="stroke: #000000; stroke-width: 0.8"/>
      </defs>
      <g>
       <use xlink:href="#mdfcb2ddce6" x="54" y="242.248698" style="stroke: #000000; stroke-width: 0.8"/>
      </g>
     </g>
     <g id="text_8">
      <!-- 0 -->
      <g transform="translate(40.6375 246.047917)scale(0.1 -0.1)">
       <use xlink:href="#DejaVuSans-30"/>
      </g>
     </g>
    </g>
    <g id="ytick_2">
     <g id="line2d_9">
      <g>
       <use xlink:href="#mdfcb2ddce6" x="54" y="212.01441" style="stroke: #000000; stroke-width: 0.8"/>
      </g>
     </g>
     <g id="text_9">
      <!-- 5 -->
      <g transform="translate(40.6375 215.813629)scale(0.1 -0.1)">
       <defs>
        <path id="DejaVuSans-35" d="M 691 4666 
L 3169 4666 
L 3169 4134 
L 1269 4134 
L 1269 2991 
Q 1406 3038 1543 3061 
Q 1681 3084 1819 3084 
Q 2600 3084 3056 2656 
Q 3513 2228 3513 1497 
Q 3513 744 3044 326 
Q 2575 -91 1722 -91 
Q 1428 -91 1123 -41 
Q 819 9 494 109 
L 494 744 
Q 775 591 1075 516 
Q 1375 441 1709 441 
Q 2250 441 2565 725 
Q 2881 1009 2881 1497 
Q 2881 1984 2565 2268 
Q 2250 2553 1709 2553 
Q 1456 2553 1204 2497 
Q 953 2441 691 2322 
L 691 4666 
z
" transform="scale(0.015625)"/>
       </defs>
       <use xlink:href="#DejaVuSans-35"/>
      </g>
     </g>
    </g>
    <g id="ytick_3">
     <g id="line2d_10">
      <g>
       <use xlink:href="#mdfcb2ddce6" x="54" y="181.780122" style="stroke: #000000; stroke-width: 0.8"/>
      </g>
     </g>
     <g id="text_10">
      <!-- 10 -->
      <g transform="translate(34.275 185.579341)scale(0.1 -0.1)">
       <use xlink:href="#DejaVuSans-31"/>
       <use xlink:href="#DejaVuSans-30" x="63.623047"/>
      </g>
     </g>
    </g>
    <g id="ytick_4">
     <g id="line2d_11">
      <g>
       <use xlink:href="#mdfcb2ddce6" x="54" y="151.545834" style="stroke: #000000; stroke-width: 0.8"/>
      </g>
     </g>
     <g id="text_11">
      <!-- 15 -->
      <g transform="translate(34.275 155.345053)scale(0.1 -0.1)">
       <use xlink:href="#DejaVuSans-31"/>
       <use xlink:href="#DejaVuSans-35" x="63.623047"/>
      </g>
     </g>
    </g>
    <g id="ytick_5">
     <g id="line2d_12">
      <g>
       <use xlink:href="#mdfcb2ddce6" x="54" y="121.311546" style="stroke: #000000; stroke-width: 0.8"/>
      </g>
     </g>
     <g id="text_12">
      <!-- 20 -->
      <g transform="translate(34.275 125.110765)scale(0.1 -0.1)">
       <use xlink:href="#DejaVuSans-32"/>
       <use xlink:href="#DejaVuSans-30" x="63.623047"/>
      </g>
     </g>
    </g>
    <g id="ytick_6">
     <g id="line2d_13">
      <g>
       <use xlink:href="#mdfcb2ddce6" x="54" y="91.077258" style="stroke: #000000; stroke-width: 0.8"/>
      </g>
     </g>
     <g id="text_13">
      <!-- 25 -->
      <g transform="translate(34.275 94.876477)scale(0.1 -0.1)">
       <use xlink:href="#DejaVuSans-32"/>
       <use xlink:href="#DejaVuSans-35" x="63.623047"/>
      </g>
     </g>
    </g>
    <g id="ytick_7">
     <g id="line2d_14">
      <g>
       <use xlink:href="#mdfcb2ddce6" x="54" y="60.84297" style="stroke: #000000; stroke-width: 0.8"/>
      </g>
     </g>
     <g id="text_14">
      <!-- 30 -->
      <g transform="translate(34.275 64.642189)scale(0.1 -0.1)">
       <defs>
        <path id="DejaVuSans-33" d="M 2597 2516 
Q 3050 2419 3304 2112 
Q 3559 1806 3559 1356 
Q 3559 666 3084 287 
Q 2609 -91 1734 -91 
Q 1441 -91 1130 -33 
Q 819 25 488 141 
L 488 750 
Q 750 597 1062 519 
Q 1375 441 1716 441 
Q 2309 441 2620 675 
Q 2931 909 2931 1356 
Q 2931 1769 2642 2001 
Q 2353 2234 1838 2234 
L 1294 2234 
L 1294 2753 
L 1863 2753 
Q 2328 2753 2575 2939 
Q 2822 3125 2822 3475 
Q 2822 3834 2567 4026 
Q 2313 4219 1838 4219 
Q 1578 4219 1281 4162 
Q 984 4106 628 3988 
L 628 4550 
Q 988 4650 1302 4700 
Q 1616 4750 1894 4750 
Q 2613 4750 3031 4423 
Q 3450 4097 3450 3541 
Q 3450 3153 3228 2886 
Q 3006 2619 2597 2516 
z
" transform="scale(0.015625)"/>
       </defs>
       <use xlink:href="#DejaVuSans-33"/>
       <use xlink:href="#DejaVuSans-30" x="63.623047"/>
      </g>
     </g>
    </g>
   </g>
   <g id="line2d_15">
    <path d="M 69.218182 225.192068 
L 75.7977 224.853181 
L 82.86459 224.709049 
L 104.796317 224.414634 
L 110.644778 223.966807 
L 116.493238 223.286097 
L 123.316442 222.256978 
L 140.130766 219.618429 
L 145.491855 219.059165 
L 150.365572 218.784818 
L 156.457719 218.47691 
L 157.919834 218.171405 
L 159.138263 217.709995 
L 160.113007 217.137136 
L 161.08775 216.329844 
L 162.062494 215.246767 
L 163.037237 213.859674 
L 164.255666 211.690005 
L 165.717781 208.54837 
L 169.129384 200.836945 
L 170.104127 199.216252 
L 170.835185 198.353633 
L 171.566242 197.853845 
L 172.053614 197.742134 
L 172.540986 197.816926 
L 173.028357 198.08211 
L 173.759415 198.836002 
L 174.490472 200.001878 
L 175.465216 202.136643 
L 176.683645 205.560321 
L 178.389446 211.204399 
L 181.069991 220.105836 
L 182.532106 224.115755 
L 183.750535 226.745279 
L 184.725278 228.350558 
L 185.700022 229.535426 
L 186.674765 230.353836 
L 187.649509 230.881858 
L 188.867938 231.247715 
L 190.330053 231.428884 
L 192.766912 231.462291 
L 201.539603 231.201869 
L 208.850178 230.796496 
L 216.891812 230.112239 
L 240.285654 227.950556 
L 247.352544 227.611816 
L 254.906805 227.463877 
L 278.78802 227.173267 
L 285.123852 226.738529 
L 291.459684 226.071988 
L 296.333401 225.357967 
L 299.501317 224.693877 
L 302.912919 223.734444 
L 307.055579 222.48949 
L 308.274008 222.404473 
L 310.954553 222.363362 
L 311.68561 222.211318 
L 312.172982 221.940399 
L 312.660354 221.452003 
L 313.147725 220.662806 
L 313.635097 219.524182 
L 314.366155 217.130428 
L 315.097212 213.907105 
L 316.071956 208.362575 
L 317.290385 199.810813 
L 319.727244 181.912469 
L 320.458301 177.877374 
L 321.189359 175.060262 
L 321.67673 173.967796 
L 322.164102 173.539665 
L 322.407788 173.57721 
L 322.651474 173.780444 
L 323.138846 174.665524 
L 323.626217 176.142907 
L 324.357275 179.307673 
L 325.332018 184.835845 
L 329.718364 211.954804 
L 330.693107 216.223796 
L 331.667851 219.601296 
L 332.642594 222.168628 
L 333.617338 224.03136 
L 334.592081 225.30628 
L 335.323139 225.950018 
L 336.297882 226.481134 
L 337.516311 226.805651 
L 338.978426 226.929656 
L 341.415285 226.875396 
L 346.045316 226.502862 
L 354.08695 225.901782 
L 361.153839 225.601226 
L 369.195473 225.497498 
L 373.581818 225.497923 
L 373.581818 225.497923 
" clip-path="url(#p74266659c6)" style="fill: none; stroke: #1f77b4; stroke-width: 1.5; stroke-linecap: square"/>
   </g>
   <g id="line2d_16">
    <path d="M 69.218182 241.671087 
L 108.451605 241.568822 
L 146.95397 241.490903 
L 154.751918 241.399331 
L 157.676148 241.151193 
L 160.113007 240.726883 
L 162.793551 240.014174 
L 167.667268 238.613276 
L 169.373069 238.411302 
L 170.835185 238.471733 
L 172.2973 238.753247 
L 174.490472 239.445373 
L 176.683645 240.073706 
L 178.14576 240.262702 
L 180.095247 240.26754 
L 184.481593 240.223487 
L 198.128001 240.522007 
L 213.723895 240.34147 
L 246.865172 239.935217 
L 288.535454 239.685614 
L 309.248752 239.175272 
L 310.710867 238.933791 
L 312.172982 238.469124 
L 314.122469 237.575955 
L 316.315642 236.589821 
L 317.777757 236.193586 
L 318.996186 236.103942 
L 320.214615 236.239075 
L 321.67673 236.649336 
L 323.869903 237.553542 
L 327.037819 238.833908 
L 328.987306 239.379677 
L 331.180479 239.747977 
L 333.861023 239.944289 
L 338.247369 240.004001 
L 373.581818 239.906723 
L 373.581818 239.906723 
" clip-path="url(#p74266659c6)" style="fill: none; stroke: #ff7f0e; stroke-width: 1.5; stroke-linecap: square"/>
   </g>
   <g id="line2d_17">
    <path d="M 69.218182 239.390449 
L 88.956736 239.041994 
L 108.451605 238.98177 
L 127.215416 238.855773 
L 141.592882 238.493705 
L 159.381949 237.844206 
L 160.844064 237.561161 
L 162.062494 237.130106 
L 163.037237 236.614432 
L 164.255666 235.779887 
L 165.717781 234.450648 
L 168.885698 231.332337 
L 169.860441 230.731476 
L 170.591499 230.495808 
L 171.322556 230.471769 
L 172.053614 230.667669 
L 172.784671 231.075581 
L 173.759415 231.908435 
L 174.977844 233.279564 
L 177.902074 236.727303 
L 179.120504 237.751324 
L 180.095247 238.313778 
L 181.313676 238.735446 
L 182.775792 238.954901 
L 184.725278 238.980073 
L 206.169634 238.354536 
L 219.816042 238.173604 
L 256.856292 237.864671 
L 271.72113 237.320223 
L 286.829653 236.842631 
L 298.039202 236.529549 
L 299.745003 236.220075 
L 301.207118 235.719856 
L 302.425548 235.066199 
L 303.643977 234.157923 
L 304.862406 232.93121 
L 306.080836 231.385093 
L 307.542951 229.166785 
L 312.660354 220.971452 
L 313.635097 220.011053 
L 314.366155 219.552537 
L 315.097212 219.345731 
L 315.82827 219.403735 
L 316.559327 219.72698 
L 317.290385 220.302648 
L 318.265128 221.416452 
L 319.483558 223.22727 
L 323.138846 229.090403 
L 324.113589 230.207944 
L 325.088332 231.020873 
L 326.063076 231.547014 
L 327.037819 231.84064 
L 328.256249 231.987522 
L 330.449421 231.972116 
L 342.633714 231.396698 
L 351.650091 230.616195 
L 368.220729 229.145622 
L 373.581818 228.825359 
L 373.581818 228.825359 
" clip-path="url(#p74266659c6)" style="fill: none; stroke: #2ca02c; stroke-width: 1.5; stroke-linecap: square"/>
   </g>
   <g id="line2d_18">
    <path d="M 69.218182 240.593022 
L 95.292569 240.539502 
L 115.031123 240.422811 
L 157.432462 239.809633 
L 159.381949 239.536582 
L 160.844064 239.123852 
L 162.306179 238.470516 
L 163.768295 237.567533 
L 165.717781 236.069419 
L 167.910954 234.419102 
L 169.129384 233.776972 
L 170.104127 233.512151 
L 171.07887 233.51537 
L 172.053614 233.806492 
L 173.028357 234.364309 
L 174.246787 235.348016 
L 177.902074 238.600631 
L 178.876818 239.139321 
L 179.851561 239.457157 
L 181.069991 239.610125 
L 183.506849 239.59934 
L 186.431079 239.613173 
L 197.884315 239.721796 
L 213.236524 239.434769 
L 236.630366 239.001903 
L 253.44469 238.934388 
L 274.401674 238.828646 
L 288.048082 238.500979 
L 302.669234 237.958571 
L 304.375035 237.665086 
L 306.080836 237.145525 
L 307.542951 236.452073 
L 309.005066 235.511873 
L 310.954553 233.974019 
L 313.635097 231.885151 
L 314.853526 231.213279 
L 315.82827 230.892259 
L 316.803013 230.795372 
L 317.777757 230.930298 
L 318.7525 231.283905 
L 319.970929 231.983898 
L 321.67673 233.277366 
L 324.844647 235.766735 
L 326.306762 236.643627 
L 327.768877 237.258587 
L 329.230992 237.614923 
L 330.936793 237.774994 
L 333.617338 237.771413 
L 348.482175 237.318878 
L 361.397525 237.051654 
L 373.581818 236.991746 
L 373.581818 236.991746 
" clip-path="url(#p74266659c6)" style="fill: none; stroke: #d62728; stroke-width: 1.5; stroke-linecap: square"/>
   </g>
   <g id="line2d_19">
    <path d="M 69.218182 162.908935 
L 70.436611 161.843752 
L 71.65504 161.05899 
L 73.360841 160.257091 
L 75.310328 159.601744 
L 77.747187 159.038223 
L 80.427731 158.661687 
L 83.595647 158.4567 
L 87.981993 158.426598 
L 92.612024 158.609573 
L 99.191542 158.944967 
L 103.334202 158.921338 
L 107.964233 158.454289 
L 110.401092 158.011331 
L 112.594265 157.384073 
L 115.274809 156.378562 
L 118.442725 154.945389 
L 121.12327 153.486502 
L 123.560128 151.912476 
L 126.728044 149.573671 
L 135.988107 142.572337 
L 139.156023 140.496431 
L 142.080253 138.838351 
L 145.248169 137.32496 
L 147.441342 136.491688 
L 148.903457 136.20646 
L 151.09663 136.077021 
L 154.508232 136.133679 
L 160.356693 136.271377 
L 163.768295 136.111332 
L 166.448839 135.758085 
L 168.398326 135.553767 
L 169.373069 135.635123 
L 170.347813 135.910787 
L 171.322556 136.419284 
L 172.053614 137.055998 
L 172.784671 138.006054 
L 173.759415 139.684951 
L 175.22153 142.69182 
L 177.902074 148.32824 
L 179.120504 150.308274 
L 180.095247 151.448579 
L 180.826305 152.020803 
L 181.557362 152.351375 
L 182.28842 152.452909 
L 183.019477 152.345798 
L 183.994221 151.921797 
L 184.968964 151.233691 
L 186.187394 150.090113 
L 187.893195 148.121708 
L 190.086367 145.215388 
L 195.447456 137.948976 
L 196.909571 136.362141 
L 198.371686 135.107115 
L 199.590116 134.342206 
L 200.808545 133.833251 
L 202.026974 133.562346 
L 203.489089 133.492863 
L 206.169634 133.688882 
L 208.119121 133.715667 
L 210.068608 133.507538 
L 212.018094 133.05196 
L 214.454953 132.23075 
L 218.110241 130.734846 
L 220.303414 129.654177 
L 221.765529 128.699642 
L 222.983958 127.626517 
L 224.202387 126.188379 
L 225.420817 124.372983 
L 229.076105 118.599039 
L 230.294534 117.280323 
L 231.756649 116.097711 
L 233.218764 114.872677 
L 233.949822 113.977556 
L 234.680879 112.652676 
L 235.411937 110.654863 
L 236.142994 107.722606 
L 236.874052 103.59118 
L 237.60511 97.956256 
L 238.336167 90.449768 
L 239.310911 77.214767 
L 240.773026 55.523718 
L 241.504083 48.455372 
L 241.991455 45.830145 
L 242.478827 44.621463 
L 242.722513 44.443636 
L 242.966198 44.496659 
L 243.209884 44.746014 
L 243.697256 45.722759 
L 244.428314 48.097452 
L 245.159371 51.310884 
L 246.134115 56.729387 
L 247.108858 63.436767 
L 248.327287 73.639075 
L 252.226261 108.889705 
L 252.957319 112.922328 
L 253.688376 115.58305 
L 254.175748 116.768352 
L 254.66312 117.493745 
L 255.150491 117.735434 
L 255.394177 117.675296 
L 255.881549 117.214611 
L 256.368921 116.347923 
L 257.099978 114.43488 
L 258.074722 111.084533 
L 259.780523 104.188736 
L 261.730009 96.448936 
L 262.948439 92.399582 
L 263.923182 89.788853 
L 264.897926 87.767275 
L 265.872669 86.300347 
L 266.847412 85.318399 
L 267.822156 84.738127 
L 268.796899 84.477218 
L 269.771643 84.461723 
L 270.990072 84.691884 
L 272.695873 85.301341 
L 276.838533 86.946521 
L 278.300648 87.217584 
L 279.519077 87.224323 
L 280.981192 86.977397 
L 283.905423 86.311931 
L 284.63648 86.37232 
L 285.367538 86.650479 
L 286.098595 87.212536 
L 286.829653 88.112283 
L 287.56071 89.38051 
L 288.535454 91.650698 
L 289.510197 94.617381 
L 290.241255 97.461017 
L 290.972312 101.041667 
L 291.947056 106.924053 
L 296.089715 133.556948 
L 296.820773 136.588262 
L 297.308145 137.971558 
L 297.795516 138.790372 
L 298.039202 138.978562 
L 298.282888 139.015631 
L 298.526574 138.899453 
L 299.013946 138.200186 
L 299.501317 136.867308 
L 299.988689 134.886608 
L 300.719747 130.663427 
L 301.450804 124.884544 
L 302.425548 114.77387 
L 305.106092 83.455897 
L 305.83715 78.791265 
L 306.324521 76.985007 
L 306.811893 76.028196 
L 307.299265 75.724974 
L 307.786637 75.898597 
L 308.274008 76.406467 
L 309.005066 77.566102 
L 310.467181 80.5068 
L 312.172982 83.863982 
L 313.147725 85.391981 
L 313.878783 86.25266 
L 314.609841 86.823643 
L 315.340898 87.076076 
L 315.82827 87.058675 
L 316.559327 86.74996 
L 317.290385 86.108402 
L 318.021443 85.153486 
L 318.996186 83.449946 
L 320.214615 80.782199 
L 322.651474 74.657819 
L 324.357275 70.699251 
L 325.575704 68.451633 
L 326.550448 67.13397 
L 327.281505 66.466745 
L 328.012563 66.094592 
L 328.74362 66.028834 
L 329.474678 66.275211 
L 330.205735 66.83428 
L 330.936793 67.70167 
L 331.911537 69.321082 
L 332.88628 71.435384 
L 334.104709 74.689368 
L 335.566824 79.284127 
L 338.978426 91.108908 
L 345.314259 113.273269 
L 347.02006 120.502667 
L 348.725861 128.89915 
L 352.137463 146.423482 
L 353.112206 150.394936 
L 353.843264 152.718912 
L 354.574321 154.304177 
L 355.061693 154.90485 
L 355.549065 155.154297 
L 356.036436 155.09959 
L 356.523808 154.803359 
L 357.254866 154.039523 
L 358.473295 152.288584 
L 360.666468 148.585575 
L 363.103326 144.04752 
L 364.809127 140.450138 
L 366.271242 136.89162 
L 367.489672 133.402746 
L 368.464415 130.010277 
L 369.439159 125.697092 
L 370.413902 120.098638 
L 371.388645 113.067568 
L 372.607075 102.340028 
L 373.581818 92.670481 
L 373.581818 92.670481 
" clip-path="url(#p74266659c6)" style="fill: none; stroke: #9467bd; stroke-width: 1.5; stroke-linecap: square"/>
   </g>
   <g id="line2d_20">
    <path d="M 69.218182 199.120306 
L 73.360841 198.40136 
L 77.503501 197.912008 
L 81.889846 197.617214 
L 87.250935 197.492241 
L 101.872087 197.307147 
L 105.77106 196.952226 
L 109.426348 196.405897 
L 113.081636 195.627334 
L 116.736924 194.609946 
L 120.635898 193.283489 
L 125.265929 191.462885 
L 140.861824 185.099852 
L 144.517112 183.999988 
L 147.685028 183.27195 
L 150.609258 182.812686 
L 153.533489 182.574756 
L 156.945091 182.54183 
L 160.600378 182.486614 
L 162.306179 182.218127 
L 163.768295 181.740997 
L 165.23041 181.00062 
L 169.373069 178.619524 
L 170.104127 178.531776 
L 170.835185 178.674498 
L 171.566242 179.093215 
L 172.2973 179.822288 
L 173.028357 180.881259 
L 174.003101 182.807746 
L 174.977844 185.278261 
L 176.196273 188.979256 
L 181.313676 205.475227 
L 182.532106 208.229788 
L 183.506849 209.934664 
L 184.481593 211.219967 
L 185.456336 212.135977 
L 186.431079 212.74622 
L 187.405823 213.116032 
L 188.624252 213.329494 
L 190.086367 213.340456 
L 192.035854 213.114337 
L 195.20377 212.482998 
L 201.539603 210.936136 
L 213.48021 207.990572 
L 218.353927 207.043309 
L 223.227644 206.333039 
L 228.588733 205.77973 
L 233.46245 205.496421 
L 239.798282 205.376022 
L 253.688376 205.179843 
L 258.074722 204.842941 
L 261.730009 204.334198 
L 265.385297 203.591317 
L 269.527957 202.50917 
L 274.64536 200.936556 
L 280.737506 198.820025 
L 288.535454 196.115874 
L 292.678113 194.954623 
L 296.577087 194.083209 
L 304.375035 192.503371 
L 305.83715 191.895858 
L 307.299265 191.044166 
L 308.76138 189.93905 
L 312.416668 186.960226 
L 313.391411 186.542074 
L 314.122469 186.465996 
L 314.853526 186.641461 
L 315.584584 187.102373 
L 316.315642 187.870862 
L 317.046699 188.955172 
L 318.021443 190.878518 
L 318.996186 193.293501 
L 320.458301 197.616837 
L 324.844647 211.34304 
L 326.063076 214.314163 
L 327.281505 216.69095 
L 328.256249 218.170212 
L 329.230992 219.3107 
L 330.205735 220.16268 
L 331.424165 220.906504 
L 332.642594 221.388181 
L 334.104709 221.736071 
L 336.054196 221.969758 
L 338.978426 222.083085 
L 343.364772 222.024291 
L 347.507431 221.761235 
L 351.893777 221.245053 
L 358.473295 220.249627 
L 370.901274 217.998728 
L 373.581818 217.473089 
L 373.581818 217.473089 
" clip-path="url(#p74266659c6)" style="fill: none; stroke: #8c564b; stroke-width: 1.5; stroke-linecap: square"/>
   </g>
   <g id="line2d_21">
    <path d="M 69.218182 242.116364 
L 154.264546 241.960812 
L 168.398326 241.740821 
L 177.658389 241.912299 
L 185.21265 241.941733 
L 200.077487 242.069382 
L 237.117738 241.975113 
L 267.334784 241.809439 
L 302.425548 241.638675 
L 307.299265 241.631412 
L 312.660354 241.645475 
L 314.853526 241.266948 
L 318.021443 240.719664 
L 319.970929 240.612673 
L 322.164102 240.727604 
L 332.88628 241.682382 
L 337.759997 241.771896 
L 366.271242 241.721368 
L 373.581818 241.717087 
L 373.581818 241.717087 
" clip-path="url(#p74266659c6)" style="fill: none; stroke: #e377c2; stroke-width: 1.5; stroke-linecap: square"/>
   </g>
   <g id="patch_3">
    <path d="M 54 252 
L 54 34.56 
" style="fill: none; stroke: #000000; stroke-width: 0.8; stroke-linejoin: miter; stroke-linecap: square"/>
   </g>
   <g id="patch_4">
    <path d="M 388.8 252 
L 388.8 34.56 
" style="fill: none; stroke: #000000; stroke-width: 0.8; stroke-linejoin: miter; stroke-linecap: square"/>
   </g>
   <g id="patch_5">
    <path d="M 54 252 
L 388.8 252 
" style="fill: none; stroke: #000000; stroke-width: 0.8; stroke-linejoin: miter; stroke-linecap: square"/>
   </g>
   <g id="patch_6">
    <path d="M 54 34.56 
L 388.8 34.56 
" style="fill: none; stroke: #000000; stroke-width: 0.8; stroke-linejoin: miter; stroke-linecap: square"/>
   </g>
   <g id="legend_1">
    <g id="patch_7">
     <path d="M 61 145.585 
L 137.267188 145.585 
Q 139.267188 145.585 139.267188 143.585 
L 139.267188 41.56 
Q 139.267188 39.56 137.267188 39.56 
L 61 39.56 
Q 59 39.56 59 41.56 
L 59 143.585 
Q 59 145.585 61 145.585 
z
" style="fill: #ffffff; opacity: 0.8; stroke: #cccccc; stroke-linejoin: miter"/>
    </g>
    <g id="line2d_22">
     <path d="M 63 47.658437 
L 73 47.658437 
L 83 47.658437 
" style="fill: none; stroke: #1f77b4; stroke-width: 1.5; stroke-linecap: square"/>
    </g>
    <g id="text_15">
     <!-- elu -->
     <g transform="translate(91 51.158437)scale(0.1 -0.1)">
      <defs>
       <path id="DejaVuSans-65" d="M 3597 1894 
L 3597 1613 
L 953 1613 
Q 991 1019 1311 708 
Q 1631 397 2203 397 
Q 2534 397 2845 478 
Q 3156 559 3463 722 
L 3463 178 
Q 3153 47 2828 -22 
Q 2503 -91 2169 -91 
Q 1331 -91 842 396 
Q 353 884 353 1716 
Q 353 2575 817 3079 
Q 1281 3584 2069 3584 
Q 2775 3584 3186 3129 
Q 3597 2675 3597 1894 
z
M 3022 2063 
Q 3016 2534 2758 2815 
Q 2500 3097 2075 3097 
Q 1594 3097 1305 2825 
Q 1016 2553 972 2059 
L 3022 2063 
z
" transform="scale(0.015625)"/>
       <path id="DejaVuSans-6c" d="M 603 4863 
L 1178 4863 
L 1178 0 
L 603 0 
L 603 4863 
z
" transform="scale(0.015625)"/>
       <path id="DejaVuSans-75" d="M 544 1381 
L 544 3500 
L 1119 3500 
L 1119 1403 
Q 1119 906 1312 657 
Q 1506 409 1894 409 
Q 2359 409 2629 706 
Q 2900 1003 2900 1516 
L 2900 3500 
L 3475 3500 
L 3475 0 
L 2900 0 
L 2900 538 
Q 2691 219 2414 64 
Q 2138 -91 1772 -91 
Q 1169 -91 856 284 
Q 544 659 544 1381 
z
M 1991 3584 
L 1991 3584 
z
" transform="scale(0.015625)"/>
      </defs>
      <use xlink:href="#DejaVuSans-65"/>
      <use xlink:href="#DejaVuSans-6c" x="61.523438"/>
      <use xlink:href="#DejaVuSans-75" x="89.306641"/>
     </g>
    </g>
    <g id="line2d_23">
     <path d="M 63 62.336563 
L 73 62.336563 
L 83 62.336563 
" style="fill: none; stroke: #ff7f0e; stroke-width: 1.5; stroke-linecap: square"/>
    </g>
    <g id="text_16">
     <!-- soft_plus -->
     <g transform="translate(91 65.836563)scale(0.1 -0.1)">
      <defs>
       <path id="DejaVuSans-73" d="M 2834 3397 
L 2834 2853 
Q 2591 2978 2328 3040 
Q 2066 3103 1784 3103 
Q 1356 3103 1142 2972 
Q 928 2841 928 2578 
Q 928 2378 1081 2264 
Q 1234 2150 1697 2047 
L 1894 2003 
Q 2506 1872 2764 1633 
Q 3022 1394 3022 966 
Q 3022 478 2636 193 
Q 2250 -91 1575 -91 
Q 1294 -91 989 -36 
Q 684 19 347 128 
L 347 722 
Q 666 556 975 473 
Q 1284 391 1588 391 
Q 1994 391 2212 530 
Q 2431 669 2431 922 
Q 2431 1156 2273 1281 
Q 2116 1406 1581 1522 
L 1381 1569 
Q 847 1681 609 1914 
Q 372 2147 372 2553 
Q 372 3047 722 3315 
Q 1072 3584 1716 3584 
Q 2034 3584 2315 3537 
Q 2597 3491 2834 3397 
z
" transform="scale(0.015625)"/>
       <path id="DejaVuSans-6f" d="M 1959 3097 
Q 1497 3097 1228 2736 
Q 959 2375 959 1747 
Q 959 1119 1226 758 
Q 1494 397 1959 397 
Q 2419 397 2687 759 
Q 2956 1122 2956 1747 
Q 2956 2369 2687 2733 
Q 2419 3097 1959 3097 
z
M 1959 3584 
Q 2709 3584 3137 3096 
Q 3566 2609 3566 1747 
Q 3566 888 3137 398 
Q 2709 -91 1959 -91 
Q 1206 -91 779 398 
Q 353 888 353 1747 
Q 353 2609 779 3096 
Q 1206 3584 1959 3584 
z
" transform="scale(0.015625)"/>
       <path id="DejaVuSans-66" d="M 2375 4863 
L 2375 4384 
L 1825 4384 
Q 1516 4384 1395 4259 
Q 1275 4134 1275 3809 
L 1275 3500 
L 2222 3500 
L 2222 3053 
L 1275 3053 
L 1275 0 
L 697 0 
L 697 3053 
L 147 3053 
L 147 3500 
L 697 3500 
L 697 3744 
Q 697 4328 969 4595 
Q 1241 4863 1831 4863 
L 2375 4863 
z
" transform="scale(0.015625)"/>
       <path id="DejaVuSans-74" d="M 1172 4494 
L 1172 3500 
L 2356 3500 
L 2356 3053 
L 1172 3053 
L 1172 1153 
Q 1172 725 1289 603 
Q 1406 481 1766 481 
L 2356 481 
L 2356 0 
L 1766 0 
Q 1100 0 847 248 
Q 594 497 594 1153 
L 594 3053 
L 172 3053 
L 172 3500 
L 594 3500 
L 594 4494 
L 1172 4494 
z
" transform="scale(0.015625)"/>
       <path id="DejaVuSans-5f" d="M 3263 -1063 
L 3263 -1509 
L -63 -1509 
L -63 -1063 
L 3263 -1063 
z
" transform="scale(0.015625)"/>
       <path id="DejaVuSans-70" d="M 1159 525 
L 1159 -1331 
L 581 -1331 
L 581 3500 
L 1159 3500 
L 1159 2969 
Q 1341 3281 1617 3432 
Q 1894 3584 2278 3584 
Q 2916 3584 3314 3078 
Q 3713 2572 3713 1747 
Q 3713 922 3314 415 
Q 2916 -91 2278 -91 
Q 1894 -91 1617 61 
Q 1341 213 1159 525 
z
M 3116 1747 
Q 3116 2381 2855 2742 
Q 2594 3103 2138 3103 
Q 1681 3103 1420 2742 
Q 1159 2381 1159 1747 
Q 1159 1113 1420 752 
Q 1681 391 2138 391 
Q 2594 391 2855 752 
Q 3116 1113 3116 1747 
z
" transform="scale(0.015625)"/>
      </defs>
      <use xlink:href="#DejaVuSans-73"/>
      <use xlink:href="#DejaVuSans-6f" x="52.099609"/>
      <use xlink:href="#DejaVuSans-66" x="113.28125"/>
      <use xlink:href="#DejaVuSans-74" x="146.736328"/>
      <use xlink:href="#DejaVuSans-5f" x="185.945312"/>
      <use xlink:href="#DejaVuSans-70" x="235.945312"/>
      <use xlink:href="#DejaVuSans-6c" x="299.421875"/>
      <use xlink:href="#DejaVuSans-75" x="327.205078"/>
      <use xlink:href="#DejaVuSans-73" x="390.583984"/>
     </g>
    </g>
    <g id="line2d_24">
     <path d="M 63 77.292812 
L 73 77.292812 
L 83 77.292812 
" style="fill: none; stroke: #2ca02c; stroke-width: 1.5; stroke-linecap: square"/>
    </g>
    <g id="text_17">
     <!-- prelu -->
     <g transform="translate(91 80.792812)scale(0.1 -0.1)">
      <defs>
       <path id="DejaVuSans-72" d="M 2631 2963 
Q 2534 3019 2420 3045 
Q 2306 3072 2169 3072 
Q 1681 3072 1420 2755 
Q 1159 2438 1159 1844 
L 1159 0 
L 581 0 
L 581 3500 
L 1159 3500 
L 1159 2956 
Q 1341 3275 1631 3429 
Q 1922 3584 2338 3584 
Q 2397 3584 2469 3576 
Q 2541 3569 2628 3553 
L 2631 2963 
z
" transform="scale(0.015625)"/>
      </defs>
      <use xlink:href="#DejaVuSans-70"/>
      <use xlink:href="#DejaVuSans-72" x="63.476562"/>
      <use xlink:href="#DejaVuSans-65" x="102.339844"/>
      <use xlink:href="#DejaVuSans-6c" x="163.863281"/>
      <use xlink:href="#DejaVuSans-75" x="191.646484"/>
     </g>
    </g>
    <g id="line2d_25">
     <path d="M 63 91.970937 
L 73 91.970937 
L 83 91.970937 
" style="fill: none; stroke: #d62728; stroke-width: 1.5; stroke-linecap: square"/>
    </g>
    <g id="text_18">
     <!-- relu -->
     <g transform="translate(91 95.470937)scale(0.1 -0.1)">
      <use xlink:href="#DejaVuSans-72"/>
      <use xlink:href="#DejaVuSans-65" x="38.863281"/>
      <use xlink:href="#DejaVuSans-6c" x="100.386719"/>
      <use xlink:href="#DejaVuSans-75" x="128.169922"/>
     </g>
    </g>
    <g id="line2d_26">
     <path d="M 63 106.649062 
L 73 106.649062 
L 83 106.649062 
" style="fill: none; stroke: #9467bd; stroke-width: 1.5; stroke-linecap: square"/>
    </g>
    <g id="text_19">
     <!-- tanh -->
     <g transform="translate(91 110.149062)scale(0.1 -0.1)">
      <defs>
       <path id="DejaVuSans-61" d="M 2194 1759 
Q 1497 1759 1228 1600 
Q 959 1441 959 1056 
Q 959 750 1161 570 
Q 1363 391 1709 391 
Q 2188 391 2477 730 
Q 2766 1069 2766 1631 
L 2766 1759 
L 2194 1759 
z
M 3341 1997 
L 3341 0 
L 2766 0 
L 2766 531 
Q 2569 213 2275 61 
Q 1981 -91 1556 -91 
Q 1019 -91 701 211 
Q 384 513 384 1019 
Q 384 1609 779 1909 
Q 1175 2209 1959 2209 
L 2766 2209 
L 2766 2266 
Q 2766 2663 2505 2880 
Q 2244 3097 1772 3097 
Q 1472 3097 1187 3025 
Q 903 2953 641 2809 
L 641 3341 
Q 956 3463 1253 3523 
Q 1550 3584 1831 3584 
Q 2591 3584 2966 3190 
Q 3341 2797 3341 1997 
z
" transform="scale(0.015625)"/>
       <path id="DejaVuSans-6e" d="M 3513 2113 
L 3513 0 
L 2938 0 
L 2938 2094 
Q 2938 2591 2744 2837 
Q 2550 3084 2163 3084 
Q 1697 3084 1428 2787 
Q 1159 2491 1159 1978 
L 1159 0 
L 581 0 
L 581 3500 
L 1159 3500 
L 1159 2956 
Q 1366 3272 1645 3428 
Q 1925 3584 2291 3584 
Q 2894 3584 3203 3211 
Q 3513 2838 3513 2113 
z
" transform="scale(0.015625)"/>
       <path id="DejaVuSans-68" d="M 3513 2113 
L 3513 0 
L 2938 0 
L 2938 2094 
Q 2938 2591 2744 2837 
Q 2550 3084 2163 3084 
Q 1697 3084 1428 2787 
Q 1159 2491 1159 1978 
L 1159 0 
L 581 0 
L 581 4863 
L 1159 4863 
L 1159 2956 
Q 1366 3272 1645 3428 
Q 1925 3584 2291 3584 
Q 2894 3584 3203 3211 
Q 3513 2838 3513 2113 
z
" transform="scale(0.015625)"/>
      </defs>
      <use xlink:href="#DejaVuSans-74"/>
      <use xlink:href="#DejaVuSans-61" x="39.208984"/>
      <use xlink:href="#DejaVuSans-6e" x="100.488281"/>
      <use xlink:href="#DejaVuSans-68" x="163.867188"/>
     </g>
    </g>
    <g id="line2d_27">
     <path d="M 63 121.327187 
L 73 121.327187 
L 83 121.327187 
" style="fill: none; stroke: #8c564b; stroke-width: 1.5; stroke-linecap: square"/>
    </g>
    <g id="text_20">
     <!-- sigmoid -->
     <g transform="translate(91 124.827187)scale(0.1 -0.1)">
      <defs>
       <path id="DejaVuSans-69" d="M 603 3500 
L 1178 3500 
L 1178 0 
L 603 0 
L 603 3500 
z
M 603 4863 
L 1178 4863 
L 1178 4134 
L 603 4134 
L 603 4863 
z
" transform="scale(0.015625)"/>
       <path id="DejaVuSans-67" d="M 2906 1791 
Q 2906 2416 2648 2759 
Q 2391 3103 1925 3103 
Q 1463 3103 1205 2759 
Q 947 2416 947 1791 
Q 947 1169 1205 825 
Q 1463 481 1925 481 
Q 2391 481 2648 825 
Q 2906 1169 2906 1791 
z
M 3481 434 
Q 3481 -459 3084 -895 
Q 2688 -1331 1869 -1331 
Q 1566 -1331 1297 -1286 
Q 1028 -1241 775 -1147 
L 775 -588 
Q 1028 -725 1275 -790 
Q 1522 -856 1778 -856 
Q 2344 -856 2625 -561 
Q 2906 -266 2906 331 
L 2906 616 
Q 2728 306 2450 153 
Q 2172 0 1784 0 
Q 1141 0 747 490 
Q 353 981 353 1791 
Q 353 2603 747 3093 
Q 1141 3584 1784 3584 
Q 2172 3584 2450 3431 
Q 2728 3278 2906 2969 
L 2906 3500 
L 3481 3500 
L 3481 434 
z
" transform="scale(0.015625)"/>
       <path id="DejaVuSans-6d" d="M 3328 2828 
Q 3544 3216 3844 3400 
Q 4144 3584 4550 3584 
Q 5097 3584 5394 3201 
Q 5691 2819 5691 2113 
L 5691 0 
L 5113 0 
L 5113 2094 
Q 5113 2597 4934 2840 
Q 4756 3084 4391 3084 
Q 3944 3084 3684 2787 
Q 3425 2491 3425 1978 
L 3425 0 
L 2847 0 
L 2847 2094 
Q 2847 2600 2669 2842 
Q 2491 3084 2119 3084 
Q 1678 3084 1418 2786 
Q 1159 2488 1159 1978 
L 1159 0 
L 581 0 
L 581 3500 
L 1159 3500 
L 1159 2956 
Q 1356 3278 1631 3431 
Q 1906 3584 2284 3584 
Q 2666 3584 2933 3390 
Q 3200 3197 3328 2828 
z
" transform="scale(0.015625)"/>
       <path id="DejaVuSans-64" d="M 2906 2969 
L 2906 4863 
L 3481 4863 
L 3481 0 
L 2906 0 
L 2906 525 
Q 2725 213 2448 61 
Q 2172 -91 1784 -91 
Q 1150 -91 751 415 
Q 353 922 353 1747 
Q 353 2572 751 3078 
Q 1150 3584 1784 3584 
Q 2172 3584 2448 3432 
Q 2725 3281 2906 2969 
z
M 947 1747 
Q 947 1113 1208 752 
Q 1469 391 1925 391 
Q 2381 391 2643 752 
Q 2906 1113 2906 1747 
Q 2906 2381 2643 2742 
Q 2381 3103 1925 3103 
Q 1469 3103 1208 2742 
Q 947 2381 947 1747 
z
" transform="scale(0.015625)"/>
      </defs>
      <use xlink:href="#DejaVuSans-73"/>
      <use xlink:href="#DejaVuSans-69" x="52.099609"/>
      <use xlink:href="#DejaVuSans-67" x="79.882812"/>
      <use xlink:href="#DejaVuSans-6d" x="143.359375"/>
      <use xlink:href="#DejaVuSans-6f" x="240.771484"/>
      <use xlink:href="#DejaVuSans-69" x="301.953125"/>
      <use xlink:href="#DejaVuSans-64" x="329.736328"/>
     </g>
    </g>
    <g id="line2d_28">
     <path d="M 63 136.005313 
L 73 136.005313 
L 83 136.005313 
" style="fill: none; stroke: #e377c2; stroke-width: 1.5; stroke-linecap: square"/>
    </g>
    <g id="text_21">
     <!-- boosting -->
     <g transform="translate(91 139.505313)scale(0.1 -0.1)">
      <defs>
       <path id="DejaVuSans-62" d="M 3116 1747 
Q 3116 2381 2855 2742 
Q 2594 3103 2138 3103 
Q 1681 3103 1420 2742 
Q 1159 2381 1159 1747 
Q 1159 1113 1420 752 
Q 1681 391 2138 391 
Q 2594 391 2855 752 
Q 3116 1113 3116 1747 
z
M 1159 2969 
Q 1341 3281 1617 3432 
Q 1894 3584 2278 3584 
Q 2916 3584 3314 3078 
Q 3713 2572 3713 1747 
Q 3713 922 3314 415 
Q 2916 -91 2278 -91 
Q 1894 -91 1617 61 
Q 1341 213 1159 525 
L 1159 0 
L 581 0 
L 581 4863 
L 1159 4863 
L 1159 2969 
z
" transform="scale(0.015625)"/>
      </defs>
      <use xlink:href="#DejaVuSans-62"/>
      <use xlink:href="#DejaVuSans-6f" x="63.476562"/>
      <use xlink:href="#DejaVuSans-6f" x="124.658203"/>
      <use xlink:href="#DejaVuSans-73" x="185.839844"/>
      <use xlink:href="#DejaVuSans-74" x="237.939453"/>
      <use xlink:href="#DejaVuSans-69" x="277.148438"/>
      <use xlink:href="#DejaVuSans-6e" x="304.931641"/>
      <use xlink:href="#DejaVuSans-67" x="368.310547"/>
     </g>
    </g>
   </g>
  </g>
 </g>
 <defs>
  <clipPath id="p74266659c6">
   <rect x="54" y="34.56" width="334.8" height="217.44"/>
  </clipPath>
 </defs>
</svg>
