<?xml version="1.0" encoding="utf-8" standalone="no"?>
<!DOCTYPE svg PUBLIC "-//W3C//DTD SVG 1.1//EN"
  "http://www.w3.org/Graphics/SVG/1.1/DTD/svg11.dtd">
<svg xmlns:xlink="http://www.w3.org/1999/xlink" width="432pt" height="288pt" viewBox="0 0 432 288" xmlns="http://www.w3.org/2000/svg" version="1.1">
 <metadata>
  <rdf:RDF xmlns:dc="http://purl.org/dc/elements/1.1/" xmlns:cc="http://creativecommons.org/ns#" xmlns:rdf="http://www.w3.org/1999/02/22-rdf-syntax-ns#">
   <cc:Work>
    <dc:type rdf:resource="http://purl.org/dc/dcmitype/StillImage"/>
    <dc:date>2022-05-17T04:48:35.305927</dc:date>
    <dc:format>image/svg+xml</dc:format>
    <dc:creator>
     <cc:Agent>
      <dc:title>Matplotlib v3.5.1, https://matplotlib.org/</dc:title>
     </cc:Agent>
    </dc:creator>
   </cc:Work>
  </rdf:RDF>
 </metadata>
 <defs>
  <style type="text/css">*{stroke-linejoin: round; stroke-linecap: butt}</style>
 </defs>
 <g id="figure_1">
  <g id="patch_1">
   <path d="M 0 288 
L 432 288 
L 432 0 
L 0 0 
L 0 288 
z
" style="fill: none"/>
  </g>
  <g id="patch_2">
   <path d="M 112.68 252 
L 330.12 252 
L 330.12 34.56 
L 112.68 34.56 
z
" style="fill: #ffffff"/>
  </g>
  <g id="pane3d_1">
   <g id="patch_3">
    <path d="M 129.09822 198.386264 
L 200.904009 138.197228 
L 199.90584 51.393878 
L 124.663773 106.302111 
" style="fill: #f2f2f2; opacity: 0.5; stroke: #f2f2f2; stroke-linejoin: miter"/>
   </g>
  </g>
  <g id="pane3d_2">
   <g id="patch_4">
    <path d="M 200.904009 138.197228 
L 316.12668 171.68791 
L 320.238571 81.894718 
L 199.90584 51.393878 
" style="fill: #e6e6e6; opacity: 0.5; stroke: #e6e6e6; stroke-linejoin: miter"/>
   </g>
  </g>
  <g id="pane3d_3">
   <g id="patch_5">
    <path d="M 129.09822 198.386264 
L 251.239879 238.27773 
L 316.12668 171.68791 
L 200.904009 138.197228 
" style="fill: #ececec; opacity: 0.5; stroke: #ececec; stroke-linejoin: miter"/>
   </g>
  </g>
  <g id="axis3d_1">
   <g id="line2d_1">
    <path d="M 129.09822 198.386264 
L 251.239879 238.27773 
" style="fill: none; stroke: #000000; stroke-width: 0.8; stroke-linecap: square"/>
   </g>
   <g id="Line3DCollection_1">
    <path d="M 138.724823 201.530313 
L 210.022294 140.847554 
L 209.41002 53.802911 
" style="fill: none; stroke: #b0b0b0; stroke-width: 0.8"/>
    <path d="M 155.269306 206.933741 
L 225.678329 145.398145 
L 225.736037 57.94108 
" style="fill: none; stroke: #b0b0b0; stroke-width: 0.8"/>
    <path d="M 172.057254 212.416685 
L 241.545601 150.010134 
L 242.291884 62.137505 
" style="fill: none; stroke: #b0b0b0; stroke-width: 0.8"/>
    <path d="M 189.09408 217.980912 
L 257.628413 154.684773 
L 259.082448 66.393423 
" style="fill: none; stroke: #b0b0b0; stroke-width: 0.8"/>
    <path d="M 206.38536 223.628244 
L 273.931188 159.423346 
L 276.112756 70.71011 
" style="fill: none; stroke: #b0b0b0; stroke-width: 0.8"/>
    <path d="M 223.936837 229.360557 
L 290.458468 164.227174 
L 293.387979 75.088875 
" style="fill: none; stroke: #b0b0b0; stroke-width: 0.8"/>
    <path d="M 241.754429 235.179782 
L 307.214925 169.097614 
L 310.913441 79.531069 
" style="fill: none; stroke: #b0b0b0; stroke-width: 0.8"/>
   </g>
   <g id="xtick_1">
    <g id="line2d_2">
     <path d="M 139.345727 201.001849 
L 137.480347 202.589512 
" style="fill: none; stroke: #000000; stroke-width: 0.8; stroke-linecap: square"/>
    </g>
    <g id="text_1">
     <!-- −15 -->
     <g transform="translate(120.639862 224.871423)scale(0.1 -0.1)">
      <defs>
       <path id="DejaVuSans-2212" d="M 678 2272 
L 4684 2272 
L 4684 1741 
L 678 1741 
L 678 2272 
z
" transform="scale(0.015625)"/>
       <path id="DejaVuSans-31" d="M 794 531 
L 1825 531 
L 1825 4091 
L 703 3866 
L 703 4441 
L 1819 4666 
L 2450 4666 
L 2450 531 
L 3481 531 
L 3481 0 
L 794 0 
L 794 531 
z
" transform="scale(0.015625)"/>
       <path id="DejaVuSans-35" d="M 691 4666 
L 3169 4666 
L 3169 4134 
L 1269 4134 
L 1269 2991 
Q 1406 3038 1543 3061 
Q 1681 3084 1819 3084 
Q 2600 3084 3056 2656 
Q 3513 2228 3513 1497 
Q 3513 744 3044 326 
Q 2575 -91 1722 -91 
Q 1428 -91 1123 -41 
Q 819 9 494 109 
L 494 744 
Q 775 591 1075 516 
Q 1375 441 1709 441 
Q 2250 441 2565 725 
Q 2881 1009 2881 1497 
Q 2881 1984 2565 2268 
Q 2250 2553 1709 2553 
Q 1456 2553 1204 2497 
Q 953 2441 691 2322 
L 691 4666 
z
" transform="scale(0.015625)"/>
      </defs>
      <use xlink:href="#DejaVuSans-2212"/>
      <use xlink:href="#DejaVuSans-31" x="83.789062"/>
      <use xlink:href="#DejaVuSans-35" x="147.412109"/>
     </g>
    </g>
   </g>
   <g id="xtick_2">
    <g id="line2d_3">
     <path d="M 155.882837 206.397532 
L 154.03959 208.008481 
" style="fill: none; stroke: #000000; stroke-width: 0.8; stroke-linecap: square"/>
    </g>
    <g id="text_2">
     <!-- −10 -->
     <g transform="translate(137.205031 230.415173)scale(0.1 -0.1)">
      <defs>
       <path id="DejaVuSans-30" d="M 2034 4250 
Q 1547 4250 1301 3770 
Q 1056 3291 1056 2328 
Q 1056 1369 1301 889 
Q 1547 409 2034 409 
Q 2525 409 2770 889 
Q 3016 1369 3016 2328 
Q 3016 3291 2770 3770 
Q 2525 4250 2034 4250 
z
M 2034 4750 
Q 2819 4750 3233 4129 
Q 3647 3509 3647 2328 
Q 3647 1150 3233 529 
Q 2819 -91 2034 -91 
Q 1250 -91 836 529 
Q 422 1150 422 2328 
Q 422 3509 836 4129 
Q 1250 4750 2034 4750 
z
" transform="scale(0.015625)"/>
      </defs>
      <use xlink:href="#DejaVuSans-2212"/>
      <use xlink:href="#DejaVuSans-31" x="83.789062"/>
      <use xlink:href="#DejaVuSans-30" x="147.412109"/>
     </g>
    </g>
   </g>
   <g id="xtick_3">
    <g id="line2d_4">
     <path d="M 172.663127 211.872559 
L 170.842867 213.50731 
" style="fill: none; stroke: #000000; stroke-width: 0.8; stroke-linecap: square"/>
    </g>
    <g id="text_3">
     <!-- −5 -->
     <g transform="translate(157.196346 236.040881)scale(0.1 -0.1)">
      <use xlink:href="#DejaVuSans-2212"/>
      <use xlink:href="#DejaVuSans-35" x="83.789062"/>
     </g>
    </g>
   </g>
   <g id="xtick_4">
    <g id="line2d_5">
     <path d="M 189.692 217.428692 
L 187.895615 219.087777 
" style="fill: none; stroke: #000000; stroke-width: 0.8; stroke-linecap: square"/>
    </g>
    <g id="text_4">
     <!-- 0 -->
     <g transform="translate(178.446622 241.750377)scale(0.1 -0.1)">
      <use xlink:href="#DejaVuSans-30"/>
     </g>
    </g>
   </g>
   <g id="xtick_5">
    <g id="line2d_6">
     <path d="M 206.975021 223.067749 
L 205.203429 224.751715 
" style="fill: none; stroke: #000000; stroke-width: 0.8; stroke-linecap: square"/>
    </g>
    <g id="text_5">
     <!-- 5 -->
     <g transform="translate(195.763056 247.545548)scale(0.1 -0.1)">
      <use xlink:href="#DejaVuSans-35"/>
     </g>
    </g>
   </g>
   <g id="xtick_6">
    <g id="line2d_7">
     <path d="M 224.517922 228.791598 
L 222.772077 230.501009 
" style="fill: none; stroke: #000000; stroke-width: 0.8; stroke-linecap: square"/>
    </g>
    <g id="text_6">
     <!-- 10 -->
     <g transform="translate(210.160049 253.428337)scale(0.1 -0.1)">
      <use xlink:href="#DejaVuSans-31"/>
      <use xlink:href="#DejaVuSans-30" x="63.623047"/>
     </g>
    </g>
   </g>
   <g id="xtick_7">
    <g id="line2d_8">
     <path d="M 242.326609 234.602168 
L 240.607498 236.337605 
" style="fill: none; stroke: #000000; stroke-width: 0.8; stroke-linecap: square"/>
    </g>
    <g id="text_7">
     <!-- 15 -->
     <g transform="translate(228.006083 259.400745)scale(0.1 -0.1)">
      <use xlink:href="#DejaVuSans-31"/>
      <use xlink:href="#DejaVuSans-35" x="63.623047"/>
     </g>
    </g>
   </g>
  </g>
  <g id="axis3d_2">
   <g id="line2d_9">
    <path d="M 316.12668 171.68791 
L 251.239879 238.27773 
" style="fill: none; stroke: #000000; stroke-width: 0.8; stroke-linecap: square"/>
   </g>
   <g id="Line3DCollection_2">
    <path d="M 129.798294 102.555172 
L 133.98094 194.293471 
L 255.670306 233.731022 
" style="fill: none; stroke: #b0b0b0; stroke-width: 0.8"/>
    <path d="M 147.456847 89.668764 
L 150.79281 180.201429 
L 270.9045 218.096991 
" style="fill: none; stroke: #b0b0b0; stroke-width: 0.8"/>
    <path d="M 164.419182 77.290424 
L 166.970061 166.641336 
L 285.5339 203.083628 
" style="fill: none; stroke: #b0b0b0; stroke-width: 0.8"/>
    <path d="M 180.725676 65.390687 
L 182.547962 153.583631 
L 299.59382 188.654691 
" style="fill: none; stroke: #b0b0b0; stroke-width: 0.8"/>
    <path d="M 196.413646 53.942321 
L 197.559214 141.000901 
L 313.116877 174.776708 
" style="fill: none; stroke: #b0b0b0; stroke-width: 0.8"/>
   </g>
   <g id="xtick_8">
    <g id="line2d_10">
     <path d="M 254.644822 233.39868 
L 257.723926 234.396567 
" style="fill: none; stroke: #000000; stroke-width: 0.8; stroke-linecap: square"/>
    </g>
    <g id="text_8">
     <!-- −20 -->
     <g transform="translate(258.001294 254.755654)scale(0.1 -0.1)">
      <defs>
       <path id="DejaVuSans-32" d="M 1228 531 
L 3431 531 
L 3431 0 
L 469 0 
L 469 531 
Q 828 903 1448 1529 
Q 2069 2156 2228 2338 
Q 2531 2678 2651 2914 
Q 2772 3150 2772 3378 
Q 2772 3750 2511 3984 
Q 2250 4219 1831 4219 
Q 1534 4219 1204 4116 
Q 875 4013 500 3803 
L 500 4441 
Q 881 4594 1212 4672 
Q 1544 4750 1819 4750 
Q 2544 4750 2975 4387 
Q 3406 4025 3406 3419 
Q 3406 3131 3298 2873 
Q 3191 2616 2906 2266 
Q 2828 2175 2409 1742 
Q 1991 1309 1228 531 
z
" transform="scale(0.015625)"/>
      </defs>
      <use xlink:href="#DejaVuSans-2212"/>
      <use xlink:href="#DejaVuSans-32" x="83.789062"/>
      <use xlink:href="#DejaVuSans-30" x="147.412109"/>
     </g>
    </g>
   </g>
   <g id="xtick_9">
    <g id="line2d_11">
     <path d="M 269.893349 217.777971 
L 272.929363 218.735841 
" style="fill: none; stroke: #000000; stroke-width: 0.8; stroke-linecap: square"/>
    </g>
    <g id="text_9">
     <!-- −10 -->
     <g transform="translate(272.985329 238.838295)scale(0.1 -0.1)">
      <use xlink:href="#DejaVuSans-2212"/>
      <use xlink:href="#DejaVuSans-31" x="83.789062"/>
      <use xlink:href="#DejaVuSans-30" x="147.412109"/>
     </g>
    </g>
   </g>
   <g id="xtick_10">
    <g id="line2d_12">
     <path d="M 284.536764 202.777144 
L 287.530648 203.697357 
" style="fill: none; stroke: #000000; stroke-width: 0.8; stroke-linecap: square"/>
    </g>
    <g id="text_10">
     <!-- 0 -->
     <g transform="translate(294.745176 223.553297)scale(0.1 -0.1)">
      <use xlink:href="#DejaVuSans-30"/>
     </g>
    </g>
   </g>
   <g id="xtick_11">
    <g id="line2d_13">
     <path d="M 298.610385 188.36002 
L 301.563085 189.244753 
" style="fill: none; stroke: #000000; stroke-width: 0.8; stroke-linecap: square"/>
    </g>
    <g id="text_11">
     <!-- 10 -->
     <g transform="translate(305.39218 208.86371)scale(0.1 -0.1)">
      <use xlink:href="#DejaVuSans-31"/>
      <use xlink:href="#DejaVuSans-30" x="63.623047"/>
     </g>
    </g>
   </g>
   <g id="xtick_12">
    <g id="line2d_14">
     <path d="M 312.146833 174.493178 
L 315.059284 175.344444 
" style="fill: none; stroke: #000000; stroke-width: 0.8; stroke-linecap: square"/>
    </g>
    <g id="text_12">
     <!-- 20 -->
     <g transform="translate(318.69206 194.735408)scale(0.1 -0.1)">
      <use xlink:href="#DejaVuSans-32"/>
      <use xlink:href="#DejaVuSans-30" x="63.623047"/>
     </g>
    </g>
   </g>
  </g>
  <g id="axis3d_3">
   <g id="line2d_15">
    <path d="M 316.12668 171.68791 
L 320.238571 81.894718 
" style="fill: none; stroke: #000000; stroke-width: 0.8; stroke-linecap: square"/>
   </g>
   <g id="Line3DCollection_3">
    <path d="M 316.63361 160.61785 
L 200.780723 127.475946 
L 128.552331 187.050537 
" style="fill: none; stroke: #b0b0b0; stroke-width: 0.8"/>
    <path d="M 317.31051 145.83609 
L 200.6162 113.168611 
L 127.823057 171.906688 
" style="fill: none; stroke: #b0b0b0; stroke-width: 0.8"/>
    <path d="M 317.997412 130.835907 
L 200.449363 98.660029 
L 127.082593 156.530472 
" style="fill: none; stroke: #b0b0b0; stroke-width: 0.8"/>
    <path d="M 318.694539 115.612424 
L 200.280162 83.945926 
L 126.330679 140.916499 
" style="fill: none; stroke: #b0b0b0; stroke-width: 0.8"/>
    <path d="M 319.402123 100.160617 
L 200.108548 69.021903 
L 125.567049 125.059213 
" style="fill: none; stroke: #b0b0b0; stroke-width: 0.8"/>
    <path d="M 320.120398 84.47531 
L 199.934467 53.883435 
L 124.791425 108.952881 
" style="fill: none; stroke: #b0b0b0; stroke-width: 0.8"/>
   </g>
   <g id="xtick_13">
    <g id="line2d_16">
     <path d="M 315.661034 160.339627 
L 318.581088 161.174963 
" style="fill: none; stroke: #000000; stroke-width: 0.8; stroke-linecap: square"/>
    </g>
    <g id="text_13">
     <!-- 15 -->
     <g transform="translate(328.605987 165.639529)scale(0.1 -0.1)">
      <use xlink:href="#DejaVuSans-31"/>
      <use xlink:href="#DejaVuSans-35" x="63.623047"/>
     </g>
    </g>
   </g>
   <g id="xtick_14">
    <g id="line2d_17">
     <path d="M 316.330532 145.561755 
L 319.272826 146.385422 
" style="fill: none; stroke: #000000; stroke-width: 0.8; stroke-linecap: square"/>
    </g>
    <g id="text_14">
     <!-- 20 -->
     <g transform="translate(329.414342 150.893841)scale(0.1 -0.1)">
      <use xlink:href="#DejaVuSans-32"/>
      <use xlink:href="#DejaVuSans-30" x="63.623047"/>
     </g>
    </g>
   </g>
   <g id="xtick_15">
    <g id="line2d_18">
     <path d="M 317.009919 130.565605 
L 319.974793 131.377166 
" style="fill: none; stroke: #000000; stroke-width: 0.8; stroke-linecap: square"/>
    </g>
    <g id="text_15">
     <!-- 25 -->
     <g transform="translate(330.234598 135.931077)scale(0.1 -0.1)">
      <use xlink:href="#DejaVuSans-32"/>
      <use xlink:href="#DejaVuSans-35" x="63.623047"/>
     </g>
    </g>
   </g>
   <g id="xtick_16">
    <g id="line2d_19">
     <path d="M 317.699416 115.346307 
L 320.687219 116.145308 
" style="fill: none; stroke: #000000; stroke-width: 0.8; stroke-linecap: square"/>
    </g>
    <g id="text_16">
     <!-- 30 -->
     <g transform="translate(331.067018 120.74641)scale(0.1 -0.1)">
      <defs>
       <path id="DejaVuSans-33" d="M 2597 2516 
Q 3050 2419 3304 2112 
Q 3559 1806 3559 1356 
Q 3559 666 3084 287 
Q 2609 -91 1734 -91 
Q 1441 -91 1130 -33 
Q 819 25 488 141 
L 488 750 
Q 750 597 1062 519 
Q 1375 441 1716 441 
Q 2309 441 2620 675 
Q 2931 909 2931 1356 
Q 2931 1769 2642 2001 
Q 2353 2234 1838 2234 
L 1294 2234 
L 1294 2753 
L 1863 2753 
Q 2328 2753 2575 2939 
Q 2822 3125 2822 3475 
Q 2822 3834 2567 4026 
Q 2313 4219 1838 4219 
Q 1578 4219 1281 4162 
Q 984 4106 628 3988 
L 628 4550 
Q 988 4650 1302 4700 
Q 1616 4750 1894 4750 
Q 2613 4750 3031 4423 
Q 3450 4097 3450 3541 
Q 3450 3153 3228 2886 
Q 3006 2619 2597 2516 
z
" transform="scale(0.015625)"/>
      </defs>
      <use xlink:href="#DejaVuSans-33"/>
      <use xlink:href="#DejaVuSans-30" x="63.623047"/>
     </g>
    </g>
   </g>
   <g id="xtick_17">
    <g id="line2d_20">
     <path d="M 318.39925 99.898841 
L 321.410339 100.684813 
" style="fill: none; stroke: #000000; stroke-width: 0.8; stroke-linecap: square"/>
    </g>
    <g id="text_17">
     <!-- 35 -->
     <g transform="translate(331.911876 105.334866)scale(0.1 -0.1)">
      <use xlink:href="#DejaVuSans-33"/>
      <use xlink:href="#DejaVuSans-35" x="63.623047"/>
     </g>
    </g>
   </g>
   <g id="xtick_18">
    <g id="line2d_21">
     <path d="M 319.109654 84.218038 
L 322.144395 84.990494 
" style="fill: none; stroke: #000000; stroke-width: 0.8; stroke-linecap: square"/>
    </g>
    <g id="text_18">
     <!-- 40 -->
     <g transform="translate(332.769451 89.691323)scale(0.1 -0.1)">
      <defs>
       <path id="DejaVuSans-34" d="M 2419 4116 
L 825 1625 
L 2419 1625 
L 2419 4116 
z
M 2253 4666 
L 3047 4666 
L 3047 1625 
L 3713 1625 
L 3713 1100 
L 3047 1100 
L 3047 0 
L 2419 0 
L 2419 1100 
L 313 1100 
L 313 1709 
L 2253 4666 
z
" transform="scale(0.015625)"/>
      </defs>
      <use xlink:href="#DejaVuSans-34"/>
      <use xlink:href="#DejaVuSans-30" x="63.623047"/>
     </g>
    </g>
   </g>
  </g>
  <g id="axes_1">
   <g id="line2d_22">
    <path d="M 147.888742 109.294662 
L 151.16741 103.634417 
L 155.165296 99.014933 
L 159.727336 95.551953 
L 164.683178 93.284057 
L 169.862917 92.177251 
L 175.110211 92.138173 
L 180.291244 93.032196 
L 185.299259 94.702499 
L 190.055244 96.98702 
L 194.505878 99.731455 
L 198.61989 102.79778 
L 202.383817 106.068658 
L 205.797829 109.448616 
L 208.872017 112.863007 
L 211.623302 116.255673 
L 214.072986 119.586039 
L 216.244883 122.826127 
L 218.163936 125.957792 
L 219.855218 128.970332 
L 222.651481 134.620996 
L 224.815709 139.776066 
L 226.506661 144.463837 
L 228.441697 150.70579 
L 231.794508 162.224859 
L 232.757754 164.852009 
L 233.81837 167.209854 
L 235.022194 169.299832 
L 236.415488 171.114593 
L 238.047112 172.636743 
L 238.968722 173.279463 
L 239.970291 173.836981 
L 241.059357 174.303346 
L 242.243847 174.671495 
L 243.532064 174.933122 
L 244.932656 175.078542 
L 246.454545 175.096542 
L 248.106826 174.974232 
L 249.898604 174.696898 
L 251.83877 174.247872 
L 253.9357 173.608437 
L 256.19684 172.757791 
L 258.62818 171.673111 
L 261.233574 170.329748 
L 264.013893 168.701631 
L 266.965991 166.76194 
L 270.081467 164.484141 
L 273.345233 161.843482 
L 276.733918 158.819036 
L 280.214176 155.396384 
L 283.741018 151.570958 
L 287.256367 147.352009 
L 290.6881 142.766996 
L 293.949939 137.86603 
L 296.942594 132.725746 
L 299.55659 127.451754 
L 301.677107 122.178604 
L 303.190957 117.066187 
L 303.995458 112.291783 
L 304.008452 108.037569 
L 303.178217 104.474451 
L 301.491587 101.744232 
L 298.978585 99.943164 
L 295.712227 99.110224 
L 291.803096 99.222863 
L 287.389373 100.201367 
L 282.624045 101.920938 
L 277.661552 104.228798 
L 272.646009 106.962695 
L 267.702528 109.967415 
L 262.932234 113.106988 
L 258.410771 116.271679 
L 250.298492 122.37787 
L 243.54384 127.932971 
L 238.105739 132.872236 
L 233.82955 137.276124 
L 230.519025 141.268713 
L 227.977071 144.964591 
L 226.025301 148.449653 
L 224.511199 151.779946 
L 223.308684 154.987747 
L 221.870959 159.602023 
L 218.99681 169.495177 
L 217.555667 173.353641 
L 216.41788 175.795584 
L 215.087727 178.130392 
L 213.517206 180.352681 
L 211.6522 182.451986 
L 209.430891 184.409403 
L 206.782699 186.192758 
L 205.274013 187.003828 
L 203.628185 187.749674 
L 201.834181 188.418991 
L 199.880794 188.997798 
L 197.756912 189.468926 
L 195.451889 189.811454 
L 192.95607 190.000081 
L 190.261481 190.004486 
L 187.362747 189.788696 
L 184.258261 189.310544 
L 180.951657 188.521323 
L 177.453606 187.365781 
L 173.783927 185.782688 
L 169.973985 183.706227 
L 166.069216 181.068563 
L 162.131576 177.803911 
L 158.241512 173.854445 
L 154.498921 169.178168 
L 151.02241 163.758599 
L 147.946107 157.615556 
L 145.413369 150.815673 
L 143.567127 143.480518 
L 142.537223 135.789699 
L 142.426088 127.976399 
L 143.294945 120.313779 
L 145.153335 113.092583 
L 147.954568 106.592777 
L 151.598591 101.054173 
L 155.942116 96.651864 
L 160.813988 93.481364 
L 166.032686 91.555813 
L 171.42265 90.814568 
L 176.826986 91.139946 
L 182.115336 92.377763 
L 187.187042 94.357509 
L 191.970509 96.909247 
L 196.420103 99.875774 
L 200.511793 103.119921 
L 204.238505 106.527699 
L 207.605784 110.008368 
L 210.628087 113.492544 
L 213.325772 116.929276 
L 215.722789 120.282781 
L 217.844946 123.529273 
L 219.718654 126.654143 
L 222.824376 132.512665 
L 225.236279 137.84591 
L 227.127526 142.680009 
L 229.302824 149.084995 
L 232.589894 159.336723 
L 233.658105 162.10379 
L 234.813158 164.573285 
L 236.107053 166.748533 
L 237.590541 168.623061 
L 238.419507 169.442562 
L 238.419507 169.442562 
" clip-path="url(#p1f7df724a7)" style="fill: none; stroke: #ff0000; stroke-width: 1.5; stroke-linecap: square"/>
   </g>
   <g id="line2d_23">
    <path d="M 147.888742 109.294662 
L 151.165654 103.636898 
L 155.161127 99.018815 
L 159.720441 95.55607 
L 164.673386 93.287245 
L 169.850289 92.178537 
L 175.09511 92.13684 
L 180.274034 93.027758 
L 185.280457 94.694785 
L 190.0353 96.976029 
L 194.48533 99.71736 
L 198.599066 102.780937 
L 202.363099 106.049387 
L 205.777558 109.427275 
L 208.852447 112.839983 
L 211.604573 116.231329 
L 214.055186 119.560679 
L 216.228121 122.800006 
L 218.1483 125.931129 
L 219.840719 128.94331 
L 222.639061 134.593676 
L 224.805096 139.748856 
L 226.4976 144.436995 
L 228.434187 150.679766 
L 231.786483 162.201684 
L 232.748634 164.829942 
L 233.807671 167.189092 
L 235.009348 169.280647 
L 236.399823 171.097368 
L 238.02785 172.622013 
L 238.947335 173.266239 
L 239.946541 173.825471 
L 241.032993 174.293791 
L 242.214599 174.664167 
L 243.499643 174.928334 
L 244.89675 175.076653 
L 246.41482 175.097964 
L 248.062924 174.97944 
L 249.85015 174.706435 
L 251.785385 174.262358 
L 253.877008 173.628574 
L 256.132493 172.784366 
L 258.557874 171.706995 
L 261.157075 170.371894 
L 263.931065 168.753063 
L 266.876831 166.823734 
L 269.986152 164.557388 
L 273.244177 161.929232 
L 276.627841 158.918222 
L 280.104175 155.509714 
L 283.628646 151.698785 
L 287.143697 147.494169 
L 290.577772 142.922625 
L 293.845171 138.033379 
L 296.84714 132.902026 
L 299.474624 127.633037 
L 301.613035 122.359834 
L 303.149155 117.241326 
L 303.979935 112.454113 
L 304.022442 108.180186 
L 303.223751 104.590919 
L 301.569223 101.829289 
L 299.087232 99.993336 
L 295.849103 99.124217 
L 291.964044 99.201752 
L 287.569148 100.14833 
L 282.816951 101.840783 
L 277.861806 104.127276 
L 272.848244 106.845857 
L 267.902 109.840929 
L 263.1252 112.975802 
L 258.594409 116.139721 
L 250.458176 122.252151 
L 243.677159 127.818016 
L 238.214018 132.767951 
L 233.91568 137.18044 
L 230.586682 141.179213 
L 228.029956 144.879197 
L 226.066834 148.366875 
L 224.544374 151.698893 
L 223.33601 154.907985 
L 221.893327 159.523998 
L 219.021065 169.421802 
L 217.585621 173.282666 
L 216.453313 175.726409 
L 215.130144 178.063246 
L 213.568322 180.287912 
L 211.714016 182.390141 
L 209.505753 184.351369 
L 206.873329 186.139963 
L 205.373666 186.954436 
L 203.737673 187.704387 
L 201.954352 188.378681 
L 200.012515 188.963542 
L 197.901052 189.442048 
L 195.609291 189.793564 
L 193.127507 189.993133 
L 190.447605 190.010828 
L 187.564012 189.811123 
L 184.47483 189.352346 
L 181.183279 188.586308 
L 177.699472 187.458274 
L 174.042496 185.90747 
L 170.242794 183.868416 
L 166.344683 181.273385 
L 162.408813 178.056367 
L 158.514178 174.158824 
L 154.759166 169.537415 
L 151.260949 164.173535 
L 148.152503 158.084027 
L 145.576573 151.33174 
L 143.676296 144.033885 
L 142.582791 136.365589 
L 142.400905 128.556078 
L 143.195251 120.875827 
L 144.979375 113.614847 
L 147.710876 107.054578 
L 151.293652 101.438417 
L 155.587358 96.946774 
L 160.422714 93.681437 
L 165.618484 91.66161 
L 170.998483 90.832001 
L 176.404217 91.078806 
L 181.703312 92.250109 
L 186.792771 94.176383 
L 191.599035 96.687199 
L 196.074488 99.624389 
L 200.193589 102.849119 
L 203.948144 106.245635 
L 207.342795 109.721535 
L 210.391344 113.205905 
L 213.113679 116.646459 
L 215.533541 120.006328 
L 217.676673 123.260883 
L 219.569425 126.394872 
L 222.707333 132.272998 
L 225.144067 137.625883 
L 227.053782 142.478579 
L 229.246725 148.908726 
L 232.542128 159.202482 
L 233.607162 161.98216 
L 234.75649 164.464163 
L 236.042133 166.652242 
L 237.514751 168.540433 
L 238.337249 169.36726 
L 238.337249 169.36726 
" clip-path="url(#p1f7df724a7)" style="fill: none; stroke-dasharray: 5.55,2.4; stroke-dashoffset: 0; stroke: #0000ff; stroke-width: 1.5"/>
   </g>
  </g>
 </g>
 <defs>
  <clipPath id="p1f7df724a7">
   <rect x="112.68" y="34.56" width="217.44" height="217.44"/>
  </clipPath>
 </defs>
</svg>
