<?xml version="1.0" encoding="utf-8" standalone="no"?>
<!DOCTYPE svg PUBLIC "-//W3C//DTD SVG 1.1//EN"
  "http://www.w3.org/Graphics/SVG/1.1/DTD/svg11.dtd">
<svg xmlns:xlink="http://www.w3.org/1999/xlink" width="432pt" height="288pt" viewBox="0 0 432 288" xmlns="http://www.w3.org/2000/svg" version="1.1">
 <metadata>
  <rdf:RDF xmlns:dc="http://purl.org/dc/elements/1.1/" xmlns:cc="http://creativecommons.org/ns#" xmlns:rdf="http://www.w3.org/1999/02/22-rdf-syntax-ns#">
   <cc:Work>
    <dc:type rdf:resource="http://purl.org/dc/dcmitype/StillImage"/>
    <dc:date>2022-05-20T20:13:12.024623</dc:date>
    <dc:format>image/svg+xml</dc:format>
    <dc:creator>
     <cc:Agent>
      <dc:title>Matplotlib v3.5.1, https://matplotlib.org/</dc:title>
     </cc:Agent>
    </dc:creator>
   </cc:Work>
  </rdf:RDF>
 </metadata>
 <defs>
  <style type="text/css">*{stroke-linejoin: round; stroke-linecap: butt}</style>
 </defs>
 <g id="figure_1">
  <g id="patch_1">
   <path d="M 0 288 
L 432 288 
L 432 0 
L 0 0 
L 0 288 
z
" style="fill: none"/>
  </g>
  <g id="patch_2">
   <path d="M 112.68 252 
L 330.12 252 
L 330.12 34.56 
L 112.68 34.56 
z
" style="fill: #ffffff"/>
  </g>
  <g id="pane3d_1">
   <g id="patch_3">
    <path d="M 129.09822 198.386264 
L 200.904009 138.197228 
L 199.90584 51.393878 
L 124.663773 106.302111 
" style="fill: #f2f2f2; opacity: 0.5; stroke: #f2f2f2; stroke-linejoin: miter"/>
   </g>
  </g>
  <g id="pane3d_2">
   <g id="patch_4">
    <path d="M 200.904009 138.197228 
L 316.12668 171.68791 
L 320.238571 81.894718 
L 199.90584 51.393878 
" style="fill: #e6e6e6; opacity: 0.5; stroke: #e6e6e6; stroke-linejoin: miter"/>
   </g>
  </g>
  <g id="pane3d_3">
   <g id="patch_5">
    <path d="M 129.09822 198.386264 
L 251.239879 238.27773 
L 316.12668 171.68791 
L 200.904009 138.197228 
" style="fill: #ececec; opacity: 0.5; stroke: #ececec; stroke-linejoin: miter"/>
   </g>
  </g>
  <g id="axis3d_1">
   <g id="line2d_1">
    <path d="M 129.09822 198.386264 
L 251.239879 238.27773 
" style="fill: none; stroke: #000000; stroke-width: 0.8; stroke-linecap: square"/>
   </g>
   <g id="text_1">
    <!-- X -->
    <g transform="translate(168.626305 255.546233)scale(0.1 -0.1)">
     <defs>
      <path id="TimesNewRomanPSMT-58" d="M 2613 2347 
L 3522 991 
Q 3900 428 4083 279 
Q 4266 131 4547 116 
L 4547 0 
L 2728 0 
L 2728 116 
Q 2909 119 2997 153 
Q 3063 181 3105 239 
Q 3147 297 3147 356 
Q 3147 428 3119 500 
Q 3097 553 2947 775 
L 2228 1863 
L 1341 725 
Q 1200 544 1172 483 
Q 1144 422 1144 356 
Q 1144 256 1228 190 
Q 1313 125 1550 116 
L 1550 0 
L 47 0 
L 47 116 
Q 206 131 322 181 
Q 516 263 691 400 
Q 866 538 1091 822 
L 2091 2084 
L 1256 3306 
Q 916 3803 678 3958 
Q 441 4113 131 4122 
L 131 4238 
L 2091 4238 
L 2091 4122 
Q 1841 4113 1748 4041 
Q 1656 3969 1656 3881 
Q 1656 3766 1806 3544 
L 2456 2572 
L 3209 3525 
Q 3341 3694 3370 3756 
Q 3400 3819 3400 3884 
Q 3400 3950 3363 4000 
Q 3316 4066 3244 4092 
Q 3172 4119 2947 4122 
L 2947 4238 
L 4450 4238 
L 4450 4122 
Q 4272 4113 4159 4066 
Q 3991 3994 3850 3872 
Q 3709 3750 3453 3422 
L 2613 2347 
z
" transform="scale(0.015625)"/>
     </defs>
     <use xlink:href="#TimesNewRomanPSMT-58"/>
    </g>
   </g>
   <g id="Line3DCollection_1">
    <path d="M 137.957325 201.279648 
L 209.295556 140.63632 
L 208.65241 53.610878 
" style="fill: none; stroke: #b0b0b0; stroke-width: 0.8"/>
    <path d="M 154.549704 206.698719 
L 224.997761 145.20033 
L 225.02615 57.761144 
" style="fill: none; stroke: #b0b0b0; stroke-width: 0.8"/>
    <path d="M 171.387049 212.197796 
L 240.91252 149.826123 
L 241.631145 61.970027 
" style="fill: none; stroke: #b0b0b0; stroke-width: 0.8"/>
    <path d="M 188.474823 217.778663 
L 257.044179 154.514959 
L 258.47233 66.238776 
" style="fill: none; stroke: #b0b0b0; stroke-width: 0.8"/>
    <path d="M 205.818655 223.443159 
L 273.397203 159.268138 
L 275.55478 70.568679 
" style="fill: none; stroke: #b0b0b0; stroke-width: 0.8"/>
    <path d="M 223.424346 229.193177 
L 289.97618 164.086992 
L 292.883717 74.961059 
" style="fill: none; stroke: #b0b0b0; stroke-width: 0.8"/>
    <path d="M 241.29787 235.03067 
L 306.785825 168.972892 
L 310.464514 79.417279 
" style="fill: none; stroke: #b0b0b0; stroke-width: 0.8"/>
   </g>
   <g id="xtick_1">
    <g id="line2d_2">
     <path d="M 138.578567 200.751542 
L 136.712174 202.338129 
" style="fill: none; stroke: #000000; stroke-width: 0.8; stroke-linecap: square"/>
    </g>
    <g id="text_2">
     <!-- −15 -->
     <g transform="translate(122.604244 223.95957)scale(0.1 -0.1)">
      <defs>
       <path id="TimesNewRomanPSMT-2212" d="M 3484 2000 
L 116 2000 
L 116 2256 
L 3484 2256 
L 3484 2000 
z
" transform="scale(0.015625)"/>
       <path id="TimesNewRomanPSMT-31" d="M 750 3822 
L 1781 4325 
L 1884 4325 
L 1884 747 
Q 1884 391 1914 303 
Q 1944 216 2037 169 
Q 2131 122 2419 116 
L 2419 0 
L 825 0 
L 825 116 
Q 1125 122 1212 167 
Q 1300 213 1334 289 
Q 1369 366 1369 747 
L 1369 3034 
Q 1369 3497 1338 3628 
Q 1316 3728 1258 3775 
Q 1200 3822 1119 3822 
Q 1003 3822 797 3725 
L 750 3822 
z
" transform="scale(0.015625)"/>
       <path id="TimesNewRomanPSMT-35" d="M 2778 4238 
L 2534 3706 
L 1259 3706 
L 981 3138 
Q 1809 3016 2294 2522 
Q 2709 2097 2709 1522 
Q 2709 1188 2573 903 
Q 2438 619 2231 419 
Q 2025 219 1772 97 
Q 1413 -75 1034 -75 
Q 653 -75 479 54 
Q 306 184 306 341 
Q 306 428 378 495 
Q 450 563 559 563 
Q 641 563 702 538 
Q 763 513 909 409 
Q 1144 247 1384 247 
Q 1750 247 2026 523 
Q 2303 800 2303 1197 
Q 2303 1581 2056 1914 
Q 1809 2247 1375 2428 
Q 1034 2569 447 2591 
L 1259 4238 
L 2778 4238 
z
" transform="scale(0.015625)"/>
      </defs>
      <use xlink:href="#TimesNewRomanPSMT-2212"/>
      <use xlink:href="#TimesNewRomanPSMT-31" x="56.396484"/>
      <use xlink:href="#TimesNewRomanPSMT-35" x="106.396484"/>
     </g>
    </g>
   </g>
   <g id="xtick_2">
    <g id="line2d_3">
     <path d="M 155.16356 206.162848 
L 153.319339 207.77278 
" style="fill: none; stroke: #000000; stroke-width: 0.8; stroke-linecap: square"/>
    </g>
    <g id="text_3">
     <!-- −10 -->
     <g transform="translate(139.217319 229.519353)scale(0.1 -0.1)">
      <defs>
       <path id="TimesNewRomanPSMT-30" d="M 231 2094 
Q 231 2819 450 3342 
Q 669 3866 1031 4122 
Q 1313 4325 1613 4325 
Q 2100 4325 2488 3828 
Q 2972 3213 2972 2159 
Q 2972 1422 2759 906 
Q 2547 391 2217 158 
Q 1888 -75 1581 -75 
Q 975 -75 572 641 
Q 231 1244 231 2094 
z
M 844 2016 
Q 844 1141 1059 588 
Q 1238 122 1591 122 
Q 1759 122 1940 273 
Q 2122 425 2216 781 
Q 2359 1319 2359 2297 
Q 2359 3022 2209 3506 
Q 2097 3866 1919 4016 
Q 1791 4119 1609 4119 
Q 1397 4119 1231 3928 
Q 1006 3669 925 3112 
Q 844 2556 844 2016 
z
" transform="scale(0.015625)"/>
      </defs>
      <use xlink:href="#TimesNewRomanPSMT-2212"/>
      <use xlink:href="#TimesNewRomanPSMT-31" x="56.396484"/>
      <use xlink:href="#TimesNewRomanPSMT-30" x="106.396484"/>
     </g>
    </g>
   </g>
   <g id="xtick_3">
    <g id="line2d_4">
     <path d="M 171.993231 211.653987 
L 170.172043 213.287784 
" style="fill: none; stroke: #000000; stroke-width: 0.8; stroke-linecap: square"/>
    </g>
    <g id="text_4">
     <!-- −5 -->
     <g transform="translate(158.576798 235.161598)scale(0.1 -0.1)">
      <use xlink:href="#TimesNewRomanPSMT-2212"/>
      <use xlink:href="#TimesNewRomanPSMT-35" x="56.396484"/>
     </g>
    </g>
   </g>
   <g id="xtick_4">
    <g id="line2d_5">
     <path d="M 189.073035 217.226738 
L 187.275772 218.884935 
" style="fill: none; stroke: #000000; stroke-width: 0.8; stroke-linecap: square"/>
    </g>
    <g id="text_5">
     <!-- 0 -->
     <g transform="translate(178.507735 240.888153)scale(0.1 -0.1)">
      <use xlink:href="#TimesNewRomanPSMT-30"/>
     </g>
    </g>
   </g>
   <g id="xtick_5">
    <g id="line2d_6">
     <path d="M 206.40859 222.882935 
L 204.636177 224.566083 
" style="fill: none; stroke: #000000; stroke-width: 0.8; stroke-linecap: square"/>
    </g>
    <g id="text_6">
     <!-- 5 -->
     <g transform="translate(195.876758 246.700923)scale(0.1 -0.1)">
      <use xlink:href="#TimesNewRomanPSMT-35"/>
     </g>
    </g>
   </g>
   <g id="xtick_6">
    <g id="line2d_7">
     <path d="M 224.005684 228.624467 
L 222.259079 230.333132 
" style="fill: none; stroke: #000000; stroke-width: 0.8; stroke-linecap: square"/>
    </g>
    <g id="text_7">
     <!-- 10 -->
     <g transform="translate(211.009259 252.60187)scale(0.1 -0.1)">
      <use xlink:href="#TimesNewRomanPSMT-31"/>
      <use xlink:href="#TimesNewRomanPSMT-30" x="50"/>
     </g>
    </g>
   </g>
   <g id="xtick_7">
    <g id="line2d_8">
     <path d="M 241.870281 234.453278 
L 240.150477 236.188046 
" style="fill: none; stroke: #000000; stroke-width: 0.8; stroke-linecap: square"/>
    </g>
    <g id="text_8">
     <!-- 15 -->
     <g transform="translate(228.911279 258.593015)scale(0.1 -0.1)">
      <use xlink:href="#TimesNewRomanPSMT-31"/>
      <use xlink:href="#TimesNewRomanPSMT-35" x="50"/>
     </g>
    </g>
   </g>
  </g>
  <g id="axis3d_2">
   <g id="line2d_9">
    <path d="M 316.12668 171.68791 
L 251.239879 238.27773 
" style="fill: none; stroke: #000000; stroke-width: 0.8; stroke-linecap: square"/>
   </g>
   <g id="text_9">
    <!-- Y -->
    <g transform="translate(308.50252 233.913757)scale(0.1 -0.1)">
     <defs>
      <path id="TimesNewRomanPSMT-59" d="M 3050 4238 
L 4528 4238 
L 4528 4122 
L 4447 4122 
Q 4366 4122 4209 4050 
Q 4053 3978 3925 3843 
Q 3797 3709 3609 3406 
L 2588 1797 
L 2588 734 
Q 2588 344 2675 247 
Q 2794 116 3050 116 
L 3188 116 
L 3188 0 
L 1388 0 
L 1388 116 
L 1538 116 
Q 1806 116 1919 278 
Q 1988 378 1988 734 
L 1988 1738 
L 825 3513 
Q 619 3825 545 3903 
Q 472 3981 241 4091 
Q 178 4122 59 4122 
L 59 4238 
L 1872 4238 
L 1872 4122 
L 1778 4122 
Q 1631 4122 1507 4053 
Q 1384 3984 1384 3847 
Q 1384 3734 1575 3441 
L 2459 2075 
L 3291 3381 
Q 3478 3675 3478 3819 
Q 3478 3906 3433 3975 
Q 3388 4044 3303 4083 
Q 3219 4122 3050 4122 
L 3050 4238 
z
" transform="scale(0.015625)"/>
     </defs>
     <use xlink:href="#TimesNewRomanPSMT-59"/>
    </g>
   </g>
   <g id="Line3DCollection_2">
    <path d="M 129.05248 103.099433 
L 133.271545 194.8881 
L 255.026788 234.39143 
" style="fill: none; stroke: #b0b0b0; stroke-width: 0.8"/>
    <path d="M 146.813346 90.138362 
L 150.179637 180.715402 
L 270.349423 218.666637 
" style="fill: none; stroke: #b0b0b0; stroke-width: 0.8"/>
    <path d="M 163.870568 77.690778 
L 166.446406 167.080274 
L 285.060804 203.569141 
" style="fill: none; stroke: #b0b0b0; stroke-width: 0.8"/>
    <path d="M 180.26515 65.726759 
L 182.10766 153.952701 
L 299.196792 189.062139 
" style="fill: none; stroke: #b0b0b0; stroke-width: 0.8"/>
    <path d="M 196.034968 54.218663 
L 197.196591 141.304859 
L 312.790497 175.111654 
" style="fill: none; stroke: #b0b0b0; stroke-width: 0.8"/>
   </g>
   <g id="xtick_8">
    <g id="line2d_10">
     <path d="M 254.000705 234.058518 
L 257.081612 235.058114 
" style="fill: none; stroke: #000000; stroke-width: 0.8; stroke-linecap: square"/>
    </g>
    <g id="text_10">
     <!-- −20 -->
     <g transform="translate(260.101147 254.773353)scale(0.1 -0.1)">
      <defs>
       <path id="TimesNewRomanPSMT-32" d="M 2934 816 
L 2638 0 
L 138 0 
L 138 116 
Q 1241 1122 1691 1759 
Q 2141 2397 2141 2925 
Q 2141 3328 1894 3587 
Q 1647 3847 1303 3847 
Q 991 3847 742 3664 
Q 494 3481 375 3128 
L 259 3128 
Q 338 3706 661 4015 
Q 984 4325 1469 4325 
Q 1984 4325 2329 3994 
Q 2675 3663 2675 3213 
Q 2675 2891 2525 2569 
Q 2294 2063 1775 1497 
Q 997 647 803 472 
L 1909 472 
Q 2247 472 2383 497 
Q 2519 522 2628 598 
Q 2738 675 2819 816 
L 2934 816 
z
" transform="scale(0.015625)"/>
      </defs>
      <use xlink:href="#TimesNewRomanPSMT-2212"/>
      <use xlink:href="#TimesNewRomanPSMT-32" x="56.396484"/>
      <use xlink:href="#TimesNewRomanPSMT-30" x="106.396484"/>
     </g>
    </g>
   </g>
   <g id="xtick_9">
    <g id="line2d_11">
     <path d="M 269.337746 218.347136 
L 272.375343 219.30645 
" style="fill: none; stroke: #000000; stroke-width: 0.8; stroke-linecap: square"/>
    </g>
    <g id="text_11">
     <!-- −10 -->
     <g transform="translate(275.172187 238.763568)scale(0.1 -0.1)">
      <use xlink:href="#TimesNewRomanPSMT-2212"/>
      <use xlink:href="#TimesNewRomanPSMT-31" x="56.396484"/>
      <use xlink:href="#TimesNewRomanPSMT-30" x="106.396484"/>
     </g>
    </g>
   </g>
   <g id="xtick_10">
    <g id="line2d_12">
     <path d="M 284.063211 203.262256 
L 287.058469 204.183674 
" style="fill: none; stroke: #000000; stroke-width: 0.8; stroke-linecap: square"/>
    </g>
    <g id="text_12">
     <!-- 0 -->
     <g transform="translate(294.961119 223.3929)scale(0.1 -0.1)">
      <use xlink:href="#TimesNewRomanPSMT-30"/>
     </g>
    </g>
   </g>
   <g id="xtick_11">
    <g id="line2d_13">
     <path d="M 298.212967 188.767137 
L 301.16684 189.652863 
" style="fill: none; stroke: #000000; stroke-width: 0.8; stroke-linecap: square"/>
    </g>
    <g id="text_13">
     <!-- 10 -->
     <g transform="translate(306.3642 208.623825)scale(0.1 -0.1)">
      <use xlink:href="#TimesNewRomanPSMT-31"/>
      <use xlink:href="#TimesNewRomanPSMT-30" x="50"/>
     </g>
    </g>
   </g>
   <g id="xtick_12">
    <g id="line2d_14">
     <path d="M 311.820127 174.827858 
L 314.733557 175.679924 
" style="fill: none; stroke: #000000; stroke-width: 0.8; stroke-linecap: square"/>
    </g>
    <g id="text_14">
     <!-- 20 -->
     <g transform="translate(319.733571 194.421704)scale(0.1 -0.1)">
      <use xlink:href="#TimesNewRomanPSMT-32"/>
      <use xlink:href="#TimesNewRomanPSMT-30" x="50"/>
     </g>
    </g>
   </g>
  </g>
  <g id="axis3d_3">
   <g id="line2d_15">
    <path d="M 316.12668 171.68791 
L 320.238571 81.894718 
" style="fill: none; stroke: #000000; stroke-width: 0.8; stroke-linecap: square"/>
   </g>
   <g id="text_15">
    <!-- Z -->
    <g transform="translate(355.399591 124.775946)scale(0.1 -0.1)">
     <defs>
      <path id="TimesNewRomanPSMT-5a" d="M 3681 4238 
L 897 256 
L 2634 256 
Q 3034 256 3248 431 
Q 3463 606 3628 1141 
L 3731 1122 
L 3531 0 
L 81 0 
L 81 116 
L 2800 3984 
L 1444 3984 
Q 1106 3984 954 3911 
Q 803 3838 723 3698 
Q 644 3559 578 3178 
L 459 3178 
L 547 4238 
L 3681 4238 
z
" transform="scale(0.015625)"/>
     </defs>
     <use xlink:href="#TimesNewRomanPSMT-5a"/>
    </g>
   </g>
   <g id="Line3DCollection_3">
    <path d="M 316.585124 161.676672 
L 200.792512 128.501167 
L 128.604554 188.134974 
" style="fill: none; stroke: #b0b0b0; stroke-width: 0.8"/>
    <path d="M 317.280039 146.501503 
L 200.623603 113.812453 
L 127.855895 172.588581 
" style="fill: none; stroke: #b0b0b0; stroke-width: 0.8"/>
    <path d="M 317.985503 131.095962 
L 200.452254 98.911474 
L 127.095434 156.79712 
" style="fill: none; stroke: #b0b0b0; stroke-width: 0.8"/>
    <path d="M 318.701759 115.454764 
L 200.27841 83.793597 
L 126.32289 140.754749 
" style="fill: none; stroke: #b0b0b0; stroke-width: 0.8"/>
    <path d="M 319.429056 99.57246 
L 200.102018 68.45405 
L 125.537973 124.455441 
" style="fill: none; stroke: #b0b0b0; stroke-width: 0.8"/>
   </g>
   <g id="xtick_13">
    <g id="line2d_16">
     <path d="M 315.613078 161.398173 
L 318.531539 162.234336 
" style="fill: none; stroke: #000000; stroke-width: 0.8; stroke-linecap: square"/>
    </g>
    <g id="text_16">
     <!-- 15 -->
     <g transform="translate(329.910582 166.041111)scale(0.1 -0.1)">
      <use xlink:href="#TimesNewRomanPSMT-31"/>
      <use xlink:href="#TimesNewRomanPSMT-35" x="50"/>
     </g>
    </g>
   </g>
   <g id="xtick_14">
    <g id="line2d_17">
     <path d="M 316.300394 146.22699 
L 319.241687 147.051189 
" style="fill: none; stroke: #000000; stroke-width: 0.8; stroke-linecap: square"/>
    </g>
    <g id="text_17">
     <!-- 20 -->
     <g transform="translate(330.740454 150.902925)scale(0.1 -0.1)">
      <use xlink:href="#TimesNewRomanPSMT-32"/>
      <use xlink:href="#TimesNewRomanPSMT-30" x="50"/>
     </g>
    </g>
   </g>
   <g id="xtick_15">
    <g id="line2d_18">
     <path d="M 316.998141 130.82559 
L 319.962623 131.637363 
" style="fill: none; stroke: #000000; stroke-width: 0.8; stroke-linecap: square"/>
    </g>
    <g id="text_18">
     <!-- 25 -->
     <g transform="translate(331.582877 135.535789)scale(0.1 -0.1)">
      <use xlink:href="#TimesNewRomanPSMT-32"/>
      <use xlink:href="#TimesNewRomanPSMT-35" x="50"/>
     </g>
    </g>
   </g>
   <g id="xtick_16">
    <g id="line2d_19">
     <path d="M 317.706557 115.188691 
L 320.694597 115.987561 
" style="fill: none; stroke: #000000; stroke-width: 0.8; stroke-linecap: square"/>
    </g>
    <g id="text_19">
     <!-- 30 -->
     <g transform="translate(332.438139 119.934469)scale(0.1 -0.1)">
      <defs>
       <path id="TimesNewRomanPSMT-33" d="M 325 3431 
Q 506 3859 782 4092 
Q 1059 4325 1472 4325 
Q 1981 4325 2253 3994 
Q 2459 3747 2459 3466 
Q 2459 3003 1878 2509 
Q 2269 2356 2469 2072 
Q 2669 1788 2669 1403 
Q 2669 853 2319 450 
Q 1863 -75 997 -75 
Q 569 -75 414 31 
Q 259 138 259 259 
Q 259 350 332 419 
Q 406 488 509 488 
Q 588 488 669 463 
Q 722 447 909 348 
Q 1097 250 1169 231 
Q 1284 197 1416 197 
Q 1734 197 1970 444 
Q 2206 691 2206 1028 
Q 2206 1275 2097 1509 
Q 2016 1684 1919 1775 
Q 1784 1900 1550 2001 
Q 1316 2103 1072 2103 
L 972 2103 
L 972 2197 
Q 1219 2228 1467 2375 
Q 1716 2522 1828 2728 
Q 1941 2934 1941 3181 
Q 1941 3503 1739 3701 
Q 1538 3900 1238 3900 
Q 753 3900 428 3381 
L 325 3431 
z
" transform="scale(0.015625)"/>
      </defs>
      <use xlink:href="#TimesNewRomanPSMT-33"/>
      <use xlink:href="#TimesNewRomanPSMT-30" x="50"/>
     </g>
    </g>
   </g>
   <g id="xtick_17">
    <g id="line2d_20">
     <path d="M 318.425888 99.310851 
L 321.437864 100.096322 
" style="fill: none; stroke: #000000; stroke-width: 0.8; stroke-linecap: square"/>
    </g>
    <g id="text_20">
     <!-- 35 -->
     <g transform="translate(333.306533 104.093572)scale(0.1 -0.1)">
      <use xlink:href="#TimesNewRomanPSMT-33"/>
      <use xlink:href="#TimesNewRomanPSMT-35" x="50"/>
     </g>
    </g>
   </g>
  </g>
  <g id="axes_1">
   <g id="line2d_21">
    <path d="M 210.02991 182.042575 
L 207.805536 184.096705 
L 206.54096 185.054618 
L 205.162488 185.958828 
L 203.660308 186.8018 
L 202.024217 187.574157 
L 200.24374 188.264311 
L 198.30832 188.858031 
L 196.207579 189.33796 
L 193.931699 189.683081 
L 191.471922 189.868144 
L 188.821236 189.863073 
L 185.975252 189.632418 
L 182.933321 189.134896 
L 179.699932 188.323142 
L 176.286392 187.143817 
L 172.712789 185.538265 
L 169.010191 183.443976 
L 165.222936 180.797157 
L 161.410816 177.536704 
L 157.650778 173.609852 
L 154.037673 168.979592 
L 150.683428 163.633652 
L 147.713996 157.594389 
L 145.263522 150.928288 
L 143.465512 143.753171 
L 142.441361 136.240783 
L 142.287401 128.612505 
L 143.062405 121.126849 
L 144.777977 114.05904 
L 147.394113 107.675148 
L 150.821331 102.205134 
L 154.929297 97.819958 
L 159.560343 94.617193 
L 164.545196 92.61744 
L 169.718021 91.771193 
L 174.928489 91.973465 
L 180.049661 93.082383 
L 184.981597 94.937939 
L 189.651416 97.37813 
L 194.0109 100.250952 
L 198.03276 103.421961 
L 201.706452 106.777906 
L 205.034148 110.227354 
L 208.027204 113.699318 
L 210.703238 117.14076 
L 213.083831 120.513639 
L 215.19278 123.791958 
L 217.0548 126.959071 
L 218.694607 130.005371 
L 221.402758 135.721374 
L 223.495269 140.941611 
L 225.126784 145.695906 
L 226.987322 152.041139 
L 230.625948 165.205883 
L 231.574675 167.77918 
L 232.635208 170.089479 
L 233.851278 172.135536 
L 235.26818 173.907296 
L 236.934784 175.384463 
L 237.878384 176.002928 
L 238.905165 176.534393 
L 240.022886 176.972369 
L 241.239735 177.309186 
L 242.564312 177.535846 
L 244.005588 177.64187 
L 245.572835 177.615136 
L 247.275507 177.441708 
L 249.123067 177.105675 
L 251.124744 176.589007 
L 253.2892 175.871444 
L 255.624089 174.930461 
L 258.135481 173.741332 
L 260.827124 172.277354 
L 263.699528 170.5103 
L 266.748842 168.411172 
L 269.965514 165.951371 
L 273.332741 163.104377 
L 276.824757 159.848051 
L 280.405015 156.167653 
L 284.024435 152.059596 
L 287.61991 147.53587 
L 291.1134 142.628909 
L 294.411997 137.396442 
L 297.409423 131.925592 
L 299.989413 126.335234 
L 302.031317 120.775391 
L 303.418008 115.422497 
L 304.045712 110.469707 
L 303.834845 106.112261 
L 302.740362 102.529092 
L 300.759733 99.863232 
L 297.936715 98.204575 
L 294.359688 97.578707 
L 290.154376 97.944543 
L 285.472068 99.201496 
L 280.475439 101.204604 
L 275.324494 103.784167 
L 270.164841 106.765802 
L 265.119646 109.987377 
L 260.285624 113.310681 
L 255.73257 116.627324 
L 247.628214 122.957787 
L 240.938001 128.66335 
L 235.585634 133.71315 
L 231.393846 138.209806 
L 228.153445 142.288864 
L 225.66068 146.069381 
L 223.73415 149.638053 
L 222.220178 153.050207 
L 220.992249 156.337019 
L 219.003241 162.585046 
L 217.15211 168.412664 
L 215.585539 172.498007 
L 214.366388 175.079333 
L 212.951926 177.540752 
L 211.291261 179.873394 
L 209.328311 182.062425 
L 207.000279 184.083326 
L 205.677678 185.019153 
L 204.236851 185.896588 
L 202.667901 186.70713 
L 200.960628 187.44026 
L 199.104674 188.08305 
L 197.089759 188.619708 
L 194.905997 189.031081 
L 192.54434 189.294112 
L 189.997166 189.381269 
L 187.259056 189.259992 
L 184.327786 188.892207 
L 181.205569 188.233995 
L 177.900573 187.235537 
L 174.428725 185.841515 
L 170.815749 183.992184 
L 167.099377 181.625384 
L 163.331536 178.67979 
L 159.580242 175.099685 
L 155.930785 170.841402 
L 152.485651 165.88143 
L 149.362584 160.225701 
L 146.690166 153.919142 
L 144.600542 147.053889 
L 143.219379 139.774062 
L 142.653774 132.274864 
L 142.979686 124.794191 
L 144.231034 117.596256 
L 146.392812 110.94861 
L 149.400046 105.095964 
L 153.143237 100.235567 
L 157.479424 96.498894 
L 162.246715 93.942972 
L 167.279505 92.552244 
L 172.42181 92.249394 
L 177.537028 92.911884 
L 182.513498 94.390415 
L 187.266223 96.526085 
L 191.735659 99.164166 
L 195.884658 102.16363 
L 199.694574 105.402573 
L 203.161224 108.780249 
L 206.291186 112.216666 
L 209.098632 115.650675 
L 211.602781 119.037293 
L 213.825901 122.344812 
L 215.791825 125.552036 
L 217.524857 128.645836 
L 220.387384 134.469053 
L 222.5934 139.802337 
L 224.301177 144.668761 
L 225.644596 149.105459 
L 227.212528 155.041926 
L 229.298944 163.30702 
L 229.298944 163.30702 
" clip-path="url(#p56ece7fc61)" style="fill: none; stroke: #ff0000; stroke-width: 1.5; stroke-linecap: square"/>
   </g>
   <g id="line2d_22">
    <path d="M 210.02991 182.042575 
L 207.806563 184.095856 
L 206.542633 185.053403 
L 205.164913 185.957301 
L 203.663608 186.800028 
L 202.028532 187.572222 
L 200.249232 188.262311 
L 198.315163 188.856094 
L 196.215954 189.33625 
L 193.941787 189.681808 
L 191.483906 189.867568 
L 188.835307 189.863518 
L 185.991604 189.634279 
L 182.952129 189.138657 
L 179.72132 188.329383 
L 176.310413 187.153221 
L 172.739407 185.551619 
L 169.039245 183.462165 
L 165.254099 180.821143 
L 161.443548 177.56749 
L 157.68429 173.648414 
L 154.0709 169.026783 
L 150.715021 163.690065 
L 147.742325 157.660191 
L 145.286718 151.003069 
L 143.48159 143.835816 
L 142.448428 136.329349 
L 142.283763 128.704262 
L 143.046859 121.218399 
L 144.749833 114.146579 
L 147.353524 107.7548 
L 150.769039 102.27345 
L 154.866757 97.874102 
L 159.489507 94.655303 
L 164.468205 92.638756 
L 169.637104 91.775892 
L 174.845823 91.96261 
L 179.967103 93.05769 
L 184.900744 94.901393 
L 189.573498 97.331915 
L 193.9368 100.197184 
L 197.963122 103.362571 
L 201.641603 106.714589 
L 204.974282 110.161533 
L 207.972258 113.63213 
L 210.653164 117.073085 
L 213.038436 120.446183 
L 215.151756 123.725237 
L 217.01785 126.893432 
L 218.661427 129.941055 
L 221.376135 135.66012 
L 223.473843 140.883629 
L 225.109294 145.641168 
L 226.973653 151.991015 
L 230.61293 165.16676 
L 231.560008 167.742807 
L 232.618137 170.056034 
L 233.830973 172.105323 
L 235.243715 173.880782 
L 236.905115 175.362319 
L 237.845673 175.983304 
L 238.869089 176.517563 
L 239.9831 176.958655 
L 241.195871 177.298959 
L 242.51598 177.529533 
L 243.952379 177.639966 
L 245.514309 177.618216 
L 247.211196 177.450435 
L 249.052496 177.120805 
L 251.047454 176.61139 
L 253.204754 175.90204 
L 255.532074 174.970352 
L 258.035536 173.791719 
L 260.718991 172.339539 
L 263.583105 170.585655 
L 266.624235 168.501117 
L 269.833091 166.057326 
L 273.193209 163.227683 
L 276.679246 159.989849 
L 280.255172 156.328725 
L 283.872519 152.240176 
L 287.468874 147.735436 
L 290.966943 142.845944 
L 294.274561 137.628194 
L 297.286109 132.167869 
L 299.885804 126.582286 
L 301.953191 121.019977 
L 303.37095 115.656133 
L 304.034596 110.683183 
L 303.863291 106.29644 
L 302.810355 102.675725 
L 300.871151 99.965971 
L 298.087213 98.259722 
L 294.544823 97.585693 
L 290.368085 97.90588 
L 285.70715 99.122359 
L 280.72424 101.09211 
L 275.57962 103.646354 
L 270.419594 106.610734 
L 265.368398 109.822399 
L 260.52398 113.141955 
L 255.957427 116.459576 
L 247.820815 122.800763 
L 241.0969 128.521448 
L 235.713373 133.585462 
L 231.494785 138.093366 
L 228.23248 142.18039 
L 225.722548 145.966244 
L 223.783093 149.538506 
L 222.259807 152.953166 
L 221.025646 156.241921 
L 219.496247 160.969857 
L 217.182712 168.325258 
L 215.622171 172.414137 
L 214.409047 174.998097 
L 213.002352 177.462471 
L 211.351406 179.798552 
L 209.400401 181.991771 
L 207.086855 184.01803 
L 205.772554 184.957175 
L 204.340792 185.8385 
L 202.781715 186.653639 
L 201.085155 187.392237 
L 199.240777 188.041563 
L 197.238296 188.586065 
L 195.067793 189.006873 
L 192.720144 189.281258 
L 190.187611 189.382062 
L 187.464604 189.277146 
L 184.548643 188.9289 
L 181.441563 188.293893 
L 178.151017 187.322794 
L 174.692267 185.960731 
L 171.090208 184.148303 
L 167.38155 181.823511 
L 163.617016 178.924899 
L 159.863266 175.396196 
L 156.204154 171.192619 
L 152.740775 166.28883 
L 149.589676 160.688144 
L 146.878646 154.432091 
L 144.739694 147.608806 
L 143.299266 140.35811 
L 142.666277 132.871145 
L 142.919437 125.382638 
L 144.096319 118.155142 
L 146.185918 111.456575 
L 149.127279 105.534134 
L 152.814248 100.589445 
L 157.106248 96.759597 
L 161.842535 94.107651 
L 166.857525 92.623753 
L 171.994152 92.235151 
L 177.114174 92.8225 
L 182.103777 94.238299 
L 186.875998 96.323955 
L 191.369252 98.924191 
L 195.544664 101.896794 
L 199.382291 105.118189 
L 202.876794 108.486003 
L 206.033994 111.918593 
L 208.867454 115.35336 
L 211.396129 118.7441 
L 213.641958 122.058136 
L 215.62866 125.273462 
L 217.380544 128.376332 
L 220.275136 134.218951 
L 222.506156 139.571632 
L 224.232736 144.456389 
L 225.589714 148.909967 
L 227.170013 154.868995 
L 229.261348 163.165848 
L 229.261348 163.165848 
" clip-path="url(#p56ece7fc61)" style="fill: none; stroke-dasharray: 5.55,2.4; stroke-dashoffset: 0; stroke: #0000ff; stroke-width: 1.5"/>
   </g>
  </g>
 </g>
 <defs>
  <clipPath id="p56ece7fc61">
   <rect x="112.68" y="34.56" width="217.44" height="217.44"/>
  </clipPath>
 </defs>
</svg>
