<?xml version="1.0" encoding="utf-8" standalone="no"?>
<!DOCTYPE svg PUBLIC "-//W3C//DTD SVG 1.1//EN"
  "http://www.w3.org/Graphics/SVG/1.1/DTD/svg11.dtd">
<svg xmlns:xlink="http://www.w3.org/1999/xlink" width="432pt" height="288pt" viewBox="0 0 432 288" xmlns="http://www.w3.org/2000/svg" version="1.1">
 <metadata>
  <rdf:RDF xmlns:dc="http://purl.org/dc/elements/1.1/" xmlns:cc="http://creativecommons.org/ns#" xmlns:rdf="http://www.w3.org/1999/02/22-rdf-syntax-ns#">
   <cc:Work>
    <dc:type rdf:resource="http://purl.org/dc/dcmitype/StillImage"/>
    <dc:date>2022-05-17T05:02:26.706188</dc:date>
    <dc:format>image/svg+xml</dc:format>
    <dc:creator>
     <cc:Agent>
      <dc:title>Matplotlib v3.5.1, https://matplotlib.org/</dc:title>
     </cc:Agent>
    </dc:creator>
   </cc:Work>
  </rdf:RDF>
 </metadata>
 <defs>
  <style type="text/css">*{stroke-linejoin: round; stroke-linecap: butt}</style>
 </defs>
 <g id="figure_1">
  <g id="patch_1">
   <path d="M 0 288 
L 432 288 
L 432 0 
L 0 0 
L 0 288 
z
" style="fill: none"/>
  </g>
  <g id="patch_2">
   <path d="M 112.68 252 
L 330.12 252 
L 330.12 34.56 
L 112.68 34.56 
z
" style="fill: #ffffff"/>
  </g>
  <g id="pane3d_1">
   <g id="patch_3">
    <path d="M 129.09822 198.386264 
L 200.904009 138.197228 
L 199.90584 51.393878 
L 124.663773 106.302111 
" style="fill: #f2f2f2; opacity: 0.5; stroke: #f2f2f2; stroke-linejoin: miter"/>
   </g>
  </g>
  <g id="pane3d_2">
   <g id="patch_4">
    <path d="M 200.904009 138.197228 
L 316.12668 171.68791 
L 320.238571 81.894718 
L 199.90584 51.393878 
" style="fill: #e6e6e6; opacity: 0.5; stroke: #e6e6e6; stroke-linejoin: miter"/>
   </g>
  </g>
  <g id="pane3d_3">
   <g id="patch_5">
    <path d="M 129.09822 198.386264 
L 251.239879 238.27773 
L 316.12668 171.68791 
L 200.904009 138.197228 
" style="fill: #ececec; opacity: 0.5; stroke: #ececec; stroke-linejoin: miter"/>
   </g>
  </g>
  <g id="axis3d_1">
   <g id="line2d_1">
    <path d="M 129.09822 198.386264 
L 251.239879 238.27773 
" style="fill: none; stroke: #000000; stroke-width: 0.8; stroke-linecap: square"/>
   </g>
   <g id="Line3DCollection_1">
    <path d="M 131.465109 199.15929 
L 203.146508 138.849034 
L 202.242949 51.986267 
" style="fill: none; stroke: #b0b0b0; stroke-width: 0.8"/>
    <path d="M 156.679829 207.394418 
L 227.012239 145.78586 
L 227.127462 58.293766 
" style="fill: none; stroke: #b0b0b0; stroke-width: 0.8"/>
    <path d="M 182.46409 215.815557 
L 251.372038 152.866292 
L 252.549574 64.73753 
" style="fill: none; stroke: #b0b0b0; stroke-width: 0.8"/>
    <path d="M 208.837408 224.429083 
L 276.241408 160.094836 
L 278.526896 71.322024 
" style="fill: none; stroke: #b0b0b0; stroke-width: 0.8"/>
    <path d="M 235.820203 233.241664 
L 301.636508 167.476189 
L 305.077817 78.051908 
" style="fill: none; stroke: #b0b0b0; stroke-width: 0.8"/>
   </g>
   <g id="xtick_1">
    <g id="line2d_2">
     <path d="M 132.089193 198.634207 
L 130.214267 200.211705 
" style="fill: none; stroke: #000000; stroke-width: 0.8; stroke-linecap: square"/>
    </g>
    <g id="text_1">
     <!-- −10 -->
     <g transform="translate(113.37142 222.438944)scale(0.1 -0.1)">
      <defs>
       <path id="DejaVuSans-2212" d="M 678 2272 
L 4684 2272 
L 4684 1741 
L 678 1741 
L 678 2272 
z
" transform="scale(0.015625)"/>
       <path id="DejaVuSans-31" d="M 794 531 
L 1825 531 
L 1825 4091 
L 703 3866 
L 703 4441 
L 1819 4666 
L 2450 4666 
L 2450 531 
L 3481 531 
L 3481 0 
L 794 0 
L 794 531 
z
" transform="scale(0.015625)"/>
       <path id="DejaVuSans-30" d="M 2034 4250 
Q 1547 4250 1301 3770 
Q 1056 3291 1056 2328 
Q 1056 1369 1301 889 
Q 1547 409 2034 409 
Q 2525 409 2770 889 
Q 3016 1369 3016 2328 
Q 3016 3291 2770 3770 
Q 2525 4250 2034 4250 
z
M 2034 4750 
Q 2819 4750 3233 4129 
Q 3647 3509 3647 2328 
Q 3647 1150 3233 529 
Q 2819 -91 2034 -91 
Q 1250 -91 836 529 
Q 422 1150 422 2328 
Q 422 3509 836 4129 
Q 1250 4750 2034 4750 
z
" transform="scale(0.015625)"/>
      </defs>
      <use xlink:href="#DejaVuSans-2212"/>
      <use xlink:href="#DejaVuSans-31" x="83.789062"/>
      <use xlink:href="#DejaVuSans-30" x="147.412109"/>
     </g>
    </g>
   </g>
   <g id="xtick_2">
    <g id="line2d_3">
     <path d="M 157.292723 206.857545 
L 155.451386 208.470488 
" style="fill: none; stroke: #000000; stroke-width: 0.8; stroke-linecap: square"/>
    </g>
    <g id="text_2">
     <!-- −5 -->
     <g transform="translate(141.798618 230.88783)scale(0.1 -0.1)">
      <defs>
       <path id="DejaVuSans-35" d="M 691 4666 
L 3169 4666 
L 3169 4134 
L 1269 4134 
L 1269 2991 
Q 1406 3038 1543 3061 
Q 1681 3084 1819 3084 
Q 2600 3084 3056 2656 
Q 3513 2228 3513 1497 
Q 3513 744 3044 326 
Q 2575 -91 1722 -91 
Q 1428 -91 1123 -41 
Q 819 9 494 109 
L 494 744 
Q 775 591 1075 516 
Q 1375 441 1709 441 
Q 2250 441 2565 725 
Q 2881 1009 2881 1497 
Q 2881 1984 2565 2268 
Q 2250 2553 1709 2553 
Q 1456 2553 1204 2497 
Q 953 2441 691 2322 
L 691 4666 
z
" transform="scale(0.015625)"/>
      </defs>
      <use xlink:href="#DejaVuSans-2212"/>
      <use xlink:href="#DejaVuSans-35" x="83.789062"/>
     </g>
    </g>
   </g>
   <g id="xtick_3">
    <g id="line2d_4">
     <path d="M 183.065126 215.266494 
L 181.259384 216.916088 
" style="fill: none; stroke: #000000; stroke-width: 0.8; stroke-linecap: square"/>
    </g>
    <g id="text_3">
     <!-- 0 -->
     <g transform="translate(171.807305 239.528443)scale(0.1 -0.1)">
      <use xlink:href="#DejaVuSans-30"/>
     </g>
    </g>
   </g>
   <g id="xtick_4">
    <g id="line2d_5">
     <path d="M 209.425882 223.867409 
L 207.657853 225.554918 
" style="fill: none; stroke: #000000; stroke-width: 0.8; stroke-linecap: square"/>
    </g>
    <g id="text_4">
     <!-- 5 -->
     <g transform="translate(198.218769 248.367385)scale(0.1 -0.1)">
      <use xlink:href="#DejaVuSans-35"/>
     </g>
    </g>
   </g>
   <g id="xtick_5">
    <g id="line2d_6">
     <path d="M 236.395371 232.66694 
L 234.66729 234.393687 
" style="fill: none; stroke: #000000; stroke-width: 0.8; stroke-linecap: square"/>
    </g>
    <g id="text_5">
     <!-- 10 -->
     <g transform="translate(222.062242 257.411561)scale(0.1 -0.1)">
      <use xlink:href="#DejaVuSans-31"/>
      <use xlink:href="#DejaVuSans-30" x="63.623047"/>
     </g>
    </g>
   </g>
  </g>
  <g id="axis3d_2">
   <g id="line2d_7">
    <path d="M 316.12668 171.68791 
L 251.239879 238.27773 
" style="fill: none; stroke: #000000; stroke-width: 0.8; stroke-linecap: square"/>
   </g>
   <g id="Line3DCollection_2">
    <path d="M 132.420747 100.641425 
L 136.475761 192.202262 
L 257.932999 231.408942 
" style="fill: none; stroke: #b0b0b0; stroke-width: 0.8"/>
    <path d="M 151.324186 86.846556 
L 154.478717 177.111828 
L 274.240299 214.673641 
" style="fill: none; stroke: #b0b0b0; stroke-width: 0.8"/>
    <path d="M 169.428554 73.634813 
L 171.752879 162.632283 
L 289.853523 198.650632 
" style="fill: none; stroke: #b0b0b0; stroke-width: 0.8"/>
    <path d="M 186.783469 60.969986 
L 188.341625 148.727267 
L 304.816061 183.295388 
" style="fill: none; stroke: #b0b0b0; stroke-width: 0.8"/>
   </g>
   <g id="xtick_6">
    <g id="line2d_8">
     <path d="M 256.909627 231.078595 
L 259.982382 232.070488 
" style="fill: none; stroke: #000000; stroke-width: 0.8; stroke-linecap: square"/>
    </g>
    <g id="text_6">
     <!-- −10 -->
     <g transform="translate(260.226861 252.391462)scale(0.1 -0.1)">
      <use xlink:href="#DejaVuSans-2212"/>
      <use xlink:href="#DejaVuSans-31" x="83.789062"/>
      <use xlink:href="#DejaVuSans-30" x="147.412109"/>
     </g>
    </g>
   </g>
   <g id="xtick_7">
    <g id="line2d_9">
     <path d="M 273.232322 214.357501 
L 276.258794 215.306719 
" style="fill: none; stroke: #000000; stroke-width: 0.8; stroke-linecap: square"/>
    </g>
    <g id="text_7">
     <!-- −5 -->
     <g transform="translate(279.447542 235.352969)scale(0.1 -0.1)">
      <use xlink:href="#DejaVuSans-2212"/>
      <use xlink:href="#DejaVuSans-35" x="83.789062"/>
     </g>
    </g>
   </g>
   <g id="xtick_8">
    <g id="line2d_10">
     <path d="M 288.860572 198.347802 
L 291.841875 199.25704 
" style="fill: none; stroke: #000000; stroke-width: 0.8; stroke-linecap: square"/>
    </g>
    <g id="text_8">
     <!-- 0 -->
     <g transform="translate(298.993665 219.040179)scale(0.1 -0.1)">
      <use xlink:href="#DejaVuSans-30"/>
     </g>
    </g>
   </g>
   <g id="xtick_9">
    <g id="line2d_11">
     <path d="M 303.837772 183.005044 
L 306.775004 183.876777 
" style="fill: none; stroke: #000000; stroke-width: 0.8; stroke-linecap: square"/>
    </g>
    <g id="text_9">
     <!-- 5 -->
     <g transform="translate(313.709528 203.407696)scale(0.1 -0.1)">
      <use xlink:href="#DejaVuSans-35"/>
     </g>
    </g>
   </g>
  </g>
  <g id="axis3d_3">
   <g id="line2d_12">
    <path d="M 316.12668 171.68791 
L 320.238571 81.894718 
" style="fill: none; stroke: #000000; stroke-width: 0.8; stroke-linecap: square"/>
   </g>
   <g id="Line3DCollection_3">
    <path d="M 317.079968 150.870545 
L 200.672221 118.040366 
L 128.071483 177.065408 
" style="fill: none; stroke: #b0b0b0; stroke-width: 0.8"/>
    <path d="M 317.973746 131.352719 
L 200.455109 99.159733 
L 127.108112 157.060383 
" style="fill: none; stroke: #b0b0b0; stroke-width: 0.8"/>
    <path d="M 318.884918 111.455034 
L 200.233976 79.929473 
L 126.125264 136.650918 
" style="fill: none; stroke: #b0b0b0; stroke-width: 0.8"/>
    <path d="M 319.813999 91.166292 
L 200.00871 60.339783 
L 125.122344 115.824624 
" style="fill: none; stroke: #b0b0b0; stroke-width: 0.8"/>
   </g>
   <g id="xtick_10">
    <g id="line2d_13">
     <path d="M 316.102511 150.594875 
L 319.037229 151.422546 
" style="fill: none; stroke: #000000; stroke-width: 0.8; stroke-linecap: square"/>
    </g>
    <g id="text_10">
     <!-- 5 -->
     <g transform="translate(332.320283 155.91592)scale(0.1 -0.1)">
      <use xlink:href="#DejaVuSans-35"/>
     </g>
    </g>
   </g>
   <g id="xtick_11">
    <g id="line2d_14">
     <path d="M 316.986512 131.082276 
L 319.950608 131.894259 
" style="fill: none; stroke: #000000; stroke-width: 0.8; stroke-linecap: square"/>
    </g>
    <g id="text_11">
     <!-- 10 -->
     <g transform="translate(330.206338 136.446586)scale(0.1 -0.1)">
      <use xlink:href="#DejaVuSans-31"/>
      <use xlink:href="#DejaVuSans-30" x="63.623047"/>
     </g>
    </g>
   </g>
   <g id="xtick_12">
    <g id="line2d_15">
     <path d="M 317.88771 111.190076 
L 320.881777 111.985599 
" style="fill: none; stroke: #000000; stroke-width: 0.8; stroke-linecap: square"/>
    </g>
    <g id="text_12">
     <!-- 15 -->
     <g transform="translate(331.294336 116.599768)scale(0.1 -0.1)">
      <use xlink:href="#DejaVuSans-31"/>
      <use xlink:href="#DejaVuSans-35" x="63.623047"/>
     </g>
    </g>
   </g>
   <g id="xtick_13">
    <g id="line2d_16">
     <path d="M 318.806613 90.907086 
L 321.831263 91.685344 
" style="fill: none; stroke: #000000; stroke-width: 0.8; stroke-linecap: square"/>
    </g>
    <g id="text_13">
     <!-- 20 -->
     <g transform="translate(332.403636 96.364379)scale(0.1 -0.1)">
      <defs>
       <path id="DejaVuSans-32" d="M 1228 531 
L 3431 531 
L 3431 0 
L 469 0 
L 469 531 
Q 828 903 1448 1529 
Q 2069 2156 2228 2338 
Q 2531 2678 2651 2914 
Q 2772 3150 2772 3378 
Q 2772 3750 2511 3984 
Q 2250 4219 1831 4219 
Q 1534 4219 1204 4116 
Q 875 4013 500 3803 
L 500 4441 
Q 881 4594 1212 4672 
Q 1544 4750 1819 4750 
Q 2544 4750 2975 4387 
Q 3406 4025 3406 3419 
Q 3406 3131 3298 2873 
Q 3191 2616 2906 2266 
Q 2828 2175 2409 1742 
Q 1991 1309 1228 531 
z
" transform="scale(0.015625)"/>
      </defs>
      <use xlink:href="#DejaVuSans-32"/>
      <use xlink:href="#DejaVuSans-30" x="63.623047"/>
     </g>
    </g>
   </g>
  </g>
  <g id="axes_1">
   <g id="line2d_17">
    <path d="M 227.869821 149.84957 
L 223.466424 149.594848 
L 219.429302 149.575741 
L 215.350148 149.764831 
L 211.257318 150.167084 
L 207.180019 150.784933 
L 203.148096 151.618889 
L 199.191857 152.667826 
L 195.341932 153.929082 
L 191.629122 155.398483 
L 188.468872 156.874778 
L 185.462867 158.506008 
L 182.632467 160.286136 
L 179.99873 162.208119 
L 177.58229 164.263884 
L 175.661963 166.165285 
L 173.936418 168.155391 
L 172.418201 170.226827 
L 171.119294 172.371605 
L 170.05103 174.581128 
L 169.224004 176.846206 
L 168.647979 179.157065 
L 168.360742 181.166419 
L 168.269388 183.194999 
L 168.378279 185.235709 
L 168.691135 187.281193 
L 169.210978 189.323858 
L 169.940094 191.355898 
L 170.879982 193.369314 
L 172.031319 195.35595 
L 173.393912 197.307518 
L 174.966668 199.215634 
L 176.747553 201.071854 
L 179.084252 203.16056 
L 181.69365 205.153699 
L 184.567401 207.037986 
L 187.695258 208.800345 
L 191.065063 210.427997 
L 194.66275 211.908542 
L 198.472374 213.230025 
L 202.47615 214.380986 
L 206.654505 215.350478 
L 210.986149 216.128039 
L 215.448147 216.703584 
L 220.01599 217.067196 
L 224.663656 217.208739 
L 229.363632 217.117204 
L 234.086875 216.779629 
L 238.130656 216.281985 
L 242.148505 215.577337 
L 246.118584 214.646132 
L 249.37352 213.677256 
L 252.563976 212.509217 
L 255.673408 211.110834 
L 258.090126 209.797886 
L 260.432146 208.281087 
L 262.686984 206.522866 
L 264.312268 205.017346 
L 265.873372 203.324446 
L 267.362285 201.414732 
L 268.769842 199.253663 
L 270.085507 196.801186 
L 271.297147 194.011602 
L 272.390787 190.83385 
L 273.35036 187.2125 
L 274.157488 183.089769 
L 274.791321 178.40899 
L 275.228496 173.119996 
L 275.443299 167.186853 
L 275.408136 160.598212 
L 275.094439 153.380105 
L 274.474158 145.610311 
L 273.521949 137.43228 
L 272.692667 131.858503 
L 271.703175 126.283594 
L 270.552046 120.806582 
L 269.240662 115.538592 
L 267.773648 110.598882 
L 266.159203 106.109372 
L 264.409261 102.187993 
L 262.539424 98.941324 
L 261.565356 97.599389 
L 260.568665 96.457261 
L 259.552155 95.521941 
L 258.518759 94.798543 
L 257.471507 94.290188 
L 256.413497 93.997951 
L 255.347859 93.920838 
L 254.277727 94.055823 
L 253.206199 94.397907 
L 252.136314 94.940236 
L 251.071011 95.674239 
L 250.013112 96.589802 
L 248.965287 97.675478 
L 246.909688 100.305973 
L 244.921913 103.455797 
L 243.016309 107.008075 
L 241.203724 110.845861 
L 238.674596 116.897344 
L 236.382653 123.014412 
L 233.692087 130.835752 
L 228.993584 145.424345 
L 226.021189 154.307914 
L 224.291314 158.818557 
L 222.847111 161.950633 
L 221.59668 164.091841 
L 220.476066 165.551709 
L 219.442528 166.559561 
L 218.310692 167.37744 
L 216.786166 168.183953 
L 210.984317 170.95269 
L 209.498633 172.024148 
L 208.322473 173.126991 
L 207.368207 174.321387 
L 206.704117 175.491148 
L 206.264204 176.710323 
L 206.06138 177.962738 
L 206.092242 179.125228 
L 206.335868 180.287146 
L 206.794948 181.43406 
L 207.469527 182.55125 
L 208.447951 183.71869 
L 209.672194 184.814021 
L 211.13082 185.818591 
L 212.808336 186.714526 
L 214.849992 187.54312 
L 217.095879 188.205175 
L 219.511405 188.683758 
L 222.057657 188.964839 
L 224.692052 189.037699 
L 227.369101 188.895283 
L 230.041271 188.534488 
L 232.659929 187.956386 
L 235.176348 187.16636 
L 237.367096 186.257367 
L 239.393868 185.186992 
L 241.222655 183.969183 
L 242.69837 182.737602 
L 243.959795 181.410929 
L 244.987986 180.005386 
L 245.706793 178.673762 
L 246.209823 177.304859 
L 246.489539 175.912498 
L 246.540664 174.510516 
L 246.360185 173.112566 
L 245.947311 171.731989 
L 245.303426 170.381751 
L 244.432024 169.07444 
L 243.338644 167.822301 
L 241.888582 166.52291 
L 240.191787 165.320191 
L 238.263713 164.22912 
L 236.122459 163.26402 
L 233.56771 162.370632 
L 230.813832 161.659086 
L 227.893903 161.143393 
L 224.843774 160.835338 
L 221.701718 160.744265 
L 218.508056 160.876907 
L 215.304758 161.23726 
L 212.135029 161.826488 
L 209.042879 162.642838 
L 206.314439 163.586683 
L 203.72253 164.711527 
L 201.300797 166.0093 
L 199.274572 167.330573 
L 197.440047 168.777052 
L 195.820078 170.337998 
L 194.436247 172.001227 
L 193.409301 173.574381 
L 192.603262 175.208553 
L 192.030162 176.892061 
L 191.700531 178.612443 
L 191.619125 180.161984 
L 191.742145 181.720566 
L 192.073395 183.278155 
L 192.61538 184.82442 
L 193.369235 186.3488 
L 194.334651 187.840569 
L 195.671318 189.466356 
L 197.268503 191.02176 
L 199.118754 192.491494 
L 201.212042 193.860555 
L 203.535754 195.114381 
L 206.074718 196.239019 
L 208.811258 197.221284 
L 211.725289 198.048908 
L 215.143994 198.773544 
L 218.720425 199.279856 
L 222.417951 199.556246 
L 226.197426 199.593277 
L 229.634984 199.415977 
L 233.074361 199.035322 
L 236.483592 198.449193 
L 239.830236 197.656963 
L 243.081664 196.659476 
L 246.205355 195.459054 
L 249.169192 194.059565 
L 251.644098 192.652957 
L 253.946468 191.098832 
L 256.055751 189.404268 
L 257.952483 187.57859 
L 259.61859 185.634059 
L 260.874374 183.847545 
L 261.931502 181.995637 
L 262.781973 180.094607 
L 263.419622 178.163527 
L 263.840394 176.223867 
L 264.042555 174.298613 
L 264.02682 172.410898 
L 263.796319 170.582242 
L 263.356395 168.830649 
L 262.714214 167.168923 
L 261.878208 165.603578 
L 260.857441 164.134664 
L 259.47621 162.566648 
L 257.878093 161.102947 
L 255.834717 159.560669 
L 253.544189 158.110298 
L 250.723138 156.594543 
L 247.625823 155.182349 
L 244.268292 153.890881 
L 240.669606 152.745971 
L 236.852701 151.775616 
L 232.844433 151.005275 
L 229.098375 150.500183 
L 225.245921 150.185451 
L 221.312644 150.069635 
L 217.325313 150.158844 
L 213.311656 150.457187 
L 209.300188 150.967074 
L 205.320049 151.689384 
L 201.400878 152.623535 
L 197.57267 153.767503 
L 193.865646 155.117807 
L 190.310102 156.669481 
L 187.301215 158.212589 
L 184.456945 159.90412 
L 181.798084 161.737503 
L 179.345041 163.705164 
L 177.117724 165.798516 
L 175.369158 167.725774 
L 173.820607 169.734836 
L 172.483962 171.818019 
L 171.370498 173.967045 
L 170.490783 176.173049 
L 169.854592 178.426597 
L 169.470809 180.717699 
L 169.348769 182.703434 
L 169.422344 184.702126 
L 169.695254 186.706607 
L 170.170547 188.709475 
L 170.850554 190.703117 
L 171.736842 192.679733 
L 172.830182 194.631364 
L 174.1305 196.549919 
L 175.636847 198.427214 
L 177.652119 200.554236 
L 179.940681 202.600734 
L 182.496174 204.553607 
L 185.310409 206.399878 
L 188.373345 208.126783 
L 191.67308 209.721848 
L 195.195857 211.172976 
L 198.92609 212.468512 
L 202.846403 213.597295 
L 206.937689 214.548679 
L 211.179168 215.312512 
L 215.54847 215.879058 
L 220.021705 216.238803 
L 224.573526 216.382133 
L 229.177166 216.298768 
L 233.804418 215.976839 
L 237.766921 215.499831 
L 241.705162 214.824236 
L 245.598172 213.933086 
L 249.423425 212.802456 
L 252.54167 211.652923 
L 255.579982 210.285569 
L 257.941228 209.009661 
L 260.229734 207.544492 
L 262.43385 205.857234 
L 264.540168 203.906251 
L 266.046417 202.238944 
L 267.481306 200.36754 
L 268.836179 198.261104 
L 270.101152 195.88411 
L 271.264922 193.196448 
L 272.314558 190.15382 
L 273.235315 186.708762 
L 274.010459 182.81255 
L 274.621165 178.418319 
L 275.046524 173.485743 
L 275.263722 167.987581 
L 275.24849 161.918227 
L 274.975917 155.304074 
L 274.421728 148.214923 
L 273.564123 140.774847 
L 272.386177 133.169992 
L 271.417967 128.129376 
L 270.302902 123.213542 
L 269.043328 118.519359 
L 267.644429 114.148699 
L 266.114449 110.203755 
L 264.464757 106.781547 
L 262.709742 103.968073 
L 261.797987 102.812069 
L 260.866501 101.832663 
L 259.917762 101.035123 
L 258.954346 100.423142 
L 257.978901 99.998776 
L 256.994124 99.762405 
L 256.002733 99.712732 
L 255.007439 99.846815 
L 254.010922 100.160128 
L 253.015802 100.64665 
L 252.024621 101.298986 
L 251.039812 102.108506 
L 249.098415 104.159368 
L 247.208317 106.711807 
L 245.383563 109.669717 
L 243.635316 112.933977 
L 241.173645 118.194134 
L 238.918179 123.628902 
L 236.237074 130.7302 
L 232.382808 141.721849 
L 228.692932 152.121537 
L 226.796219 156.839543 
L 225.450597 159.692985 
L 224.257646 161.788514 
L 223.174261 163.311358 
L 221.974664 164.595566 
L 220.849167 165.475849 
L 219.597342 166.183232 
L 217.882698 166.874957 
L 211.633263 169.138252 
L 209.734195 170.158069 
L 208.157967 171.242776 
L 206.79407 172.45002 
L 205.748914 173.660186 
L 204.930598 174.947632 
L 204.395565 176.181912 
L 204.078802 177.453987 
L 203.990154 178.749335 
L 204.136971 180.052649 
L 204.523904 181.347998 
L 205.152719 182.619012 
L 206.022149 183.849073 
L 207.127773 185.021531 
L 208.202815 185.926458 
L 208.202815 185.926458 
" clip-path="url(#pae071630a0)" style="fill: none; stroke: #ff0000; stroke-width: 1.5; stroke-linecap: square"/>
   </g>
   <g id="line2d_18">
    <path d="M 227.869821 149.84957 
L 223.466658 149.594167 
L 219.429535 149.574473 
L 215.350708 149.763027 
L 211.258676 150.164722 
L 207.182062 150.78208 
L 203.149785 151.615883 
L 199.191814 152.665182 
L 195.339577 153.927106 
L 191.625073 155.397056 
L 188.46393 156.8737 
L 185.45706 158.505244 
L 182.626198 160.285221 
L 179.992911 162.206477 
L 177.576294 164.26214 
L 175.654665 166.164001 
L 173.927848 168.154241 
L 172.409036 170.225641 
L 171.110157 172.370569 
L 170.042284 174.580151 
L 169.215528 176.845028 
L 168.639348 179.155763 
L 168.351788 181.165351 
L 168.26021 183.194492 
L 168.3691 185.235902 
L 168.682057 187.281998 
L 169.201846 189.325067 
L 169.930567 191.357348 
L 170.869824 193.371027 
L 172.020722 195.358147 
L 173.383622 197.31051 
L 174.957707 199.219627 
L 176.740655 201.076806 
L 179.079749 203.16631 
L 181.69062 205.159838 
L 184.564466 207.044113 
L 187.691384 208.806352 
L 191.06067 210.434501 
L 194.6589 211.91613 
L 198.469147 213.238508 
L 202.472875 214.389894 
L 206.650462 215.359589 
L 210.980753 216.137342 
L 215.441312 216.713092 
L 220.008453 217.076862 
L 224.656618 217.218441 
L 229.357951 217.126756 
L 234.082568 216.788832 
L 238.127036 216.290757 
L 242.145087 215.585599 
L 246.115208 214.653835 
L 249.370338 213.684463 
L 252.561217 212.515899 
L 255.671121 211.116937 
L 258.087993 209.803428 
L 260.429756 208.285851 
L 262.683872 206.526391 
L 264.308412 205.019438 
L 265.868764 203.324509 
L 267.357075 201.412098 
L 268.764219 199.247702 
L 270.079497 196.791394 
L 271.290423 193.997513 
L 272.382697 190.814783 
L 273.34035 187.187319 
L 274.145888 183.056854 
L 274.780252 178.366114 
L 275.222491 173.063589 
L 275.449032 167.11078 
L 275.432686 160.493079 
L 275.142173 153.234415 
L 274.54324 145.414003 
L 273.601992 137.181726 
L 272.769922 131.575147 
L 271.767069 125.975008 
L 270.590556 120.485139 
L 269.240969 115.221839 
L 267.722725 110.309666 
L 266.044272 105.875663 
L 264.21817 102.042231 
L 263.254795 100.385762 
L 262.26106 98.919199 
L 261.239655 97.653006 
L 260.193495 96.595919 
L 259.125704 95.754768 
L 258.03959 95.134335 
L 256.938616 94.737248 
L 255.826371 94.563922 
L 254.706531 94.612534 
L 253.582822 94.879056 
L 252.458977 95.357318 
L 251.338695 96.039127 
L 250.225601 96.914422 
L 249.123196 97.971476 
L 248.034819 99.197126 
L 245.912418 102.095961 
L 243.880254 105.487188 
L 241.955264 109.241815 
L 240.148944 113.233967 
L 237.673833 119.417718 
L 235.478533 125.550947 
L 232.95435 133.247555 
L 225.297087 157.281356 
L 223.774312 161.067143 
L 222.486416 163.685252 
L 221.3634 165.477931 
L 220.352677 166.707668 
L 219.267152 167.68304 
L 217.96658 168.517175 
L 216.080313 169.407154 
L 212.934866 170.884683 
L 211.266086 171.941312 
L 210.01374 172.986112 
L 208.986781 174.133679 
L 208.259127 175.276466 
L 207.76873 176.476454 
L 207.540204 177.618842 
L 207.536516 178.778491 
L 207.763997 179.938994 
L 208.225813 181.083349 
L 208.921799 182.194157 
L 209.848282 183.25387 
L 210.997947 184.245087 
L 212.482396 185.222009 
L 214.196943 186.078307 
L 216.117994 186.795162 
L 218.38541 187.391869 
L 220.818902 187.789057 
L 223.372376 187.97207 
L 225.995388 187.930472 
L 228.634533 187.658623 
L 231.23485 187.156042 
L 233.56633 186.486899 
L 235.773005 185.630882 
L 237.812689 184.599759 
L 239.512781 183.505723 
L 241.00779 182.290024 
L 242.271825 180.969417 
L 243.208315 179.68273 
L 243.917057 178.339358 
L 244.386055 176.955667 
L 244.59664 175.676767 
L 244.596841 174.390778 
L 244.384127 173.110099 
L 243.958062 171.846974 
L 243.320209 170.613437 
L 242.378139 169.304786 
L 241.191245 168.061531 
L 239.769536 166.898585 
L 238.125786 165.830355 
L 236.097389 164.789173 
L 233.845873 163.89381 
L 231.397337 163.159631 
L 228.781118 162.600306 
L 226.029393 162.227547 
L 223.176618 162.050965 
L 220.259167 162.077907 
L 217.315114 162.313226 
L 214.38396 162.759072 
L 211.506202 163.414845 
L 208.722767 164.277235 
L 206.074451 165.34024 
L 203.799907 166.483438 
L 201.703064 167.778985 
L 199.813369 169.216071 
L 198.299064 170.634592 
L 196.999512 172.148339 
L 195.933291 173.7448 
L 195.186988 175.241102 
L 194.653992 176.782714 
L 194.343845 178.358256 
L 194.264697 179.955666 
L 194.423062 181.562271 
L 194.823572 183.164874 
L 195.468806 184.749869 
L 196.359224 186.303395 
L 197.493213 187.81149 
L 198.867146 189.260214 
L 200.47527 190.635688 
L 202.309339 191.924122 
L 204.358291 193.111988 
L 206.870305 194.298186 
L 209.609426 195.327754 
L 212.55192 196.18547 
L 215.670948 196.857399 
L 218.935993 197.33109 
L 222.313348 197.595944 
L 225.767185 197.643544 
L 229.260313 197.467797 
L 232.754465 197.064934 
L 236.210424 196.433455 
L 239.588279 195.574115 
L 242.52839 194.608384 
L 245.34373 193.464512 
L 248.005999 192.148268 
L 250.487939 190.667487 
L 252.763525 189.032402 
L 254.59314 187.459845 
L 256.22443 185.786566 
L 257.643391 184.025662 
L 258.837986 182.192659 
L 259.798016 180.305512 
L 260.515326 178.384119 
L 260.984333 176.449672 
L 261.202307 174.523844 
L 261.169207 172.627558 
L 260.887399 170.779318 
L 260.361405 168.993565 
L 259.597622 167.279664 
L 258.603797 165.641903 
L 257.388253 164.080516 
L 255.95908 162.593406 
L 254.105208 161.006144 
L 252.000995 159.508407 
L 249.658458 158.102913 
L 246.79232 156.658348 
L 243.666514 155.351885 
L 240.300942 154.202926 
L 236.719776 153.232435 
L 232.950359 152.459362 
L 229.022166 151.899178 
L 224.966683 151.564238 
L 220.817557 151.464127 
L 216.610468 151.605743 
L 212.382391 151.993526 
L 208.590182 152.554932 
L 204.83903 153.317867 
L 201.157187 154.281165 
L 197.573574 155.442153 
L 194.117191 156.796842 
L 190.81633 158.34018 
L 187.699062 160.065569 
L 185.105789 161.744942 
L 182.700567 163.554149 
L 180.50168 165.485877 
L 178.527312 167.531129 
L 176.795689 169.679839 
L 175.492962 171.636829 
L 174.3997 173.657474 
L 173.5259 175.733098 
L 172.880714 177.854746 
L 172.472589 180.013269 
L 172.309259 182.198994 
L 172.397413 184.401557 
L 172.742399 186.610025 
L 173.348177 188.813119 
L 174.217481 190.99937 
L 175.351946 193.157131 
L 176.751976 195.274494 
L 178.416351 197.33925 
L 180.341956 199.33901 
L 182.524036 201.261469 
L 184.956568 203.09447 
L 187.631864 204.825803 
L 190.540207 206.44346 
L 193.670278 207.936038 
L 197.008957 209.292323 
L 200.541202 210.501268 
L 204.250613 211.55256 
L 208.119291 212.43661 
L 212.127567 213.144237 
L 216.254397 213.666576 
L 220.477654 213.995083 
L 224.773881 214.121365 
L 229.118005 214.036808 
L 233.483454 213.731956 
L 237.842519 213.195538 
L 242.166547 212.412935 
L 245.822338 211.531024 
L 249.410353 210.435539 
L 252.332859 209.34166 
L 255.17913 208.062392 
L 257.93364 206.571313 
L 260.059582 205.202684 
L 262.105834 203.653152 
L 264.061399 201.894093 
L 265.91388 199.890388 
L 267.649029 197.599632 
L 268.863479 195.663305 
L 269.994514 193.513408 
L 271.032984 191.123608 
L 271.968636 188.465755 
L 272.790082 185.510854 
L 273.484696 182.230715 
L 274.038484 178.600306 
L 274.436058 174.600718 
L 274.661021 170.222822 
L 274.696841 165.47177 
L 274.527974 160.372205 
L 274.140789 154.973691 
L 273.524173 149.355595 
L 272.670064 143.630391 
L 271.574319 137.944042 
L 270.238088 132.472076 
L 269.217311 129.03949 
L 268.097436 125.849277 
L 266.884565 122.960364 
L 265.586504 120.427734 
L 264.21265 118.299674 
L 262.77376 116.615199 
L 261.28165 115.40188 
L 259.748826 114.674305 
L 258.971146 114.493477 
L 258.188089 114.433323 
L 257.40124 114.491818 
L 255.822346 114.952701 
L 254.246414 115.844809 
L 252.684561 117.126736 
L 251.146905 118.749304 
L 249.642453 120.658098 
L 247.464851 123.932902 
L 245.400605 127.531449 
L 242.849287 132.528569 
L 239.479406 139.77288 
L 234.60822 150.362127 
L 232.508485 154.360621 
L 230.966476 156.84094 
L 229.558943 158.685233 
L 228.246253 160.027078 
L 226.998721 160.986531 
L 225.557404 161.77376 
L 223.920886 162.359926 
L 221.851843 162.820915 
L 212.440376 164.560824 
L 209.692202 165.439797 
L 207.289283 166.436163 
L 205.052151 167.604993 
L 203.177537 168.819539 
L 201.498781 170.160669 
L 200.0414 171.616208 
L 198.928797 173.026776 
L 198.03532 174.508238 
L 197.375481 176.04769 
L 196.991866 177.471376 
L 196.815642 178.920143 
L 196.853309 180.382708 
L 197.109796 181.847279 
L 197.588279 183.301651 
L 198.114817 184.417787 
L 198.114817 184.417787 
" clip-path="url(#pae071630a0)" style="fill: none; stroke-dasharray: 5.55,2.4; stroke-dashoffset: 0; stroke: #0000ff; stroke-width: 1.5"/>
   </g>
  </g>
 </g>
 <defs>
  <clipPath id="pae071630a0">
   <rect x="112.68" y="34.56" width="217.44" height="217.44"/>
  </clipPath>
 </defs>
</svg>
