<?xml version="1.0" encoding="utf-8" standalone="no"?>
<!DOCTYPE svg PUBLIC "-//W3C//DTD SVG 1.1//EN"
  "http://www.w3.org/Graphics/SVG/1.1/DTD/svg11.dtd">
<svg xmlns:xlink="http://www.w3.org/1999/xlink" width="432pt" height="288pt" viewBox="0 0 432 288" xmlns="http://www.w3.org/2000/svg" version="1.1">
 <metadata>
  <rdf:RDF xmlns:dc="http://purl.org/dc/elements/1.1/" xmlns:cc="http://creativecommons.org/ns#" xmlns:rdf="http://www.w3.org/1999/02/22-rdf-syntax-ns#">
   <cc:Work>
    <dc:type rdf:resource="http://purl.org/dc/dcmitype/StillImage"/>
    <dc:date>2022-05-20T20:15:41.325793</dc:date>
    <dc:format>image/svg+xml</dc:format>
    <dc:creator>
     <cc:Agent>
      <dc:title>Matplotlib v3.5.1, https://matplotlib.org/</dc:title>
     </cc:Agent>
    </dc:creator>
   </cc:Work>
  </rdf:RDF>
 </metadata>
 <defs>
  <style type="text/css">*{stroke-linejoin: round; stroke-linecap: butt}</style>
 </defs>
 <g id="figure_1">
  <g id="patch_1">
   <path d="M 0 288 
L 432 288 
L 432 0 
L 0 0 
L 0 288 
z
" style="fill: none"/>
  </g>
  <g id="patch_2">
   <path d="M 112.68 252 
L 330.12 252 
L 330.12 34.56 
L 112.68 34.56 
z
" style="fill: #ffffff"/>
  </g>
  <g id="pane3d_1">
   <g id="patch_3">
    <path d="M 129.09822 198.386264 
L 200.904009 138.197228 
L 199.90584 51.393878 
L 124.663773 106.302111 
" style="fill: #f2f2f2; opacity: 0.5; stroke: #f2f2f2; stroke-linejoin: miter"/>
   </g>
  </g>
  <g id="pane3d_2">
   <g id="patch_4">
    <path d="M 200.904009 138.197228 
L 316.12668 171.68791 
L 320.238571 81.894718 
L 199.90584 51.393878 
" style="fill: #e6e6e6; opacity: 0.5; stroke: #e6e6e6; stroke-linejoin: miter"/>
   </g>
  </g>
  <g id="pane3d_3">
   <g id="patch_5">
    <path d="M 129.09822 198.386264 
L 251.239879 238.27773 
L 316.12668 171.68791 
L 200.904009 138.197228 
" style="fill: #ececec; opacity: 0.5; stroke: #ececec; stroke-linejoin: miter"/>
   </g>
  </g>
  <g id="axis3d_1">
   <g id="line2d_1">
    <path d="M 129.09822 198.386264 
L 251.239879 238.27773 
" style="fill: none; stroke: #000000; stroke-width: 0.8; stroke-linecap: square"/>
   </g>
   <g id="text_1">
    <!-- X -->
    <g transform="translate(168.626305 255.546233)scale(0.1 -0.1)">
     <defs>
      <path id="TimesNewRomanPSMT-58" d="M 2613 2347 
L 3522 991 
Q 3900 428 4083 279 
Q 4266 131 4547 116 
L 4547 0 
L 2728 0 
L 2728 116 
Q 2909 119 2997 153 
Q 3063 181 3105 239 
Q 3147 297 3147 356 
Q 3147 428 3119 500 
Q 3097 553 2947 775 
L 2228 1863 
L 1341 725 
Q 1200 544 1172 483 
Q 1144 422 1144 356 
Q 1144 256 1228 190 
Q 1313 125 1550 116 
L 1550 0 
L 47 0 
L 47 116 
Q 206 131 322 181 
Q 516 263 691 400 
Q 866 538 1091 822 
L 2091 2084 
L 1256 3306 
Q 916 3803 678 3958 
Q 441 4113 131 4122 
L 131 4238 
L 2091 4238 
L 2091 4122 
Q 1841 4113 1748 4041 
Q 1656 3969 1656 3881 
Q 1656 3766 1806 3544 
L 2456 2572 
L 3209 3525 
Q 3341 3694 3370 3756 
Q 3400 3819 3400 3884 
Q 3400 3950 3363 4000 
Q 3316 4066 3244 4092 
Q 3172 4119 2947 4122 
L 2947 4238 
L 4450 4238 
L 4450 4122 
Q 4272 4113 4159 4066 
Q 3991 3994 3850 3872 
Q 3709 3750 3453 3422 
L 2613 2347 
z
" transform="scale(0.015625)"/>
     </defs>
     <use xlink:href="#TimesNewRomanPSMT-58"/>
    </g>
   </g>
   <g id="Line3DCollection_1">
    <path d="M 155.39712 206.975485 
L 225.799206 145.433279 
L 225.862123 57.973039 
" style="fill: none; stroke: #b0b0b0; stroke-width: 0.8"/>
    <path d="M 182.195477 215.727829 
L 251.1185 152.792598 
L 252.284863 64.670433 
" style="fill: none; stroke: #b0b0b0; stroke-width: 0.8"/>
    <path d="M 209.630787 224.688201 
L 276.988811 160.312076 
L 279.307963 71.520002 
" style="fill: none; stroke: #b0b0b0; stroke-width: 0.8"/>
    <path d="M 237.726032 233.864108 
L 303.428326 167.996999 
L 306.952121 78.52699 
" style="fill: none; stroke: #b0b0b0; stroke-width: 0.8"/>
   </g>
   <g id="xtick_1">
    <g id="line2d_2">
     <path d="M 156.010593 206.439215 
L 154.167518 208.050345 
" style="fill: none; stroke: #000000; stroke-width: 0.8; stroke-linecap: square"/>
    </g>
    <g id="text_2">
     <!-- −5 -->
     <g transform="translate(142.565821 229.803315)scale(0.1 -0.1)">
      <defs>
       <path id="TimesNewRomanPSMT-2212" d="M 3484 2000 
L 116 2000 
L 116 2256 
L 3484 2256 
L 3484 2000 
z
" transform="scale(0.015625)"/>
       <path id="TimesNewRomanPSMT-35" d="M 2778 4238 
L 2534 3706 
L 1259 3706 
L 981 3138 
Q 1809 3016 2294 2522 
Q 2709 2097 2709 1522 
Q 2709 1188 2573 903 
Q 2438 619 2231 419 
Q 2025 219 1772 97 
Q 1413 -75 1034 -75 
Q 653 -75 479 54 
Q 306 184 306 341 
Q 306 428 378 495 
Q 450 563 559 563 
Q 641 563 702 538 
Q 763 513 909 409 
Q 1144 247 1384 247 
Q 1750 247 2026 523 
Q 2303 800 2303 1197 
Q 2303 1581 2056 1914 
Q 1809 2247 1375 2428 
Q 1034 2569 447 2591 
L 1259 4238 
L 2778 4238 
z
" transform="scale(0.015625)"/>
      </defs>
      <use xlink:href="#TimesNewRomanPSMT-2212"/>
      <use xlink:href="#TimesNewRomanPSMT-35" x="56.396484"/>
     </g>
    </g>
   </g>
   <g id="xtick_2">
    <g id="line2d_3">
     <path d="M 182.79664 215.178893 
L 180.990521 216.828103 
" style="fill: none; stroke: #000000; stroke-width: 0.8; stroke-linecap: square"/>
    </g>
    <g id="text_3">
     <!-- 0 -->
     <g transform="translate(172.219569 238.783736)scale(0.1 -0.1)">
      <defs>
       <path id="TimesNewRomanPSMT-30" d="M 231 2094 
Q 231 2819 450 3342 
Q 669 3866 1031 4122 
Q 1313 4325 1613 4325 
Q 2100 4325 2488 3828 
Q 2972 3213 2972 2159 
Q 2972 1422 2759 906 
Q 2547 391 2217 158 
Q 1888 -75 1581 -75 
Q 975 -75 572 641 
Q 231 1244 231 2094 
z
M 844 2016 
Q 844 1141 1059 588 
Q 1238 122 1591 122 
Q 1759 122 1940 273 
Q 2122 425 2216 781 
Q 2359 1319 2359 2297 
Q 2359 3022 2209 3506 
Q 2097 3866 1919 4016 
Q 1791 4119 1609 4119 
Q 1397 4119 1231 3928 
Q 1006 3669 925 3112 
Q 844 2556 844 2016 
z
" transform="scale(0.015625)"/>
      </defs>
      <use xlink:href="#TimesNewRomanPSMT-30"/>
     </g>
    </g>
   </g>
   <g id="xtick_3">
    <g id="line2d_4">
     <path d="M 210.218877 224.126145 
L 208.452002 225.814802 
" style="fill: none; stroke: #000000; stroke-width: 0.8; stroke-linecap: square"/>
    </g>
    <g id="text_4">
     <!-- 5 -->
     <g transform="translate(199.694589 247.978611)scale(0.1 -0.1)">
      <use xlink:href="#TimesNewRomanPSMT-35"/>
     </g>
    </g>
   </g>
   <g id="xtick_4">
    <g id="line2d_5">
     <path d="M 238.300243 233.288456 
L 236.575035 235.017992 
" style="fill: none; stroke: #000000; stroke-width: 0.8; stroke-linecap: square"/>
    </g>
    <g id="text_5">
     <!-- 10 -->
     <g transform="translate(225.333643 257.395713)scale(0.1 -0.1)">
      <defs>
       <path id="TimesNewRomanPSMT-31" d="M 750 3822 
L 1781 4325 
L 1884 4325 
L 1884 747 
Q 1884 391 1914 303 
Q 1944 216 2037 169 
Q 2131 122 2419 116 
L 2419 0 
L 825 0 
L 825 116 
Q 1125 122 1212 167 
Q 1300 213 1334 289 
Q 1369 366 1369 747 
L 1369 3034 
Q 1369 3497 1338 3628 
Q 1316 3728 1258 3775 
Q 1200 3822 1119 3822 
Q 1003 3822 797 3725 
L 750 3822 
z
" transform="scale(0.015625)"/>
      </defs>
      <use xlink:href="#TimesNewRomanPSMT-31"/>
      <use xlink:href="#TimesNewRomanPSMT-30" x="50"/>
     </g>
    </g>
   </g>
  </g>
  <g id="axis3d_2">
   <g id="line2d_6">
    <path d="M 316.12668 171.68791 
L 251.239879 238.27773 
" style="fill: none; stroke: #000000; stroke-width: 0.8; stroke-linecap: square"/>
   </g>
   <g id="text_6">
    <!-- Y -->
    <g transform="translate(308.50252 233.913757)scale(0.1 -0.1)">
     <defs>
      <path id="TimesNewRomanPSMT-59" d="M 3050 4238 
L 4528 4238 
L 4528 4122 
L 4447 4122 
Q 4366 4122 4209 4050 
Q 4053 3978 3925 3843 
Q 3797 3709 3609 3406 
L 2588 1797 
L 2588 734 
Q 2588 344 2675 247 
Q 2794 116 3050 116 
L 3188 116 
L 3188 0 
L 1388 0 
L 1388 116 
L 1538 116 
Q 1806 116 1919 278 
Q 1988 378 1988 734 
L 1988 1738 
L 825 3513 
Q 619 3825 545 3903 
Q 472 3981 241 4091 
Q 178 4122 59 4122 
L 59 4238 
L 1872 4238 
L 1872 4122 
L 1778 4122 
Q 1631 4122 1507 4053 
Q 1384 3984 1384 3847 
Q 1384 3734 1575 3441 
L 2459 2075 
L 3291 3381 
Q 3478 3675 3478 3819 
Q 3478 3906 3433 3975 
Q 3388 4044 3303 4083 
Q 3219 4122 3050 4122 
L 3050 4238 
z
" transform="scale(0.015625)"/>
     </defs>
     <use xlink:href="#TimesNewRomanPSMT-59"/>
    </g>
   </g>
   <g id="Line3DCollection_2">
    <path d="M 130.643996 101.938016 
L 134.785412 193.619147 
L 256.400002 232.982174 
" style="fill: none; stroke: #b0b0b0; stroke-width: 0.8"/>
    <path d="M 150.507656 87.442423 
L 153.700373 177.764251 
L 273.536013 215.396412 
" style="fill: none; stroke: #b0b0b0; stroke-width: 0.8"/>
    <path d="M 169.491694 73.588736 
L 171.813179 162.581738 
L 289.907967 198.594759 
" style="fill: none; stroke: #b0b0b0; stroke-width: 0.8"/>
    <path d="M 187.653275 60.335241 
L 189.173797 148.029724 
L 305.565852 182.525917 
" style="fill: none; stroke: #b0b0b0; stroke-width: 0.8"/>
   </g>
   <g id="xtick_5">
    <g id="line2d_7">
     <path d="M 255.375198 232.650476 
L 258.452257 233.646428 
" style="fill: none; stroke: #000000; stroke-width: 0.8; stroke-linecap: square"/>
    </g>
    <g id="text_7">
     <!-- −10 -->
     <g transform="translate(261.451831 253.338537)scale(0.1 -0.1)">
      <use xlink:href="#TimesNewRomanPSMT-2212"/>
      <use xlink:href="#TimesNewRomanPSMT-31" x="56.396484"/>
      <use xlink:href="#TimesNewRomanPSMT-30" x="106.396484"/>
     </g>
    </g>
   </g>
   <g id="xtick_6">
    <g id="line2d_8">
     <path d="M 272.527365 215.079665 
L 275.555854 216.030706 
" style="fill: none; stroke: #000000; stroke-width: 0.8; stroke-linecap: square"/>
    </g>
    <g id="text_8">
     <!-- −5 -->
     <g transform="translate(280.806397 235.434135)scale(0.1 -0.1)">
      <use xlink:href="#TimesNewRomanPSMT-2212"/>
      <use xlink:href="#TimesNewRomanPSMT-35" x="56.396484"/>
     </g>
    </g>
   </g>
   <g id="xtick_7">
    <g id="line2d_9">
     <path d="M 288.915069 198.291975 
L 291.896213 199.201075 
" style="fill: none; stroke: #000000; stroke-width: 0.8; stroke-linecap: square"/>
    </g>
    <g id="text_9">
     <!-- 0 -->
     <g transform="translate(299.728462 218.328609)scale(0.1 -0.1)">
      <use xlink:href="#TimesNewRomanPSMT-30"/>
     </g>
    </g>
   </g>
   <g id="xtick_8">
    <g id="line2d_10">
     <path d="M 304.588304 182.236193 
L 307.523307 183.106067 
" style="fill: none; stroke: #000000; stroke-width: 0.8; stroke-linecap: square"/>
    </g>
    <g id="text_10">
     <!-- 5 -->
     <g transform="translate(315.128196 201.969657)scale(0.1 -0.1)">
      <use xlink:href="#TimesNewRomanPSMT-35"/>
     </g>
    </g>
   </g>
  </g>
  <g id="axis3d_3">
   <g id="line2d_11">
    <path d="M 316.12668 171.68791 
L 320.238571 81.894718 
" style="fill: none; stroke: #000000; stroke-width: 0.8; stroke-linecap: square"/>
   </g>
   <g id="text_11">
    <!-- Z -->
    <g transform="translate(355.399591 124.775946)scale(0.1 -0.1)">
     <defs>
      <path id="TimesNewRomanPSMT-5a" d="M 3681 4238 
L 897 256 
L 2634 256 
Q 3034 256 3248 431 
Q 3463 606 3628 1141 
L 3731 1122 
L 3531 0 
L 81 0 
L 81 116 
L 2800 3984 
L 1444 3984 
Q 1106 3984 954 3911 
Q 803 3838 723 3698 
Q 644 3559 578 3178 
L 459 3178 
L 547 4238 
L 3681 4238 
z
" transform="scale(0.015625)"/>
     </defs>
     <use xlink:href="#TimesNewRomanPSMT-5a"/>
    </g>
   </g>
   <g id="Line3DCollection_3">
    <path d="M 317.251673 147.120929 
L 200.630496 114.411818 
L 127.886462 173.223334 
" style="fill: none; stroke: #b0b0b0; stroke-width: 0.8"/>
    <path d="M 318.325033 123.681494 
L 200.36983 91.743692 
L 126.729278 149.193656 
" style="fill: none; stroke: #b0b0b0; stroke-width: 0.8"/>
    <path d="M 319.423482 99.694171 
L 200.103369 68.571557 
L 125.54399 124.580384 
" style="fill: none; stroke: #b0b0b0; stroke-width: 0.8"/>
   </g>
   <g id="xtick_9">
    <g id="line2d_12">
     <path d="M 316.272339 146.846253 
L 319.212699 147.670945 
" style="fill: none; stroke: #000000; stroke-width: 0.8; stroke-linecap: square"/>
    </g>
    <g id="text_12">
     <!-- 5 -->
     <g transform="translate(333.206581 151.520825)scale(0.1 -0.1)">
      <use xlink:href="#TimesNewRomanPSMT-35"/>
     </g>
    </g>
   </g>
   <g id="xtick_10">
    <g id="line2d_13">
     <path d="M 317.333955 123.413147 
L 320.309603 124.21884 
" style="fill: none; stroke: #000000; stroke-width: 0.8; stroke-linecap: square"/>
    </g>
    <g id="text_13">
     <!-- 10 -->
     <g transform="translate(331.988307 128.140113)scale(0.1 -0.1)">
      <use xlink:href="#TimesNewRomanPSMT-31"/>
      <use xlink:href="#TimesNewRomanPSMT-30" x="50"/>
     </g>
    </g>
   </g>
   <g id="xtick_11">
    <g id="line2d_14">
     <path d="M 318.420376 99.432527 
L 321.432168 100.218102 
" style="fill: none; stroke: #000000; stroke-width: 0.8; stroke-linecap: square"/>
    </g>
    <g id="text_14">
     <!-- 15 -->
     <g transform="translate(333.299879 104.214962)scale(0.1 -0.1)">
      <use xlink:href="#TimesNewRomanPSMT-31"/>
      <use xlink:href="#TimesNewRomanPSMT-35" x="50"/>
     </g>
    </g>
   </g>
  </g>
  <g id="axes_1">
   <g id="line2d_15">
    <path d="M 199.677837 152.456713 
L 195.821081 153.700034 
L 192.096052 155.151725 
L 188.92036 156.612575 
L 185.894575 158.228737 
L 183.040049 159.994275 
L 180.377857 161.902245 
L 177.928675 163.944674 
L 175.712655 166.112555 
L 173.980241 168.10448 
L 172.453823 170.177375 
L 171.145396 172.323233 
L 170.06631 174.533441 
L 169.227185 176.798787 
L 168.637811 179.109482 
L 168.338167 181.118338 
L 168.233541 183.14608 
L 168.328328 185.185602 
L 168.626279 187.22954 
L 169.130455 189.270292 
L 169.843181 191.300043 
L 170.766003 193.31079 
L 171.899643 195.294369 
L 173.243963 197.242487 
L 174.797921 199.146755 
L 176.559545 200.998726 
L 178.873267 203.081962 
L 181.459243 205.069075 
L 184.309238 206.946775 
L 187.413121 208.701981 
L 190.758854 210.321909 
L 194.332502 211.794154 
L 198.118254 213.106753 
L 202.098469 214.24824 
L 206.253729 215.207666 
L 210.562912 215.974573 
L 215.003275 216.538905 
L 219.550531 216.890823 
L 224.17893 217.020361 
L 228.861312 216.916866 
L 233.569122 216.568082 
L 237.601913 216.062419 
L 241.611504 215.352769 
L 245.576985 214.422114 
L 249.476111 213.246755 
L 252.657424 212.056489 
L 255.760829 210.646233 
L 258.176261 209.335542 
L 260.521612 207.836624 
L 262.786248 206.118642 
L 264.958139 204.14278 
L 266.517975 202.462927 
L 268.011319 200.586489 
L 269.430739 198.485027 
L 270.767841 196.125921 
L 272.013118 193.472296 
L 273.155785 190.483239 
L 274.183616 187.114477 
L 275.082791 183.319712 
L 275.83777 179.052867 
L 276.431237 174.271524 
L 276.844141 168.941832 
L 277.055897 163.045084 
L 277.044819 156.585989 
L 276.788868 149.602323 
L 276.266785 142.175107 
L 275.459677 134.437787 
L 274.353064 126.582113 
L 273.444784 121.400426 
L 272.399721 116.362889 
L 271.219972 111.563719 
L 269.910065 107.101192 
L 268.477142 103.073365 
L 266.931017 99.573143 
L 265.284108 96.683045 
L 264.427397 95.488488 
L 263.551199 94.470165 
L 262.657667 93.633336 
L 261.749047 92.981815 
L 260.827654 92.517904 
L 259.895855 92.242358 
L 258.956049 92.154367 
L 258.010639 92.251586 
L 257.062016 92.530168 
L 256.112533 92.984847 
L 255.164488 93.609025 
L 254.220102 94.394892 
L 252.350706 96.415225 
L 250.519963 98.964545 
L 248.741351 101.951807 
L 247.025953 105.281374 
L 244.589496 110.709899 
L 242.332773 116.394516 
L 239.615209 123.93595 
L 235.628558 135.873658 
L 231.700557 147.502011 
L 229.628963 152.901494 
L 228.134609 156.207201 
L 226.791793 158.650983 
L 225.557485 160.42924 
L 224.399279 161.709987 
L 223.293547 162.629196 
L 222.012815 163.40232 
L 220.559169 164.015436 
L 218.528449 164.612633 
L 212.122416 166.328233 
L 209.607648 167.3105 
L 207.440354 168.402482 
L 205.618674 169.559106 
L 204.000073 170.847772 
L 202.71944 172.133348 
L 201.65438 173.505885 
L 200.823701 174.951363 
L 200.285984 176.315785 
L 199.966513 177.715278 
L 199.874174 179.136588 
L 200.015808 180.565802 
L 200.39605 181.988464 
L 201.017178 183.389706 
L 201.878978 184.754396 
L 202.978644 186.067296 
L 204.310691 187.313227 
L 205.866906 188.477255 
L 207.824501 189.645786 
L 210.021647 190.679231 
L 212.436086 191.560361 
L 215.041862 192.273461 
L 217.809571 192.804615 
L 220.70669 193.141988 
L 223.697977 193.27607 
L 226.745935 193.1999 
L 229.811334 192.909262 
L 232.853781 192.402847 
L 235.832335 191.682391 
L 238.706144 190.752794 
L 241.435101 189.622218 
L 243.757678 188.429634 
L 245.90094 187.091493 
L 247.839108 185.621174 
L 249.548618 184.034297 
L 250.874267 182.521027 
L 251.984359 180.941762 
L 252.867644 179.311484 
L 253.515037 177.645666 
L 253.919685 175.959816 
L 254.076957 174.269004 
L 254.00704 172.773392 
L 253.739322 171.294273 
L 253.202784 169.660357 
L 252.419836 168.068601 
L 251.394945 166.528728 
L 250.134073 165.049862 
L 248.644591 163.640957 
L 246.935253 162.311148 
L 244.790504 160.937931 
L 242.402798 159.68767 
L 239.790221 158.574154 
L 236.972997 157.61091 
L 233.973424 156.81068 
L 230.815744 156.184997 
L 227.525987 155.743898 
L 224.131786 155.495762 
L 220.662181 155.447251 
L 217.147432 155.603281 
L 213.618817 155.96702 
L 210.108444 156.539873 
L 206.64905 157.321462 
L 203.273796 158.309602 
L 200.016055 159.50026 
L 196.90918 160.88753 
L 194.269341 162.297755 
L 191.80228 163.853894 
L 189.531253 165.547627 
L 187.478825 167.369355 
L 185.855518 169.08735 
L 184.436607 170.889406 
L 183.235827 172.766253 
L 182.265998 174.707859 
L 181.538904 176.703451 
L 181.110192 178.484873 
L 180.881773 180.290741 
L 180.859119 182.112578 
L 181.046807 183.941573 
L 181.448453 185.768611 
L 182.066645 187.584312 
L 182.902884 189.379072 
L 183.957528 191.143112 
L 185.229736 192.866526 
L 186.717425 194.539339 
L 188.417229 196.151561 
L 190.613529 197.907162 
L 193.071592 199.555993 
L 195.779988 201.08372 
L 198.724986 202.476451 
L 201.890578 203.720865 
L 205.258533 204.804317 
L 208.808479 205.714953 
L 212.518 206.441782 
L 216.362775 206.974736 
L 220.316716 207.304681 
L 224.352141 207.42338 
L 228.439941 207.323378 
L 232.549758 206.997797 
L 236.650138 206.439999 
L 240.708673 205.643092 
L 244.199421 204.743524 
L 247.609831 203.648507 
L 250.916538 202.349936 
L 254.095552 200.83731 
L 256.700044 199.360164 
L 259.176382 197.705018 
L 261.507745 195.858877 
L 263.327118 194.163676 
L 265.022908 192.315744 
L 266.583935 190.305151 
L 267.998508 188.12247 
L 269.254462 185.75999 
L 270.339253 183.213439 
L 271.240166 180.484216 
L 271.944661 177.582112 
L 272.440878 174.52828 
L 272.718343 171.358089 
L 272.76885 168.123232 
L 272.58749 164.892289 
L 272.173725 161.748921 
L 271.532358 158.787037 
L 270.862439 156.613034 
L 270.062028 154.662973 
L 269.141887 152.975911 
L 268.114828 151.580406 
L 266.995176 150.491793 
L 265.798103 149.710639 
L 264.538878 149.222666 
L 263.232109 149.000164 
L 261.89106 149.004676 
L 260.183684 149.259634 
L 257.764805 149.91105 
L 251.866955 151.639059 
L 249.425514 152.055377 
L 246.955832 152.229825 
L 244.440788 152.184972 
L 241.117649 151.885829 
L 233.300001 150.837832 
L 228.327031 150.314398 
L 224.05081 150.070435 
L 219.686761 150.047228 
L 215.712796 150.233949 
L 211.723161 150.626284 
L 207.746186 151.228249 
L 203.810934 152.041045 
L 199.946978 153.063846 
L 196.184222 154.294146 
L 192.552753 155.727883 
L 189.082683 157.359465 
L 186.157904 158.97012 
L 183.405174 160.725437 
L 180.845028 162.618373 
L 178.497569 164.640882 
L 176.382349 166.783901 
L 174.736886 168.749994 
L 173.295796 170.793249 
L 172.07062 172.905672 
L 171.072244 175.078684 
L 170.310809 177.303129 
L 169.795619 179.569292 
L 169.535052 181.866923 
L 169.519968 183.85322 
L 169.70135 185.84768 
L 170.082522 187.843007 
L 170.666118 189.831686 
L 171.454031 191.806008 
L 172.447377 193.758096 
L 173.646452 195.679934 
L 175.050694 197.563396 
L 176.946301 199.701325 
L 179.11526 201.762778 
L 181.551921 203.734684 
L 184.248829 205.604069 
L 187.196697 207.35814 
L 190.384394 208.984369 
L 193.798944 210.47058 
L 197.425549 211.805014 
L 201.247623 212.976393 
L 205.246844 213.973951 
L 208.800633 214.682872 
L 208.800633 214.682872 
" clip-path="url(#pddeefae206)" style="fill: none; stroke: #ff0000; stroke-width: 1.5; stroke-linecap: square"/>
   </g>
   <g id="line2d_16">
    <path d="M 199.677837 152.456713 
L 195.820984 153.700025 
L 192.095766 155.151628 
L 188.920058 156.612349 
L 185.894544 158.228377 
L 183.040495 159.993811 
L 180.378729 161.901678 
L 177.929731 163.943992 
L 175.713707 166.111788 
L 173.981282 168.103641 
L 172.454885 170.176397 
L 171.146407 172.322048 
L 170.067096 174.532059 
L 169.227566 176.797288 
L 168.637694 179.107955 
L 168.33762 181.11683 
L 168.232601 183.144598 
L 168.327039 185.184132 
L 168.624667 187.228065 
L 169.12852 189.268811 
L 169.840901 191.298583 
L 170.76334 193.3094 
L 171.896557 195.293103 
L 173.240418 197.241372 
L 174.793901 199.145762 
L 176.555056 200.997768 
L 178.868278 203.080945 
L 181.453817 205.068058 
L 184.303408 206.946027 
L 187.406903 208.701677 
L 190.752316 210.321875 
L 194.325797 211.79417 
L 198.111561 213.10689 
L 202.091823 214.248661 
L 206.246979 215.208376 
L 210.55588 215.975495 
L 214.995935 216.540059 
L 219.543031 216.892355 
L 224.171458 217.022435 
L 228.853955 216.919542 
L 233.561802 216.571268 
L 237.594475 216.065889 
L 241.603801 215.356379 
L 245.568933 214.425788 
L 249.467725 213.250556 
L 252.648843 212.060574 
L 255.752162 210.650892 
L 258.167602 209.340936 
L 260.513006 207.843033 
L 262.777705 206.126336 
L 264.949623 204.15198 
L 266.509424 202.473356 
L 268.002656 200.598215 
L 269.421865 198.498146 
L 270.758631 196.140625 
L 272.003418 193.488921 
L 273.145412 190.502247 
L 274.172361 187.13631 
L 275.070452 183.344564 
L 275.824242 179.080506 
L 276.416649 174.3013 
L 276.829018 168.972836 
L 277.041249 163.076234 
L 277.032092 156.615854 
L 276.779742 149.628788 
L 276.2629 142.19522 
L 275.462379 134.448015 
L 274.363253 126.57894 
L 273.460232 121.386658 
L 272.420501 116.337531 
L 271.246073 111.526083 
L 269.94143 107.05088 
L 268.513713 103.010206 
L 266.972787 99.49711 
L 265.331148 96.594164 
L 264.477131 95.393181 
L 263.603682 94.368416 
L 262.712967 93.525112 
L 261.807239 92.867061 
L 260.88882 92.396546 
L 259.960077 92.114296 
L 259.023406 92.019488 
L 258.081202 92.109756 
L 257.135842 92.38125 
L 256.189662 92.828701 
L 255.24494 93.44552 
L 254.30387 94.22392 
L 252.44099 96.229118 
L 250.616445 98.763352 
L 248.843553 101.736045 
L 247.133302 105.052068 
L 245.494236 108.616469 
L 243.181831 114.232274 
L 240.385794 121.810606 
L 236.796117 132.422432 
L 231.798702 147.264838 
L 229.708524 152.690891 
L 228.199135 156.015247 
L 226.842028 158.472561 
L 225.593952 160.260006 
L 224.422226 161.546337 
L 223.303034 162.468247 
L 222.006109 163.242202 
L 220.533467 163.855045 
L 218.475463 164.452427 
L 211.980227 166.182696 
L 209.605796 167.099285 
L 207.392585 168.191832 
L 205.527816 169.35186 
L 203.866115 170.646927 
L 202.546542 171.941132 
L 201.443604 173.324999 
L 200.576587 174.784472 
L 200.007562 176.163829 
L 199.658775 177.580244 
L 199.539447 179.020345 
L 199.656759 180.470095 
L 200.015693 181.914898 
L 200.618875 183.339712 
L 201.466423 184.729199 
L 202.555814 186.067882 
L 203.88179 187.340322 
L 205.436306 188.531288 
L 207.208534 189.625953 
L 209.393154 190.701931 
L 211.802862 191.626525 
L 214.411966 192.383568 
L 217.191197 192.958585 
L 220.108048 193.339011 
L 223.12719 193.514524 
L 226.210935 193.477414 
L 229.319765 193.222845 
L 232.412892 192.749014 
L 235.448854 192.057245 
L 238.38614 191.152059 
L 241.183857 190.041243 
L 243.57279 188.862231 
L 245.785339 187.53309 
L 247.794952 186.066789 
L 249.577167 184.47862 
L 250.968535 182.959547 
L 252.143975 181.370137 
L 253.091793 179.725508 
L 253.802522 178.041358 
L 254.268815 176.333596 
L 254.485406 174.617889 
L 254.465718 173.098203 
L 254.245435 171.593648 
L 253.825054 170.112926 
L 253.115092 168.485253 
L 252.158083 166.907493 
L 250.959636 165.388804 
L 249.52682 163.938089 
L 247.868109 162.564418 
L 245.772182 161.139942 
L 243.425088 159.835565 
L 240.844549 158.664896 
L 238.050507 157.641625 
L 235.064958 156.779151 
L 231.911804 156.089876 
L 228.616786 155.584587 
L 225.20735 155.272272 
L 221.712401 155.16018 
L 218.162089 155.25387 
L 214.587648 155.557171 
L 211.021265 156.072117 
L 207.495926 156.798902 
L 204.045217 157.73586 
L 200.703081 158.879469 
L 197.503477 160.224378 
L 194.773486 161.600978 
L 192.210254 163.128161 
L 189.837395 164.797925 
L 187.677992 166.600986 
L 185.955829 168.307124 
L 184.435087 170.101979 
L 183.130055 171.976389 
L 182.054079 173.920438 
L 181.219478 175.923539 
L 180.696073 177.715856 
L 180.372894 179.536782 
L 180.255957 181.377917 
L 180.350406 183.23048 
L 180.660416 185.085348 
L 181.189117 186.933097 
L 181.938532 188.764044 
L 182.909526 190.568293 
L 184.101766 192.335789 
L 185.513686 194.056398 
L 187.142447 195.719986 
L 188.983894 197.316503 
L 191.341712 199.046219 
L 193.95971 200.660632 
L 196.825255 202.145238 
L 199.923453 203.486141 
L 203.237086 204.670329 
L 206.746595 205.68548 
L 210.430135 206.519807 
L 214.263801 207.162309 
L 218.221906 207.603068 
L 222.277165 207.83326 
L 226.400789 207.844943 
L 230.562579 207.630761 
L 234.731056 207.183608 
L 238.873628 206.496188 
L 242.450761 205.691258 
L 245.959315 204.689705 
L 249.375675 203.483421 
L 252.675592 202.061901 
L 255.392463 200.661813 
L 257.989076 199.082472 
L 260.44845 197.310223 
L 262.380298 195.674223 
L 264.193738 193.882001 
L 265.877451 191.921681 
L 267.419459 189.781009 
L 268.806984 187.448421 
L 270.02635 184.914676 
L 271.063102 182.175133 
L 271.902491 179.232607 
L 272.53022 176.100704 
L 272.933272 172.807374 
L 273.100691 169.398192 
L 273.024454 165.938563 
L 272.700556 162.513791 
L 272.130258 159.225909 
L 271.50155 156.769118 
L 270.727194 154.528526 
L 269.817471 152.556326 
L 268.78549 150.895174 
L 267.646727 149.574065 
L 266.732852 148.81448 
L 265.776104 148.25203 
L 264.784066 147.879598 
L 263.764113 147.684809 
L 262.372663 147.671645 
L 260.958525 147.894261 
L 259.177105 148.418236 
L 256.686234 149.410075 
L 252.122945 151.248822 
L 249.6892 151.943969 
L 247.598445 152.314737 
L 245.489336 152.484576 
L 242.989501 152.466795 
L 239.690874 152.199216 
L 225.373003 150.713031 
L 221.130557 150.622674 
L 216.825486 150.762222 
L 212.926948 151.09727 
L 209.034159 151.63636 
L 205.175384 152.381448 
L 201.379432 153.332235 
L 197.675549 154.48664 
L 194.093332 155.840986 
L 190.66251 157.390114 
L 187.763836 158.925331 
L 185.028417 160.603591 
L 182.47617 162.418203 
L 180.126689 164.3615 
L 177.999237 166.424878 
L 176.11254 168.598673 
L 174.673217 170.582907 
L 173.443133 172.635726 
L 172.432887 174.748881 
L 171.652444 176.913577 
L 171.111045 179.120427 
L 170.817063 181.359479 
L 170.777857 183.620264 
L 170.951789 185.567112 
L 171.320722 187.514793 
L 171.887185 189.45599 
L 172.652986 191.383196 
L 173.619171 193.288735 
L 174.999942 195.474023 
L 176.652742 197.606508 
L 178.574954 199.673424 
L 180.7623 201.662053 
L 183.20877 203.559864 
L 185.906566 205.354464 
L 188.84614 207.033419 
L 192.016223 208.584369 
L 195.403798 209.995558 
L 198.994034 211.255961 
L 202.770231 212.354893 
L 206.713932 213.281925 
L 210.212476 213.932188 
L 210.212476 213.932188 
" clip-path="url(#pddeefae206)" style="fill: none; stroke-dasharray: 5.55,2.4; stroke-dashoffset: 0; stroke: #0000ff; stroke-width: 1.5"/>
   </g>
  </g>
 </g>
 <defs>
  <clipPath id="pddeefae206">
   <rect x="112.68" y="34.56" width="217.44" height="217.44"/>
  </clipPath>
 </defs>
</svg>
