<?xml version="1.0" encoding="utf-8" standalone="no"?>
<!DOCTYPE svg PUBLIC "-//W3C//DTD SVG 1.1//EN"
  "http://www.w3.org/Graphics/SVG/1.1/DTD/svg11.dtd">
<svg xmlns:xlink="http://www.w3.org/1999/xlink" width="432pt" height="288pt" viewBox="0 0 432 288" xmlns="http://www.w3.org/2000/svg" version="1.1">
 <metadata>
  <rdf:RDF xmlns:dc="http://purl.org/dc/elements/1.1/" xmlns:cc="http://creativecommons.org/ns#" xmlns:rdf="http://www.w3.org/1999/02/22-rdf-syntax-ns#">
   <cc:Work>
    <dc:type rdf:resource="http://purl.org/dc/dcmitype/StillImage"/>
    <dc:date>2022-05-17T05:17:39.307488</dc:date>
    <dc:format>image/svg+xml</dc:format>
    <dc:creator>
     <cc:Agent>
      <dc:title>Matplotlib v3.5.1, https://matplotlib.org/</dc:title>
     </cc:Agent>
    </dc:creator>
   </cc:Work>
  </rdf:RDF>
 </metadata>
 <defs>
  <style type="text/css">*{stroke-linejoin: round; stroke-linecap: butt}</style>
 </defs>
 <g id="figure_1">
  <g id="patch_1">
   <path d="M 0 288 
L 432 288 
L 432 0 
L 0 0 
L 0 288 
z
" style="fill: none"/>
  </g>
  <g id="patch_2">
   <path d="M 112.68 252 
L 330.12 252 
L 330.12 34.56 
L 112.68 34.56 
z
" style="fill: #ffffff"/>
  </g>
  <g id="pane3d_1">
   <g id="patch_3">
    <path d="M 129.09822 198.386264 
L 200.904009 138.197228 
L 199.90584 51.393878 
L 124.663773 106.302111 
" style="fill: #f2f2f2; opacity: 0.5; stroke: #f2f2f2; stroke-linejoin: miter"/>
   </g>
  </g>
  <g id="pane3d_2">
   <g id="patch_4">
    <path d="M 200.904009 138.197228 
L 316.12668 171.68791 
L 320.238571 81.894718 
L 199.90584 51.393878 
" style="fill: #e6e6e6; opacity: 0.5; stroke: #e6e6e6; stroke-linejoin: miter"/>
   </g>
  </g>
  <g id="pane3d_3">
   <g id="patch_5">
    <path d="M 129.09822 198.386264 
L 251.239879 238.27773 
L 316.12668 171.68791 
L 200.904009 138.197228 
" style="fill: #ececec; opacity: 0.5; stroke: #ececec; stroke-linejoin: miter"/>
   </g>
  </g>
  <g id="axis3d_1">
   <g id="line2d_1">
    <path d="M 129.09822 198.386264 
L 251.239879 238.27773 
" style="fill: none; stroke: #000000; stroke-width: 0.8; stroke-linecap: square"/>
   </g>
   <g id="Line3DCollection_1">
    <path d="M 137.134862 201.011032 
L 208.516728 140.409945 
L 207.840518 53.405088 
" style="fill: none; stroke: #b0b0b0; stroke-width: 0.8"/>
    <path d="M 157.98995 207.822304 
L 228.251078 146.145941 
L 228.419779 58.62133 
" style="fill: none; stroke: #b0b0b0; stroke-width: 0.8"/>
    <path d="M 179.232915 214.760256 
L 248.32186 151.979725 
L 249.365138 63.930368 
" style="fill: none; stroke: #b0b0b0; stroke-width: 0.8"/>
    <path d="M 200.874678 221.828456 
L 268.737752 157.913819 
L 270.686451 69.3347 
" style="fill: none; stroke: #b0b0b0; stroke-width: 0.8"/>
    <path d="M 222.926578 229.030606 
L 289.50773 163.950832 
L 292.393932 74.836913 
" style="fill: none; stroke: #b0b0b0; stroke-width: 0.8"/>
    <path d="M 245.400384 236.370551 
L 310.641088 170.093465 
L 314.498167 80.439693 
" style="fill: none; stroke: #b0b0b0; stroke-width: 0.8"/>
   </g>
   <g id="xtick_1">
    <g id="line2d_2">
     <path d="M 137.756466 200.483309 
L 135.888987 202.068743 
" style="fill: none; stroke: #000000; stroke-width: 0.8; stroke-linecap: square"/>
    </g>
    <g id="text_1">
     <!-- −2 -->
     <g transform="translate(122.229222 224.338676)scale(0.1 -0.1)">
      <defs>
       <path id="DejaVuSans-2212" d="M 678 2272 
L 4684 2272 
L 4684 1741 
L 678 1741 
L 678 2272 
z
" transform="scale(0.015625)"/>
       <path id="DejaVuSans-32" d="M 1228 531 
L 3431 531 
L 3431 0 
L 469 0 
L 469 531 
Q 828 903 1448 1529 
Q 2069 2156 2228 2338 
Q 2531 2678 2651 2914 
Q 2772 3150 2772 3378 
Q 2772 3750 2511 3984 
Q 2250 4219 1831 4219 
Q 1534 4219 1204 4116 
Q 875 4013 500 3803 
L 500 4441 
Q 881 4594 1212 4672 
Q 1544 4750 1819 4750 
Q 2544 4750 2975 4387 
Q 3406 4025 3406 3419 
Q 3406 3131 3298 2873 
Q 3191 2616 2906 2266 
Q 2828 2175 2409 1742 
Q 1991 1309 1228 531 
z
" transform="scale(0.015625)"/>
      </defs>
      <use xlink:href="#DejaVuSans-2212"/>
      <use xlink:href="#DejaVuSans-32" x="83.789062"/>
     </g>
    </g>
   </g>
   <g id="xtick_2">
    <g id="line2d_3">
     <path d="M 158.602252 207.284815 
L 156.762694 208.899609 
" style="fill: none; stroke: #000000; stroke-width: 0.8; stroke-linecap: square"/>
    </g>
    <g id="text_2">
     <!-- −1 -->
     <g transform="translate(143.110432 231.326846)scale(0.1 -0.1)">
      <defs>
       <path id="DejaVuSans-31" d="M 794 531 
L 1825 531 
L 1825 4091 
L 703 3866 
L 703 4441 
L 1819 4666 
L 2450 4666 
L 2450 531 
L 3481 531 
L 3481 0 
L 794 0 
L 794 531 
z
" transform="scale(0.015625)"/>
      </defs>
      <use xlink:href="#DejaVuSans-2212"/>
      <use xlink:href="#DejaVuSans-31" x="83.789062"/>
     </g>
    </g>
   </g>
   <g id="xtick_3">
    <g id="line2d_4">
     <path d="M 179.83546 214.212728 
L 178.025189 215.857706 
" style="fill: none; stroke: #000000; stroke-width: 0.8; stroke-linecap: square"/>
    </g>
    <g id="text_3">
     <!-- 0 -->
     <g transform="translate(168.57165 238.445589)scale(0.1 -0.1)">
      <defs>
       <path id="DejaVuSans-30" d="M 2034 4250 
Q 1547 4250 1301 3770 
Q 1056 3291 1056 2328 
Q 1056 1369 1301 889 
Q 1547 409 2034 409 
Q 2525 409 2770 889 
Q 3016 1369 3016 2328 
Q 3016 3291 2770 3770 
Q 2525 4250 2034 4250 
z
M 2034 4750 
Q 2819 4750 3233 4129 
Q 3647 3509 3647 2328 
Q 3647 1150 3233 529 
Q 2819 -91 2034 -91 
Q 1250 -91 836 529 
Q 422 1150 422 2328 
Q 422 3509 836 4129 
Q 1250 4750 2034 4750 
z
" transform="scale(0.015625)"/>
      </defs>
      <use xlink:href="#DejaVuSans-30"/>
     </g>
    </g>
   </g>
   <g id="xtick_4">
    <g id="line2d_5">
     <path d="M 201.466992 221.270604 
L 199.687437 222.946621 
" style="fill: none; stroke: #000000; stroke-width: 0.8; stroke-linecap: square"/>
    </g>
    <g id="text_4">
     <!-- 1 -->
     <g transform="translate(190.244227 245.6986)scale(0.1 -0.1)">
      <use xlink:href="#DejaVuSans-31"/>
     </g>
    </g>
   </g>
   <g id="xtick_5">
    <g id="line2d_6">
     <path d="M 223.508162 228.462137 
L 221.760819 230.170078 
" style="fill: none; stroke: #000000; stroke-width: 0.8; stroke-linecap: square"/>
    </g>
    <g id="text_5">
     <!-- 2 -->
     <g transform="translate(212.329466 253.089714)scale(0.1 -0.1)">
      <use xlink:href="#DejaVuSans-32"/>
     </g>
    </g>
   </g>
   <g id="xtick_6">
    <g id="line2d_7">
     <path d="M 245.970717 235.791157 
L 244.257151 237.531944 
" style="fill: none; stroke: #000000; stroke-width: 0.8; stroke-linecap: square"/>
    </g>
    <g id="text_6">
     <!-- 3 -->
     <g transform="translate(234.839265 260.622912)scale(0.1 -0.1)">
      <defs>
       <path id="DejaVuSans-33" d="M 2597 2516 
Q 3050 2419 3304 2112 
Q 3559 1806 3559 1356 
Q 3559 666 3084 287 
Q 2609 -91 1734 -91 
Q 1441 -91 1130 -33 
Q 819 25 488 141 
L 488 750 
Q 750 597 1062 519 
Q 1375 441 1716 441 
Q 2309 441 2620 675 
Q 2931 909 2931 1356 
Q 2931 1769 2642 2001 
Q 2353 2234 1838 2234 
L 1294 2234 
L 1294 2753 
L 1863 2753 
Q 2328 2753 2575 2939 
Q 2822 3125 2822 3475 
Q 2822 3834 2567 4026 
Q 2313 4219 1838 4219 
Q 1578 4219 1281 4162 
Q 984 4106 628 3988 
L 628 4550 
Q 988 4650 1302 4700 
Q 1616 4750 1894 4750 
Q 2613 4750 3031 4423 
Q 3450 4097 3450 3541 
Q 3450 3153 3228 2886 
Q 3006 2619 2597 2516 
z
" transform="scale(0.015625)"/>
      </defs>
      <use xlink:href="#DejaVuSans-33"/>
     </g>
    </g>
   </g>
  </g>
  <g id="axis3d_2">
   <g id="line2d_8">
    <path d="M 316.12668 171.68791 
L 251.239879 238.27773 
" style="fill: none; stroke: #000000; stroke-width: 0.8; stroke-linecap: square"/>
   </g>
   <g id="Line3DCollection_2">
    <path d="M 142.093362 93.582791 
L 145.683325 184.4843 
L 266.27784 222.845083 
" style="fill: none; stroke: #b0b0b0; stroke-width: 0.8"/>
    <path d="M 160.262848 80.323527 
L 163.003537 169.966155 
L 281.94959 206.762012 
" style="fill: none; stroke: #b0b0b0; stroke-width: 0.8"/>
    <path d="M 177.685418 67.609329 
L 179.6416 156.019801 
L 296.972709 191.344596 
" style="fill: none; stroke: #b0b0b0; stroke-width: 0.8"/>
    <path d="M 194.406201 55.407263 
L 195.637034 142.61211 
L 311.386651 176.552346 
" style="fill: none; stroke: #b0b0b0; stroke-width: 0.8"/>
   </g>
   <g id="xtick_7">
    <g id="line2d_9">
     <path d="M 265.262308 222.522045 
L 268.311493 223.491982 
" style="fill: none; stroke: #000000; stroke-width: 0.8; stroke-linecap: square"/>
    </g>
    <g id="text_7">
     <!-- −1 -->
     <g transform="translate(271.61594 243.672384)scale(0.1 -0.1)">
      <use xlink:href="#DejaVuSans-2212"/>
      <use xlink:href="#DejaVuSans-31" x="83.789062"/>
     </g>
    </g>
   </g>
   <g id="xtick_8">
    <g id="line2d_10">
     <path d="M 280.948997 206.45248 
L 283.953271 207.381849 
" style="fill: none; stroke: #000000; stroke-width: 0.8; stroke-linecap: square"/>
    </g>
    <g id="text_8">
     <!-- 0 -->
     <g transform="translate(291.219864 227.298193)scale(0.1 -0.1)">
      <use xlink:href="#DejaVuSans-30"/>
     </g>
    </g>
   </g>
   <g id="xtick_9">
    <g id="line2d_11">
     <path d="M 295.986702 191.04774 
L 298.947132 191.939034 
" style="fill: none; stroke: #000000; stroke-width: 0.8; stroke-linecap: square"/>
    </g>
    <g id="text_9">
     <!-- 1 -->
     <g transform="translate(305.995536 211.602175)scale(0.1 -0.1)">
      <use xlink:href="#DejaVuSans-31"/>
     </g>
    </g>
   </g>
   <g id="xtick_10">
    <g id="line2d_12">
     <path d="M 310.414881 176.267403 
L 313.332517 177.122915 
" style="fill: none; stroke: #000000; stroke-width: 0.8; stroke-linecap: square"/>
    </g>
    <g id="text_10">
     <!-- 2 -->
     <g transform="translate(320.171658 196.543053)scale(0.1 -0.1)">
      <use xlink:href="#DejaVuSans-32"/>
     </g>
    </g>
   </g>
  </g>
  <g id="axis3d_3">
   <g id="line2d_13">
    <path d="M 316.12668 171.68791 
L 320.238571 81.894718 
" style="fill: none; stroke: #000000; stroke-width: 0.8; stroke-linecap: square"/>
   </g>
   <g id="Line3DCollection_3">
    <path d="M 317.059318 151.32149 
L 200.67724 118.476794 
L 128.093732 177.527438 
" style="fill: none; stroke: #b0b0b0; stroke-width: 0.8"/>
    <path d="M 318.098639 128.62536 
L 200.424786 96.522794 
L 126.973437 154.263777 
" style="fill: none; stroke: #b0b0b0; stroke-width: 0.8"/>
    <path d="M 319.161525 105.414653 
L 200.166887 74.095262 
L 125.826754 130.452157 
" style="fill: none; stroke: #b0b0b0; stroke-width: 0.8"/>
   </g>
   <g id="xtick_11">
    <g id="line2d_14">
     <path d="M 316.082087 151.045702 
L 319.016126 151.87373 
" style="fill: none; stroke: #000000; stroke-width: 0.8; stroke-linecap: square"/>
    </g>
    <g id="text_11">
     <!-- −1 -->
     <g transform="translate(328.105779 156.365762)scale(0.1 -0.1)">
      <use xlink:href="#DejaVuSans-2212"/>
      <use xlink:href="#DejaVuSans-31" x="83.789062"/>
     </g>
    </g>
   </g>
   <g id="xtick_12">
    <g id="line2d_15">
     <path d="M 317.110039 128.35566 
L 320.078242 129.165415 
" style="fill: none; stroke: #000000; stroke-width: 0.8; stroke-linecap: square"/>
    </g>
    <g id="text_12">
     <!-- 0 -->
     <g transform="translate(333.536723 133.726114)scale(0.1 -0.1)">
      <use xlink:href="#DejaVuSans-30"/>
     </g>
    </g>
   </g>
   <g id="xtick_13">
    <g id="line2d_16">
     <path d="M 318.161288 105.151391 
L 321.164457 105.941825 
" style="fill: none; stroke: #000000; stroke-width: 0.8; stroke-linecap: square"/>
    </g>
    <g id="text_13">
     <!-- 1 -->
     <g transform="translate(334.805856 110.575115)scale(0.1 -0.1)">
      <use xlink:href="#DejaVuSans-31"/>
     </g>
    </g>
   </g>
  </g>
  <g id="axes_1">
   <g id="line2d_17">
    <path d="M 231.873198 138.056965 
L 230.783689 136.582533 
L 229.935961 135.032061 
L 229.322191 133.415414 
L 228.933311 131.741081 
L 228.760301 130.01697 
L 228.795212 128.251098 
L 229.060631 126.30106 
L 229.558376 124.324871 
L 230.287766 122.337381 
L 231.252341 120.356249 
L 232.46 118.402555 
L 233.80099 116.645228 
L 235.372064 114.956304 
L 237.027207 113.491978 
L 238.901374 112.133829 
L 240.806709 111.016059 
L 242.91439 110.036095 
L 245.233412 109.223382 
L 247.506921 108.66258 
L 249.959646 108.291828 
L 252.590521 108.141446 
L 255.073919 108.219405 
L 257.684891 108.522226 
L 260.4097 109.075554 
L 262.871642 109.785576 
L 265.387179 110.724142 
L 267.932902 111.90703 
L 270.479644 113.348 
L 272.991984 115.057726 
L 275.0864 116.742057 
L 277.094529 118.629277 
L 278.982705 120.716292 
L 280.714238 122.995536 
L 282.009362 125.032772 
L 283.145065 127.18449 
L 284.097525 129.437506 
L 284.843144 131.775687 
L 285.359167 134.179978 
L 285.624372 136.62855 
L 285.619795 139.097073 
L 285.411045 141.068566 
L 285.01286 143.021702 
L 284.420496 144.941819 
L 283.631143 146.8141 
L 282.644081 148.623847 
L 281.460795 150.356764 
L 280.085033 151.999258 
L 278.522811 153.538723 
L 276.782365 154.963813 
L 274.874036 156.264688 
L 272.8101 157.433226 
L 270.604553 158.463176 
L 268.272839 159.350277 
L 265.206148 160.255078 
L 262.002472 160.933457 
L 258.696965 161.390259 
L 255.324773 161.634655 
L 251.920085 161.679571 
L 247.837003 161.492839 
L 243.804757 161.073837 
L 239.868013 160.457194 
L 235.445339 159.535377 
L 231.249661 158.447862 
L 226.773894 157.066881 
L 222.178636 155.414668 
L 217.633316 153.541864 
L 213.29718 151.517274 
L 209.300331 149.411556 
L 205.729248 147.27971 
L 202.819707 145.29549 
L 200.277709 143.289126 
L 198.203769 141.372505 
L 196.352572 139.370206 
L 194.350539 136.853458 
L 188.216644 128.797508 
L 186.379002 126.940039 
L 184.590174 125.440367 
L 182.750643 124.18437 
L 180.888072 123.174521 
L 179.037336 122.402864 
L 177.029048 121.799905 
L 174.858814 121.397373 
L 172.766543 121.235505 
L 170.545493 121.292618 
L 168.468714 121.551726 
L 166.304 122.030452 
L 164.063468 122.752342 
L 161.763714 123.741393 
L 159.719809 124.844681 
L 157.665318 126.185996 
L 155.622117 127.77933 
L 153.615972 129.636671 
L 151.676622 131.767116 
L 150.092881 133.814653 
L 148.606172 136.06714 
L 147.241495 138.521733 
L 146.025183 141.171802 
L 144.984399 144.006421 
L 144.146499 147.009913 
L 143.538277 150.161506 
L 143.22523 152.88233 
L 143.102771 155.670112 
L 143.182778 158.504498 
L 143.475162 161.362842 
L 143.987475 164.220482 
L 144.724558 167.051104 
L 145.688243 169.827202 
L 146.877127 172.520625 
L 148.286433 175.103181 
L 149.907986 177.547296 
L 151.730284 179.826691 
L 153.738698 181.91704 
L 155.915773 183.796602 
L 158.241627 185.446769 
L 160.694438 186.852518 
L 163.250989 188.002747 
L 165.887242 188.890468 
L 168.578928 189.512863 
L 171.302115 189.87119 
L 174.033733 189.970567 
L 176.752036 189.819628 
L 179.436988 189.4301 
L 182.070562 188.816297 
L 184.636945 187.994588 
L 187.122655 186.982846 
L 189.516579 185.799904 
L 192.255915 184.181556 
L 194.839566 182.377707 
L 197.260786 180.420634 
L 199.516591 178.340866 
L 201.939786 175.796883 
L 204.143239 173.164302 
L 206.403841 170.091437 
L 208.406613 166.991129 
L 210.377353 163.512784 
L 212.25389 159.701968 
L 213.84406 155.980934 
L 215.435723 151.663054 
L 216.847767 147.18461 
L 218.256237 141.960321 
L 219.887372 134.968578 
L 222.369921 124.273933 
L 223.666328 119.737497 
L 224.920783 116.124359 
L 226.286876 112.885803 
L 227.644466 110.216189 
L 229.068931 107.862311 
L 230.692877 105.608205 
L 232.366501 103.658105 
L 234.252213 101.818008 
L 236.151433 100.272201 
L 238.262164 98.849551 
L 240.332177 97.706261 
L 242.599493 96.696627 
L 245.078166 95.842899 
L 247.781405 95.171192 
L 250.340087 94.756548 
L 253.085607 94.527742 
L 256.021618 94.510909 
L 259.148455 94.735082 
L 261.977496 95.143104 
L 264.937823 95.773045 
L 268.019565 96.647497 
L 271.208113 97.789711 
L 274.483212 99.223 
L 277.259426 100.656072 
L 280.057744 102.319098 
L 282.854692 104.222786 
L 285.622523 106.375785 
L 288.329013 108.783957 
L 290.937389 111.449558 
L 292.925893 113.766071 
L 294.802285 116.242446 
L 296.542042 118.872619 
L 298.119407 121.647765 
L 299.507745 124.556069 
L 300.679993 127.582554 
L 301.609192 130.708978 
L 302.269111 133.913839 
L 302.572336 136.354237 
L 302.700387 138.813455 
L 302.644427 141.279161 
L 302.396668 143.7383 
L 301.950552 146.177231 
L 301.300917 148.581884 
L 300.444155 150.93795 
L 299.378337 153.23108 
L 298.10333 155.447104 
L 296.620865 157.572258 
L 294.934583 159.593415 
L 293.050038 161.498309 
L 291.687123 162.698073 
L 291.687123 162.698073 
" clip-path="url(#pafbf69115c)" style="fill: none; stroke: #ff0000; stroke-width: 1.5; stroke-linecap: square"/>
   </g>
   <g id="line2d_18">
    <path d="M 231.873198 138.056965 
L 230.791519 136.582864 
L 229.951667 135.033872 
L 229.345331 133.419628 
L 228.963095 131.74825 
L 228.795746 130.02718 
L 228.835289 128.263926 
L 229.104678 126.315672 
L 229.605563 124.339645 
L 230.337645 122.3503 
L 231.304928 120.365105 
L 232.515822 118.40518 
L 233.860723 116.640419 
L 235.437013 114.942863 
L 237.098407 113.470049 
L 238.980497 112.103414 
L 240.894658 110.978443 
L 243.012823 109.992286 
L 245.101108 109.248121 
L 247.367058 108.665326 
L 249.813382 108.271451 
L 252.439312 108.096931 
L 254.91984 108.152713 
L 257.529713 108.432849 
L 260.255578 108.963227 
L 262.720563 109.65322 
L 265.241474 110.572122 
L 267.79527 111.73609 
L 270.353165 113.159331 
L 272.88012 114.85301 
L 274.990084 116.525311 
L 277.016749 118.402415 
L 278.926577 120.481497 
L 280.682928 122.755214 
L 282.001118 124.789807 
L 283.161948 126.940757 
L 284.141422 129.194964 
L 284.915679 131.536393 
L 285.461615 133.94612 
L 285.757555 136.402481 
L 285.783992 138.881349 
L 285.599831 140.863102 
L 285.225651 142.82837 
L 284.656322 144.762571 
L 283.888635 146.650927 
L 282.921468 148.478727 
L 281.755907 150.231601 
L 280.395325 151.89581 
L 278.845399 153.458535 
L 277.114072 154.908151 
L 275.211453 156.234485 
L 273.149658 157.429038 
L 270.9426 158.485163 
L 268.60573 159.398196 
L 265.527617 160.334477 
L 262.307356 161.042647 
L 258.980689 161.526951 
L 255.583522 161.796086 
L 252.150933 161.862644 
L 248.031848 161.697531 
L 243.962399 161.295341 
L 239.988764 160.690882 
L 235.525163 159.777954 
L 231.292354 158.694424 
L 226.780228 157.313305 
L 222.152929 155.656854 
L 217.583419 153.776782 
L 213.23374 151.744002 
L 209.235388 149.632057 
L 205.674571 147.498997 
L 202.783775 145.520182 
L 200.267864 143.52623 
L 198.223637 141.626625 
L 196.406723 139.644331 
L 194.547542 137.28165 
L 187.911152 128.447341 
L 186.175051 126.716849 
L 184.363265 125.220184 
L 182.494374 123.971146 
L 180.597898 122.972584 
L 178.71039 122.216452 
L 176.659531 121.635241 
L 174.670328 121.288955 
L 172.544557 121.137731 
L 170.284939 121.210682 
L 168.169512 121.489142 
L 165.96206 121.993141 
L 163.674873 122.747281 
L 161.324931 123.776762 
L 159.234725 124.923195 
L 157.132388 126.315936 
L 155.040696 127.970016 
L 152.986593 129.898474 
L 151.001308 132.111396 
L 149.381174 134.239303 
L 147.862237 136.581467 
L 146.47103 139.135149 
L 145.235584 141.893499 
L 144.184907 144.844946 
L 143.348314 147.972674 
L 142.835506 150.697731 
L 142.507336 153.513567 
L 142.378623 156.401183 
L 142.462613 159.338783 
L 142.770521 162.301951 
L 143.311075 165.263924 
L 144.090089 168.195985 
L 145.110082 171.067978 
L 146.369977 173.848927 
L 147.864903 176.507757 
L 149.586113 179.014088 
L 151.117687 180.889885 
L 152.778 182.635831 
L 154.557567 184.23941 
L 156.445666 185.689549 
L 158.430519 186.976828 
L 160.499489 188.09363 
L 162.639298 189.034257 
L 164.836261 189.794994 
L 167.07652 190.374124 
L 169.346279 190.771887 
L 172.204424 191.017436 
L 175.062324 190.990968 
L 177.896438 190.704191 
L 180.685386 190.171994 
L 183.410254 189.411802 
L 186.054787 188.442912 
L 188.605468 187.285846 
L 191.051501 185.961735 
L 193.837271 184.182132 
L 196.451214 182.228278 
L 198.888396 180.134178 
L 201.147836 177.93135 
L 203.562458 175.261901 
L 205.746627 172.523043 
L 207.975977 169.350949 
L 209.941562 166.173064 
L 211.867671 162.630233 
L 213.695767 158.771837 
L 215.383683 154.656194 
L 216.909426 150.344422 
L 218.367901 145.561356 
L 219.889747 139.794049 
L 224.176926 122.892631 
L 225.497614 118.992524 
L 226.834779 115.734727 
L 228.271761 112.839926 
L 229.800465 110.286056 
L 231.401609 108.055219 
L 233.046893 106.13084 
L 234.895606 104.320203 
L 236.752627 102.803497 
L 238.81102 101.411655 
L 241.088888 100.165953 
L 243.312478 99.202041 
L 245.735826 98.395283 
L 248.369919 97.770626 
L 250.854801 97.395972 
L 253.512207 97.204601 
L 256.343858 97.220879 
L 259.348112 97.471647 
L 262.518898 97.986062 
L 265.360527 98.660383 
L 268.304465 99.571664 
L 271.334606 100.740613 
L 274.429474 102.187611 
L 277.561432 103.931894 
L 280.175029 105.624942 
L 282.766556 107.54439 
L 285.308216 109.695989 
L 287.768307 112.082477 
L 290.111277 114.70282 
L 292.297953 117.551437 
L 293.906399 119.987571 
L 295.364909 122.55467 
L 296.649919 125.241848 
L 297.737541 128.035511 
L 298.604025 130.919324 
L 299.226283 133.874245 
L 299.582464 136.878646 
L 299.652575 139.908524 
L 299.506783 142.182028 
L 299.183903 144.443578 
L 298.678802 146.681112 
L 297.987606 148.882279 
L 297.10782 151.0346 
L 296.038431 153.125628 
L 294.77999 155.143124 
L 293.334661 157.075248 
L 291.706254 158.910747 
L 289.900215 160.639137 
L 287.923588 162.250894 
L 285.784938 163.737612 
L 283.494249 165.092159 
L 281.888171 165.918868 
L 281.888171 165.918868 
" clip-path="url(#pafbf69115c)" style="fill: none; stroke-dasharray: 5.55,2.4; stroke-dashoffset: 0; stroke: #0000ff; stroke-width: 1.5"/>
   </g>
  </g>
 </g>
 <defs>
  <clipPath id="pafbf69115c">
   <rect x="112.68" y="34.56" width="217.44" height="217.44"/>
  </clipPath>
 </defs>
</svg>
