<?xml version="1.0" encoding="utf-8" standalone="no"?>
<!DOCTYPE svg PUBLIC "-//W3C//DTD SVG 1.1//EN"
  "http://www.w3.org/Graphics/SVG/1.1/DTD/svg11.dtd">
<svg xmlns:xlink="http://www.w3.org/1999/xlink" width="432pt" height="288pt" viewBox="0 0 432 288" xmlns="http://www.w3.org/2000/svg" version="1.1">
 <metadata>
  <rdf:RDF xmlns:dc="http://purl.org/dc/elements/1.1/" xmlns:cc="http://creativecommons.org/ns#" xmlns:rdf="http://www.w3.org/1999/02/22-rdf-syntax-ns#">
   <cc:Work>
    <dc:type rdf:resource="http://purl.org/dc/dcmitype/StillImage"/>
    <dc:date>2022-05-20T20:17:18.164346</dc:date>
    <dc:format>image/svg+xml</dc:format>
    <dc:creator>
     <cc:Agent>
      <dc:title>Matplotlib v3.5.1, https://matplotlib.org/</dc:title>
     </cc:Agent>
    </dc:creator>
   </cc:Work>
  </rdf:RDF>
 </metadata>
 <defs>
  <style type="text/css">*{stroke-linejoin: round; stroke-linecap: butt}</style>
 </defs>
 <g id="figure_1">
  <g id="patch_1">
   <path d="M 0 288 
L 432 288 
L 432 0 
L 0 0 
L 0 288 
z
" style="fill: none"/>
  </g>
  <g id="patch_2">
   <path d="M 112.68 252 
L 330.12 252 
L 330.12 34.56 
L 112.68 34.56 
z
" style="fill: #ffffff"/>
  </g>
  <g id="pane3d_1">
   <g id="patch_3">
    <path d="M 129.09822 198.386264 
L 200.904009 138.197228 
L 199.90584 51.393878 
L 124.663773 106.302111 
" style="fill: #f2f2f2; opacity: 0.5; stroke: #f2f2f2; stroke-linejoin: miter"/>
   </g>
  </g>
  <g id="pane3d_2">
   <g id="patch_4">
    <path d="M 200.904009 138.197228 
L 316.12668 171.68791 
L 320.238571 81.894718 
L 199.90584 51.393878 
" style="fill: #e6e6e6; opacity: 0.5; stroke: #e6e6e6; stroke-linejoin: miter"/>
   </g>
  </g>
  <g id="pane3d_3">
   <g id="patch_5">
    <path d="M 129.09822 198.386264 
L 251.239879 238.27773 
L 316.12668 171.68791 
L 200.904009 138.197228 
" style="fill: #ececec; opacity: 0.5; stroke: #ececec; stroke-linejoin: miter"/>
   </g>
  </g>
  <g id="axis3d_1">
   <g id="line2d_1">
    <path d="M 129.09822 198.386264 
L 251.239879 238.27773 
" style="fill: none; stroke: #000000; stroke-width: 0.8; stroke-linecap: square"/>
   </g>
   <g id="text_1">
    <!-- X -->
    <g transform="translate(168.626305 255.546233)scale(0.1 -0.1)">
     <defs>
      <path id="TimesNewRomanPSMT-58" d="M 2613 2347 
L 3522 991 
Q 3900 428 4083 279 
Q 4266 131 4547 116 
L 4547 0 
L 2728 0 
L 2728 116 
Q 2909 119 2997 153 
Q 3063 181 3105 239 
Q 3147 297 3147 356 
Q 3147 428 3119 500 
Q 3097 553 2947 775 
L 2228 1863 
L 1341 725 
Q 1200 544 1172 483 
Q 1144 422 1144 356 
Q 1144 256 1228 190 
Q 1313 125 1550 116 
L 1550 0 
L 47 0 
L 47 116 
Q 206 131 322 181 
Q 516 263 691 400 
Q 866 538 1091 822 
L 2091 2084 
L 1256 3306 
Q 916 3803 678 3958 
Q 441 4113 131 4122 
L 131 4238 
L 2091 4238 
L 2091 4122 
Q 1841 4113 1748 4041 
Q 1656 3969 1656 3881 
Q 1656 3766 1806 3544 
L 2456 2572 
L 3209 3525 
Q 3341 3694 3370 3756 
Q 3400 3819 3400 3884 
Q 3400 3950 3363 4000 
Q 3316 4066 3244 4092 
Q 3172 4119 2947 4122 
L 2947 4238 
L 4450 4238 
L 4450 4122 
Q 4272 4113 4159 4066 
Q 3991 3994 3850 3872 
Q 3709 3750 3453 3422 
L 2613 2347 
z
" transform="scale(0.015625)"/>
     </defs>
     <use xlink:href="#TimesNewRomanPSMT-58"/>
    </g>
   </g>
   <g id="Line3DCollection_1">
    <path d="M 132.031622 199.344314 
L 203.683191 139.005026 
L 202.802303 52.128047 
" style="fill: none; stroke: #b0b0b0; stroke-width: 0.8"/>
    <path d="M 152.143482 205.912847 
L 222.7218 144.538799 
L 222.65227 57.159435 
" style="fill: none; stroke: #b0b0b0; stroke-width: 0.8"/>
    <path d="M 172.616768 212.599422 
L 242.074099 150.163748 
L 242.843482 62.277319 
" style="fill: none; stroke: #b0b0b0; stroke-width: 0.8"/>
    <path d="M 193.461312 219.40725 
L 261.747903 155.882146 
L 263.384814 67.483948 
" style="fill: none; stroke: #b0b0b0; stroke-width: 0.8"/>
    <path d="M 214.687303 226.339659 
L 281.751292 161.696341 
L 284.285454 72.78165 
" style="fill: none; stroke: #b0b0b0; stroke-width: 0.8"/>
    <path d="M 236.305309 233.400099 
L 302.092617 167.608762 
L 305.554912 78.172838 
" style="fill: none; stroke: #b0b0b0; stroke-width: 0.8"/>
   </g>
   <g id="xtick_1">
    <g id="line2d_2">
     <path d="M 132.655459 198.818967 
L 130.781274 200.397257 
" style="fill: none; stroke: #000000; stroke-width: 0.8; stroke-linecap: square"/>
    </g>
    <g id="text_2">
     <!-- −2 -->
     <g transform="translate(119.171418 221.974073)scale(0.1 -0.1)">
      <defs>
       <path id="TimesNewRomanPSMT-2212" d="M 3484 2000 
L 116 2000 
L 116 2256 
L 3484 2256 
L 3484 2000 
z
" transform="scale(0.015625)"/>
       <path id="TimesNewRomanPSMT-32" d="M 2934 816 
L 2638 0 
L 138 0 
L 138 116 
Q 1241 1122 1691 1759 
Q 2141 2397 2141 2925 
Q 2141 3328 1894 3587 
Q 1647 3847 1303 3847 
Q 991 3847 742 3664 
Q 494 3481 375 3128 
L 259 3128 
Q 338 3706 661 4015 
Q 984 4325 1469 4325 
Q 1984 4325 2329 3994 
Q 2675 3663 2675 3213 
Q 2675 2891 2525 2569 
Q 2294 2063 1775 1497 
Q 997 647 803 472 
L 1909 472 
Q 2247 472 2383 497 
Q 2519 522 2628 598 
Q 2738 675 2819 816 
L 2934 816 
z
" transform="scale(0.015625)"/>
      </defs>
      <use xlink:href="#TimesNewRomanPSMT-2212"/>
      <use xlink:href="#TimesNewRomanPSMT-32" x="56.396484"/>
     </g>
    </g>
   </g>
   <g id="xtick_2">
    <g id="line2d_3">
     <path d="M 152.758419 205.378105 
L 150.91095 206.984642 
" style="fill: none; stroke: #000000; stroke-width: 0.8; stroke-linecap: square"/>
    </g>
    <g id="text_3">
     <!-- −1 -->
     <g transform="translate(139.308027 228.713051)scale(0.1 -0.1)">
      <defs>
       <path id="TimesNewRomanPSMT-31" d="M 750 3822 
L 1781 4325 
L 1884 4325 
L 1884 747 
Q 1884 391 1914 303 
Q 1944 216 2037 169 
Q 2131 122 2419 116 
L 2419 0 
L 825 0 
L 825 116 
Q 1125 122 1212 167 
Q 1300 213 1334 289 
Q 1369 366 1369 747 
L 1369 3034 
Q 1369 3497 1338 3628 
Q 1316 3728 1258 3775 
Q 1200 3822 1119 3822 
Q 1003 3822 797 3725 
L 750 3822 
z
" transform="scale(0.015625)"/>
      </defs>
      <use xlink:href="#TimesNewRomanPSMT-2212"/>
      <use xlink:href="#TimesNewRomanPSMT-31" x="56.396484"/>
     </g>
    </g>
   </g>
   <g id="xtick_3">
    <g id="line2d_4">
     <path d="M 173.222383 212.055031 
L 171.402898 213.690579 
" style="fill: none; stroke: #000000; stroke-width: 0.8; stroke-linecap: square"/>
    </g>
    <g id="text_4">
     <!-- 0 -->
     <g transform="translate(162.62771 235.573695)scale(0.1 -0.1)">
      <defs>
       <path id="TimesNewRomanPSMT-30" d="M 231 2094 
Q 231 2819 450 3342 
Q 669 3866 1031 4122 
Q 1313 4325 1613 4325 
Q 2100 4325 2488 3828 
Q 2972 3213 2972 2159 
Q 2972 1422 2759 906 
Q 2547 391 2217 158 
Q 1888 -75 1581 -75 
Q 975 -75 572 641 
Q 231 1244 231 2094 
z
M 844 2016 
Q 844 1141 1059 588 
Q 1238 122 1591 122 
Q 1759 122 1940 273 
Q 2122 425 2216 781 
Q 2359 1319 2359 2297 
Q 2359 3022 2209 3506 
Q 2097 3866 1919 4016 
Q 1791 4119 1609 4119 
Q 1397 4119 1231 3928 
Q 1006 3669 925 3112 
Q 844 2556 844 2016 
z
" transform="scale(0.015625)"/>
      </defs>
      <use xlink:href="#TimesNewRomanPSMT-30"/>
     </g>
    </g>
   </g>
   <g id="xtick_4">
    <g id="line2d_5">
     <path d="M 194.057164 218.852946 
L 192.266987 220.518297 
" style="fill: none; stroke: #000000; stroke-width: 0.8; stroke-linecap: square"/>
    </g>
    <g id="text_5">
     <!-- 1 -->
     <g transform="translate(183.501343 242.559329)scale(0.1 -0.1)">
      <use xlink:href="#TimesNewRomanPSMT-31"/>
     </g>
    </g>
   </g>
   <g id="xtick_5">
    <g id="line2d_6">
     <path d="M 215.272931 225.775168 
L 213.513445 227.471146 
" style="fill: none; stroke: #000000; stroke-width: 0.8; stroke-linecap: square"/>
    </g>
    <g id="text_6">
     <!-- 2 -->
     <g transform="translate(204.758755 249.6734)scale(0.1 -0.1)">
      <use xlink:href="#TimesNewRomanPSMT-32"/>
     </g>
    </g>
   </g>
   <g id="xtick_6">
    <g id="line2d_7">
     <path d="M 236.880234 232.825139 
L 235.152883 234.552596 
" style="fill: none; stroke: #000000; stroke-width: 0.8; stroke-linecap: square"/>
    </g>
    <g id="text_7">
     <!-- 3 -->
     <g transform="translate(226.410628 256.919482)scale(0.1 -0.1)">
      <defs>
       <path id="TimesNewRomanPSMT-33" d="M 325 3431 
Q 506 3859 782 4092 
Q 1059 4325 1472 4325 
Q 1981 4325 2253 3994 
Q 2459 3747 2459 3466 
Q 2459 3003 1878 2509 
Q 2269 2356 2469 2072 
Q 2669 1788 2669 1403 
Q 2669 853 2319 450 
Q 1863 -75 997 -75 
Q 569 -75 414 31 
Q 259 138 259 259 
Q 259 350 332 419 
Q 406 488 509 488 
Q 588 488 669 463 
Q 722 447 909 348 
Q 1097 250 1169 231 
Q 1284 197 1416 197 
Q 1734 197 1970 444 
Q 2206 691 2206 1028 
Q 2206 1275 2097 1509 
Q 2016 1684 1919 1775 
Q 1784 1900 1550 2001 
Q 1316 2103 1072 2103 
L 972 2103 
L 972 2197 
Q 1219 2228 1467 2375 
Q 1716 2522 1828 2728 
Q 1941 2934 1941 3181 
Q 1941 3503 1739 3701 
Q 1538 3900 1238 3900 
Q 753 3900 428 3381 
L 325 3431 
z
" transform="scale(0.015625)"/>
      </defs>
      <use xlink:href="#TimesNewRomanPSMT-33"/>
     </g>
    </g>
   </g>
  </g>
  <g id="axis3d_2">
   <g id="line2d_8">
    <path d="M 316.12668 171.68791 
L 251.239879 238.27773 
" style="fill: none; stroke: #000000; stroke-width: 0.8; stroke-linecap: square"/>
   </g>
   <g id="text_8">
    <!-- Y -->
    <g transform="translate(308.50252 233.913757)scale(0.1 -0.1)">
     <defs>
      <path id="TimesNewRomanPSMT-59" d="M 3050 4238 
L 4528 4238 
L 4528 4122 
L 4447 4122 
Q 4366 4122 4209 4050 
Q 4053 3978 3925 3843 
Q 3797 3709 3609 3406 
L 2588 1797 
L 2588 734 
Q 2588 344 2675 247 
Q 2794 116 3050 116 
L 3188 116 
L 3188 0 
L 1388 0 
L 1388 116 
L 1538 116 
Q 1806 116 1919 278 
Q 1988 378 1988 734 
L 1988 1738 
L 825 3513 
Q 619 3825 545 3903 
Q 472 3981 241 4091 
Q 178 4122 59 4122 
L 59 4238 
L 1872 4238 
L 1872 4122 
L 1778 4122 
Q 1631 4122 1507 4053 
Q 1384 3984 1384 3847 
Q 1384 3734 1575 3441 
L 2459 2075 
L 3291 3381 
Q 3478 3675 3478 3819 
Q 3478 3906 3433 3975 
Q 3388 4044 3303 4083 
Q 3219 4122 3050 4122 
L 3050 4238 
z
" transform="scale(0.015625)"/>
     </defs>
     <use xlink:href="#TimesNewRomanPSMT-59"/>
    </g>
   </g>
   <g id="Line3DCollection_2">
    <path d="M 129.645381 102.66676 
L 133.83549 194.41539 
L 255.538368 233.866423 
" style="fill: none; stroke: #b0b0b0; stroke-width: 0.8"/>
    <path d="M 150.79003 87.236359 
L 153.969535 177.538635 
L 273.779571 215.146461 
" style="fill: none; stroke: #b0b0b0; stroke-width: 0.8"/>
    <path d="M 170.940474 72.531482 
L 173.196897 161.421879 
L 291.157194 197.312745 
" style="fill: none; stroke: #b0b0b0; stroke-width: 0.8"/>
    <path d="M 190.165224 58.502135 
L 191.577473 146.014916 
L 307.731144 180.303795 
" style="fill: none; stroke: #b0b0b0; stroke-width: 0.8"/>
   </g>
   <g id="xtick_7">
    <g id="line2d_9">
     <path d="M 254.512761 233.533964 
L 257.592235 234.532202 
" style="fill: none; stroke: #000000; stroke-width: 0.8; stroke-linecap: square"/>
    </g>
    <g id="text_9">
     <!-- −1 -->
     <g transform="translate(263.104333 254.238824)scale(0.1 -0.1)">
      <use xlink:href="#TimesNewRomanPSMT-2212"/>
      <use xlink:href="#TimesNewRomanPSMT-31" x="56.396484"/>
     </g>
    </g>
   </g>
   <g id="xtick_8">
    <g id="line2d_10">
     <path d="M 272.771156 214.829924 
L 275.798948 215.780334 
" style="fill: none; stroke: #000000; stroke-width: 0.8; stroke-linecap: square"/>
    </g>
    <g id="text_10">
     <!-- 0 -->
     <g transform="translate(283.865483 235.179659)scale(0.1 -0.1)">
      <use xlink:href="#TimesNewRomanPSMT-30"/>
     </g>
    </g>
   </g>
   <g id="xtick_9">
    <g id="line2d_11">
     <path d="M 290.165511 197.011013 
L 293.143005 197.916952 
" style="fill: none; stroke: #000000; stroke-width: 0.8; stroke-linecap: square"/>
    </g>
    <g id="text_11">
     <!-- 1 -->
     <g transform="translate(300.957111 217.02343)scale(0.1 -0.1)">
      <use xlink:href="#TimesNewRomanPSMT-31"/>
     </g>
    </g>
   </g>
   <g id="xtick_10">
    <g id="line2d_12">
     <path d="M 306.755741 180.015853 
L 309.684297 180.880371 
" style="fill: none; stroke: #000000; stroke-width: 0.8; stroke-linecap: square"/>
    </g>
    <g id="text_12">
     <!-- 2 -->
     <g transform="translate(317.257752 199.707456)scale(0.1 -0.1)">
      <use xlink:href="#TimesNewRomanPSMT-32"/>
     </g>
    </g>
   </g>
  </g>
  <g id="axis3d_3">
   <g id="line2d_13">
    <path d="M 316.12668 171.68791 
L 320.238571 81.894718 
" style="fill: none; stroke: #000000; stroke-width: 0.8; stroke-linecap: square"/>
   </g>
   <g id="text_13">
    <!-- Z -->
    <g transform="translate(355.399591 124.775946)scale(0.1 -0.1)">
     <defs>
      <path id="TimesNewRomanPSMT-5a" d="M 3681 4238 
L 897 256 
L 2634 256 
Q 3034 256 3248 431 
Q 3463 606 3628 1141 
L 3731 1122 
L 3531 0 
L 81 0 
L 81 116 
L 2800 3984 
L 1444 3984 
Q 1106 3984 954 3911 
Q 803 3838 723 3698 
Q 644 3559 578 3178 
L 459 3178 
L 547 4238 
L 3681 4238 
z
" transform="scale(0.015625)"/>
     </defs>
     <use xlink:href="#TimesNewRomanPSMT-5a"/>
    </g>
   </g>
   <g id="Line3DCollection_3">
    <path d="M 316.831293 156.300958 
L 200.732663 123.296577 
L 128.339394 182.628769 
" style="fill: none; stroke: #b0b0b0; stroke-width: 0.8"/>
    <path d="M 317.575492 140.049567 
L 200.551826 107.570517 
L 127.537462 165.976131 
" style="fill: none; stroke: #b0b0b0; stroke-width: 0.8"/>
    <path d="M 318.331763 123.534536 
L 200.368197 91.601649 
L 126.72202 149.042932 
" style="fill: none; stroke: #b0b0b0; stroke-width: 0.8"/>
    <path d="M 319.100403 106.749399 
L 200.18171 75.384308 
L 125.892722 131.822021 
" style="fill: none; stroke: #b0b0b0; stroke-width: 0.8"/>
    <path d="M 319.881718 89.687474 
L 199.992299 58.912649 
L 125.049212 114.306004 
" style="fill: none; stroke: #b0b0b0; stroke-width: 0.8"/>
   </g>
   <g id="xtick_11">
    <g id="line2d_14">
     <path d="M 315.856556 156.023861 
L 318.783104 156.855817 
" style="fill: none; stroke: #000000; stroke-width: 0.8; stroke-linecap: square"/>
    </g>
    <g id="text_14">
     <!-- −2 -->
     <g transform="translate(329.885033 160.678402)scale(0.1 -0.1)">
      <use xlink:href="#TimesNewRomanPSMT-2212"/>
      <use xlink:href="#TimesNewRomanPSMT-32" x="56.396484"/>
     </g>
    </g>
   </g>
   <g id="xtick_12">
    <g id="line2d_15">
     <path d="M 316.592616 139.776777 
L 319.543618 140.595806 
" style="fill: none; stroke: #000000; stroke-width: 0.8; stroke-linecap: square"/>
    </g>
    <g id="text_15">
     <!-- −1 -->
     <g transform="translate(330.773741 144.466968)scale(0.1 -0.1)">
      <use xlink:href="#TimesNewRomanPSMT-2212"/>
      <use xlink:href="#TimesNewRomanPSMT-31" x="56.396484"/>
     </g>
    </g>
   </g>
   <g id="xtick_13">
    <g id="line2d_16">
     <path d="M 317.340611 123.26623 
L 320.316481 124.071802 
" style="fill: none; stroke: #000000; stroke-width: 0.8; stroke-linecap: square"/>
    </g>
    <g id="text_16">
     <!-- 0 -->
     <g transform="translate(334.496343 127.99353)scale(0.1 -0.1)">
      <use xlink:href="#TimesNewRomanPSMT-30"/>
     </g>
    </g>
   </g>
   <g id="xtick_14">
    <g id="line2d_17">
     <path d="M 318.100835 106.485761 
L 321.101993 107.277323 
" style="fill: none; stroke: #000000; stroke-width: 0.8; stroke-linecap: square"/>
    </g>
    <g id="text_17">
     <!-- 1 -->
     <g transform="translate(335.414127 111.251686)scale(0.1 -0.1)">
      <use xlink:href="#TimesNewRomanPSMT-31"/>
     </g>
    </g>
   </g>
   <g id="xtick_15">
    <g id="line2d_18">
     <path d="M 318.87359 89.428695 
L 321.90047 90.205675 
" style="fill: none; stroke: #000000; stroke-width: 0.8; stroke-linecap: square"/>
    </g>
    <g id="text_18">
     <!-- 2 -->
     <g transform="translate(336.346988 94.234822)scale(0.1 -0.1)">
      <use xlink:href="#TimesNewRomanPSMT-32"/>
     </g>
    </g>
   </g>
  </g>
  <g id="axes_1">
   <g id="line2d_19">
    <path d="M 223.412409 130.682247 
L 223.831515 129.690447 
L 224.481651 128.709458 
L 225.439091 127.686142 
L 226.670482 126.711666 
L 228.17878 125.810522 
L 229.964462 125.011369 
L 232.0235 124.347093 
L 234.181922 123.881247 
L 236.550417 123.59747 
L 239.09875 123.529623 
L 241.585946 123.689183 
L 243.93911 124.048384 
L 246.291569 124.626894 
L 248.389281 125.358044 
L 250.366234 126.282542 
L 251.998342 127.285293 
L 253.282528 128.310186 
L 254.345318 129.437205 
L 255.068037 130.509988 
L 255.550659 131.632926 
L 255.754674 132.64193 
L 255.738705 133.660986 
L 255.490623 134.675153 
L 255.002287 135.668995 
L 254.270113 136.627091 
L 253.295497 137.534595 
L 252.085024 138.377788 
L 250.428127 139.247308 
L 248.504014 140.002543 
L 246.060879 140.702817 
L 243.376251 141.237513 
L 240.18483 141.636768 
L 236.522084 141.849147 
L 232.810179 141.845168 
L 228.82578 141.627825 
L 224.711171 141.187112 
L 220.632354 140.527241 
L 217.000282 139.7222 
L 213.854454 138.804913 
L 211.372934 137.868721 
L 209.298847 136.857055 
L 207.722271 135.856117 
L 206.443026 134.788292 
L 205.432985 133.650512 
L 204.664436 132.440189 
L 204.111557 131.155896 
L 203.729437 129.681237 
L 203.542873 127.998759 
L 203.575777 126.09354 
L 203.830455 124.091586 
L 204.336015 121.863014 
L 205.084495 119.554763 
L 206.09077 117.185685 
L 207.293936 114.928124 
L 208.675942 112.806872 
L 210.21825 110.841526 
L 211.898514 109.046927 
L 213.864175 107.288736 
L 215.955151 105.727214 
L 218.130689 104.36699 
L 220.60282 103.083062 
L 223.408958 101.899261 
L 226.253342 100.943781 
L 229.431645 100.119802 
L 232.562115 99.523614 
L 236.001579 99.083573 
L 239.768427 98.8313 
L 243.876765 98.80357 
L 247.757563 98.996562 
L 251.903887 99.425425 
L 256.305808 100.124788 
L 260.266745 100.967492 
L 264.378797 102.06006 
L 268.611141 103.426373 
L 272.200113 104.790482 
L 275.812743 106.372203 
L 279.411223 108.181245 
L 282.950429 110.224412 
L 286.377623 112.504609 
L 288.998428 114.498228 
L 291.474823 116.638509 
L 293.769891 118.918756 
L 295.844484 121.329075 
L 297.657837 123.856093 
L 298.821398 125.817826 
L 299.797077 127.82711 
L 300.567651 129.874185 
L 301.116508 131.948151 
L 301.42796 134.037037 
L 301.487583 136.127917 
L 301.282548 138.207047 
L 300.801959 140.260056 
L 300.037171 142.272154 
L 298.982082 144.228386 
L 297.633386 146.113902 
L 295.990773 147.914248 
L 294.05707 149.615669 
L 291.838306 151.20541 
L 289.343706 152.672001 
L 286.585603 154.005525 
L 283.579266 155.197853 
L 280.342659 156.24283 
L 276.896121 157.136419 
L 273.262003 157.876777 
L 269.46424 158.464286 
L 264.189436 159.014597 
L 258.729434 159.309746 
L 253.145494 159.36742 
L 247.497233 159.210307 
L 240.431896 158.752679 
L 233.453477 158.058863 
L 225.31354 156.999972 
L 216.285303 155.583061 
L 203.393661 153.30007 
L 189.541145 150.896098 
L 182.892704 149.967357 
L 177.772828 149.464897 
L 173.248387 149.256038 
L 169.802405 149.302847 
L 166.720062 149.545229 
L 163.97075 149.967478 
L 161.52725 150.551955 
L 159.36601 151.280088 
L 157.467107 152.133056 
L 155.813996 153.092226 
L 154.393126 154.139388 
L 153.014391 155.44873 
L 151.922771 156.826654 
L 151.10686 158.246964 
L 150.556878 159.684321 
L 150.263712 161.114196 
L 150.218088 162.512884 
L 150.409873 163.857615 
L 150.827549 165.126751 
L 151.457851 166.300057 
L 152.285579 167.359023 
L 153.293576 168.287203 
L 154.462862 169.070554 
L 155.772906 169.697718 
L 157.202 170.160246 
L 158.952237 170.480453 
L 160.794881 170.575474 
L 162.696741 170.44717 
L 164.626142 170.102049 
L 166.553715 169.55069 
L 168.687271 168.701336 
L 170.752651 167.63226 
L 172.723148 166.369674 
L 174.776127 164.773203 
L 176.665795 163.009187 
L 178.37928 161.113426 
L 180.053286 158.915051 
L 181.505668 156.635533 
L 182.843266 154.094401 
L 183.934978 151.529638 
L 184.796084 148.967613 
L 185.488084 146.217603 
L 185.950047 143.510723 
L 186.212228 140.65632 
L 186.24984 137.87237 
L 186.057668 134.971815 
L 185.635299 132.157674 
L 185.035397 129.609236 
L 184.231476 127.1366 
L 183.210803 124.741521 
L 182.051153 122.590518 
L 180.779548 120.672553 
L 179.291287 118.826895 
L 177.712737 117.207517 
L 175.902719 115.668963 
L 175.546489 115.399012 
L 175.546489 115.399012 
" clip-path="url(#p08883bee0a)" style="fill: none; stroke: #ff0000; stroke-width: 1.5; stroke-linecap: square"/>
   </g>
   <g id="line2d_20">
    <path d="M 223.412409 130.682247 
L 223.831439 129.691456 
L 224.481344 128.711213 
L 225.438217 127.687853 
L 226.668594 126.711634 
L 228.175374 125.805907 
L 229.959074 124.997855 
L 232.015851 124.318538 
L 234.334639 123.802666 
L 236.715937 123.501883 
L 239.276092 123.408328 
L 241.77353 123.534744 
L 244.333534 123.890526 
L 246.692577 124.439019 
L 248.791913 125.135924 
L 250.766401 126.020348 
L 252.393145 126.982691 
L 253.670534 127.969252 
L 254.725375 129.057555 
L 255.440728 130.096946 
L 255.916366 131.188764 
L 256.115071 132.173377 
L 256.094928 133.171494 
L 255.844088 134.168814 
L 255.354554 135.150373 
L 254.622724 136.101022 
L 253.64978 137.005963 
L 252.25075 137.966465 
L 250.562196 138.830839 
L 248.609316 139.584145 
L 246.136817 140.285521 
L 243.425349 140.824054 
L 240.206317 141.229826 
L 236.515339 141.450925 
L 232.777503 141.456124 
L 228.76827 141.248201 
L 224.632336 140.816107 
L 220.538744 140.163279 
L 216.901296 139.363257 
L 213.759167 138.449762 
L 211.28802 137.516809 
L 209.229404 136.508778 
L 207.670211 135.511936 
L 206.41012 134.449127 
L 205.420051 133.317375 
L 204.671613 132.114129 
L 204.138571 130.837983 
L 203.777446 129.373395 
L 203.613002 127.703288 
L 203.669468 125.813202 
L 203.974517 123.69305 
L 204.522676 121.479847 
L 205.317352 119.190487 
L 206.375633 116.843769 
L 207.634876 114.61019 
L 209.077388 112.513834 
L 210.684425 110.573719 
L 212.43294 108.804226 
L 214.293503 107.215278 
L 216.436846 105.67478 
L 218.664579 104.333359 
L 221.193228 103.067556 
L 224.0599 101.900607 
L 226.961637 100.958437 
L 230.199085 100.144935 
L 233.801675 99.490705 
L 237.332531 99.072286 
L 241.189143 98.838628 
L 245.381893 98.824402 
L 249.328214 99.022829 
L 253.527744 99.448716 
L 257.965237 100.133899 
L 261.937951 100.953152 
L 266.039982 102.009623 
L 270.236066 103.325092 
L 274.479996 104.920247 
L 278.011361 106.476502 
L 281.494699 108.248277 
L 284.882408 110.241314 
L 287.487393 111.996564 
L 289.965586 113.89371 
L 292.283558 115.92936 
L 294.405651 118.097493 
L 296.294434 120.389148 
L 297.91132 122.792153 
L 298.922128 124.658246 
L 299.741881 126.570419 
L 300.354874 128.519685 
L 300.746226 130.495944 
L 300.902209 132.488026 
L 300.81059 134.483759 
L 300.460952 136.47008 
L 299.844993 138.433183 
L 298.956766 140.358721 
L 297.792874 142.232049 
L 296.352583 144.038509 
L 294.637875 145.763744 
L 292.653427 147.394029 
L 290.406536 148.916613 
L 287.906995 150.320041 
L 285.166927 151.594448 
L 282.200614 152.731819 
L 279.024295 153.726186 
L 275.655981 154.573766 
L 272.115244 155.273031 
L 268.423002 155.824712 
L 263.302518 156.336052 
L 258.006219 156.60294 
L 252.589533 156.643462 
L 247.10743 156.48018 
L 240.243065 156.02899 
L 233.45406 155.354361 
L 225.522942 154.329089 
L 216.712008 152.955226 
L 204.11153 150.720943 
L 188.853328 148.031932 
L 182.559595 147.14159 
L 177.712933 146.654488 
L 173.422447 146.442981 
L 169.630127 146.497055 
L 166.734881 146.740901 
L 164.135322 147.151479 
L 161.804942 147.712291 
L 159.396606 148.533457 
L 157.29509 149.508227 
L 155.477584 150.609899 
L 153.926588 151.812972 
L 152.628826 153.093297 
L 151.574181 154.428039 
L 150.754703 155.795529 
L 150.163718 157.175088 
L 149.795043 158.546871 
L 149.642326 159.891778 
L 149.698493 161.191427 
L 149.955332 162.428227 
L 150.403178 163.585509 
L 151.030739 164.647731 
L 151.825029 165.600721 
L 152.918113 166.540086 
L 154.185622 167.30475 
L 155.60132 167.882626 
L 157.137556 168.265543 
L 158.765997 168.449387 
L 160.458384 168.434076 
L 162.404649 168.183601 
L 164.360414 167.69645 
L 166.292303 166.987839 
L 168.171041 166.076616 
L 170.166243 164.852552 
L 172.038181 163.436045 
L 173.766565 161.858878 
L 175.485535 159.975231 
L 177.003272 157.972804 
L 178.31566 155.885893 
L 179.514473 153.54769 
L 180.476448 151.176368 
L 181.211025 148.797723 
L 181.762874 146.235796 
L 182.074592 143.708028 
L 182.15863 141.228413 
L 182.024752 138.807067 
L 181.67915 136.451495 
L 181.123793 134.16774 
L 180.355942 131.96143 
L 179.367777 129.838763 
L 178.248753 127.960273 
L 176.916185 126.167621 
L 175.491074 124.60878 
L 173.85315 123.141701 
L 171.981881 121.780281 
L 170.461211 120.866533 
L 170.461211 120.866533 
" clip-path="url(#p08883bee0a)" style="fill: none; stroke-dasharray: 5.55,2.4; stroke-dashoffset: 0; stroke: #0000ff; stroke-width: 1.5"/>
   </g>
  </g>
 </g>
 <defs>
  <clipPath id="p08883bee0a">
   <rect x="112.68" y="34.56" width="217.44" height="217.44"/>
  </clipPath>
 </defs>
</svg>
